STARTFONT 2.3
FONT -FontForge-Syncopate-Book-R-Normal--36-360-72-72-P-270-ISO10646-1
SIZE 36 72 72  2
FONTBOUNDINGBOX 66 41 -7 -8
COMMENT "Generated by fontforge, http://fontforge.sourceforge.net"
COMMENT "Copyright (c) 2010 by Brian J. Bonislawsky DBA Astigmatic (AOETI). All rights reserved. Available under the Apache 2.0 licence.http://www.apache.org/licenses/LICENSE-2.0.html"
STARTPROPERTIES 40
FOUNDRY "FontForge"
FAMILY_NAME "Syncopate"
WEIGHT_NAME "Book"
SLANT "R"
SETWIDTH_NAME "Normal"
ADD_STYLE_NAME ""
PIXEL_SIZE 36
POINT_SIZE 360
RESOLUTION_X 72
RESOLUTION_Y 72
SPACING "P"
AVERAGE_WIDTH 270
CHARSET_REGISTRY "ISO10646"
CHARSET_ENCODING "1"
FONTNAME_REGISTRY ""
CHARSET_COLLECTIONS "ISO8859-2 ISO8859-9 ISO8859-4 ISO10646-1"
BITS_PER_PIXEL 2
FONT_NAME "Syncopate-Regular"
FACE_NAME "Syncopate Regular"
COPYRIGHT "Copyright (c) 2010 by Brian J. Bonislawsky DBA Astigmatic (AOETI). All rights reserved. Available under the Apache 2.0 licence.http://www.apache.org/licenses/LICENSE-2.0.html"
FONT_VERSION "001.001"
FONT_ASCENT 29
FONT_DESCENT 7
UNDERLINE_POSITION -4
UNDERLINE_THICKNESS 2
X_HEIGHT 23
CAP_HEIGHT 23
RAW_ASCENT 799
RAW_DESCENT 200
NORM_SPACE 14
RELATIVE_WEIGHT 40
RELATIVE_SETWIDTH 70
SUPERSCRIPT_X 0
SUPERSCRIPT_Y 10
SUPERSCRIPT_SIZE 7
SUBSCRIPT_X 0
SUBSCRIPT_Y 10
SUBSCRIPT_SIZE 7
AVG_LOWERCASE_WIDTH 309
AVG_UPPERCASE_WIDTH 294
ENDPROPERTIES
CHARS 370
STARTCHAR space
ENCODING 32
SWIDTH 375 0
DWIDTH 14 0
BBX 1 1 0 0
BITMAP
00
ENDCHAR
STARTCHAR exclam
ENCODING 33
SWIDTH 274 0
DWIDTH 10 0
BBX 4 24 3 0
BITMAP
7D
7D
7D
7D
7D
7D
7D
7C
7C
3C
3C
3C
3C
3C
3C
38
38
28
00
00
00
7D
7D
7D
ENDCHAR
STARTCHAR quotedbl
ENCODING 34
SWIDTH 290 0
DWIDTH 10 0
BBX 8 7 1 17
BITMAP
B81F
B81F
B81F
B80F
B80F
740F
740F
ENDCHAR
STARTCHAR numbersign
ENCODING 35
SWIDTH 701 0
DWIDTH 25 0
BBX 23 24 1 0
BITMAP
000078001E00
000074001D00
0000B0002C00
0000F0003C00
0000E0003800
0001D0007400
0002D000B400
07FFFFFFFFF4
07FFFFFFFFF4
00038000E000
00074001D000
000B4002D000
000B0002C000
000E00038000
001E00078000
001D00074000
7FFFFFFFFF40
7FFFFFFFFF40
0038000E0000
0074001D0000
00B4002D0000
00B0002C0000
00E000380000
01D000740000
ENDCHAR
STARTCHAR dollar
ENCODING 36
SWIDTH 767 0
DWIDTH 28 0
BBX 22 28 3 -2
BITMAP
00001E000000
00001E000000
006BFFE90000
07FFFFFFE400
2FE51E05BE00
7D001E000600
F4001E000000
F0001E000000
F4001E000000
B8001E000000
7E401E000000
1FE41E000000
02FFEE000000
001BFFE40000
00001FFF9000
00001E1BF800
00001E007F40
00001E000BC0
00001E0002E0
00001E0002E0
00001E0002E0
00001E0003D0
90001E001FC0
FE941E06BF00
FFFFFFFFF800
16AFFFFA4000
00001E000000
00001E000000
ENDCHAR
STARTCHAR percent
ENCODING 37
SWIDTH 992 0
DWIDTH 36 0
BBX 31 24 2 0
BITMAP
01BF90000002E000
0BFFFD00000B8000
3F406F40001F0000
B8000BC0007D0000
F40003D000F40000
F00002D002E00000
F00002D00B800000
F40003D01F000000
B8000BC07D000000
3F406F40F4000000
0BFFFD02E0000000
01BF900B80000000
0000001F006FE400
0000007C07FFFF40
000000F40FD01BD0
000002E02E0002F0
00000B803C0000F4
00001F007C0000B4
00007C007C0000B4
0000F4003C0000F4
0003D0002E0002F0
000B80000FD01BD0
002F000002FFFF40
007C0000006FE400
ENDCHAR
STARTCHAR ampersand
ENCODING 38
SWIDTH 926 0
DWIDTH 33 0
BBX 29 24 2 0
BITMAP
00006FFE40000000
0007FFFFF4000000
002F9401BD000000
007D00002E000000
007800001E000000
007800002D000000
007C0000B8000000
003D0007E0000000
001F407E40000000
0007DBE400000000
0002FE4000000000
001BFD0000000000
00BE1F8000000000
02E407E000002E00
0F8000FD00002D00
2E00002F40003C00
3C000007E000B800
7C000000BD01F000
3C0000002F83D000
3E00000006FF8000
1F90000000FF0000
07F940016BFFD000
00BFFFFFFE41F800
0006BFFE90002F40
ENDCHAR
STARTCHAR quotesingle
ENCODING 39
SWIDTH 140 0
DWIDTH 5 0
BBX 3 7 1 17
BITMAP
B8
B8
B8
B8
B8
74
74
ENDCHAR
STARTCHAR parenleft
ENCODING 40
SWIDTH 420 0
DWIDTH 15 0
BBX 9 29 3 -2
BITMAP
000600
002F40
00BD00
01F400
03E000
0B8000
1F4000
2E0000
3D0000
7C0000
B80000
F40000
F40000
F40000
F40000
F40000
F40000
F40000
B80000
7C0000
3D0000
2E0000
1F4000
0B8000
03E000
01F400
00BD00
002F40
000600
ENDCHAR
STARTCHAR parenright
ENCODING 41
SWIDTH 420 0
DWIDTH 15 0
BBX 9 29 4 -2
BITMAP
600000
F80000
7E0000
1F8000
07D000
02F000
00F400
00BC00
003D00
002E00
002E00
001F00
000F00
000F40
000F40
000F40
000F00
001F00
002E00
002E00
003D00
00BC00
00F400
02F000
07D000
1F8000
7E0000
F80000
600000
ENDCHAR
STARTCHAR asterisk
ENCODING 42
SWIDTH 503 0
DWIDTH 18 0
BBX 14 14 2 10
BITMAP
000F0000
000F0000
100B0040
780B02E0
6F4B1FD0
07EBBD00
007FD000
007FD000
07EBBD00
7F4B1FD0
780B02E0
100B0040
000F0000
000F0000
ENDCHAR
STARTCHAR plus
ENCODING 43
SWIDTH 634 0
DWIDTH 23 0
BBX 17 18 3 3
BITMAP
0002D00000
0002D00000
0002D00000
0002D00000
0002D00000
0002D00000
0002D00000
0002D00000
FFFFFFFF80
FFFFFFFF80
0002D00000
0002D00000
0002D00000
0002D00000
0002D00000
0002D00000
0002D00000
0002D00000
ENDCHAR
STARTCHAR comma
ENCODING 44
SWIDTH 185 0
DWIDTH 7 0
BBX 4 7 1 -3
BITMAP
2F
3E
7D
7C
B8
F4
F0
ENDCHAR
STARTCHAR hyphen
ENCODING 45
SWIDTH 540 0
DWIDTH 19 0
BBX 14 2 3 11
BITMAP
FFFFFFE0
FFFFFFE0
ENDCHAR
STARTCHAR period
ENCODING 46
SWIDTH 185 0
DWIDTH 7 0
BBX 4 4 1 0
BITMAP
7F
7F
7F
7F
ENDCHAR
STARTCHAR slash
ENCODING 47
SWIDTH 500 0
DWIDTH 18 0
BBX 14 26 2 -1
BITMAP
000001E0
000002D0
000007C0
00000B40
00000F00
00002D00
00003C00
0000B800
0000F000
0001E000
0003D000
00078000
000B4000
001E0000
002D0000
007C0000
00B40000
00F00000
02E00000
03C00000
07800000
0F000000
1E000000
3D000000
78000000
B4000000
ENDCHAR
STARTCHAR zero
ENCODING 48
SWIDTH 833 0
DWIDTH 30 0
BBX 26 24 2 0
BITMAP
00006BFE900000
0007FFFFFD0000
002FE401BF8000
01FD000007F400
07E0000000BD00
0F800000002F00
1F000000000F40
3D0000000007C0
7C0000000003D0
B80000000002E0
B80000000002E0
B40000000001E0
B40000000001E0
B80000000002E0
B80000000002E0
7C0000000003D0
3D0000000007C0
1F000000000F40
0F800000002F00
07E0000000BD00
01FD000007F400
002FE401BF8000
0007FFFFFD0000
00006BFE900000
ENDCHAR
STARTCHAR one
ENCODING 49
SWIDTH 339 0
DWIDTH 12 0
BBX 8 24 0 0
BITMAP
01BF
6FFF
FE5F
901F
001F
001F
001F
001F
001F
001F
001F
001F
001F
001F
001F
001F
001F
001F
001F
001F
001F
001F
001F
001F
ENDCHAR
STARTCHAR two
ENCODING 50
SWIDTH 728 0
DWIDTH 26 0
BBX 23 24 1 0
BITMAP
0016FFE90000
01FFFFFFE400
1FE50016FE00
7D0000001FC0
6000000003E0
0000000001F0
0000000000F4
0000000000B8
0000000000F4
0000000001F0
0000000003E0
000000000B80
000000002E00
00000001F800
0000000BE000
0000007F4000
000002F80000
00001FD00000
0001FE000000
001BE0000000
00BE40000000
0BF400000000
7FFFFFFFFFFC
BFFFFFFFFFFC
ENDCHAR
STARTCHAR three
ENCODING 51
SWIDTH 726 0
DWIDTH 26 0
BBX 23 24 1 0
BITMAP
05ABFFEA4000
3FFFFFFFF800
3F940016FF40
240000001FC0
0000000003D0
0000000002E0
0000000002E0
0000000003D0
000000001F80
00000056FD00
0002FFFE9000
0002FFFF9000
0000015AFE00
000000001BC0
0000000002F0
0000000000F4
0000000000B8
0000000000B8
0000000000F4
0000000002F0
640000001BD0
BF940016FF40
BFFFFFFFF800
16AFFFE94000
ENDCHAR
STARTCHAR four
ENCODING 52
SWIDTH 769 0
DWIDTH 28 0
BBX 26 24 1 0
BITMAP
00000002FD0000
0000000BFD0000
0000002F2D0000
000000BD2D0000
000002F42D0000
00000BD02D0000
00002F402D0000
0000BD002D0000
0002F4002D0000
000BD0002D0000
002F40002D0000
007D00002D0000
01F400002D0000
07D000002D0000
1F4000002D0000
7D0000002D0000
FFFFFFFFFFFFE0
FFFFFFFFFFFFE0
000000002D0000
000000002D0000
000000002D0000
000000002D0000
000000002D0000
000000002D0000
ENDCHAR
STARTCHAR five
ENCODING 53
SWIDTH 738 0
DWIDTH 27 0
BBX 23 24 2 0
BITMAP
3FFFFFFFFF40
3FFFFFFFFF40
3D0000000000
3D0000000000
3D0000000000
3D0000000000
3D0000000000
3D0000000000
3D0000000000
3EAFFFE94000
3FFFFFFFF400
3E500016FE00
000000001FC0
0000000003E0
0000000001F0
0000000000F4
0000000000B4
0000000000F4
0000000001F0
0000000003E0
900000001FC0
FE940016FE00
2FFFFFFFE400
006BFFE90000
ENDCHAR
STARTCHAR six
ENCODING 54
SWIDTH 772 0
DWIDTH 28 0
BBX 25 24 2 0
BITMAP
00005AFFA40000
0006FFFFFF9000
002FA5005BF000
01F90000006000
03D00000000000
0B400000000000
1E000000000000
2D000000000000
3C006BFFA40000
780BFFFFFF4000
78BF94016FE000
BBF8000001F800
BF800000007D00
BE000000001F00
B8000000000F40
7C000000000F40
3D000000000F40
2E000000000F00
1F400000002E00
0BD00000007D00
02F8000001F800
00BF94016FE000
001BFFFFFE4000
00006BFF900000
ENDCHAR
STARTCHAR seven
ENCODING 55
SWIDTH 669 0
DWIDTH 24 0
BBX 23 24 0 0
BITMAP
FFFFFFFFFFFC
FFFFFFFFFFFC
0000000001F4
0000000003E0
000000000BC0
000000001F40
000000003E00
000000007C00
00000000F400
00000002E000
00000007C000
0000000F8000
0000002F0000
0000007D0000
000000F80000
000002F00000
000007D00000
00000F800000
00002F000000
00007D000000
0000B8000000
0001F4000000
0003E0000000
000BC0000000
ENDCHAR
STARTCHAR eight
ENCODING 56
SWIDTH 793 0
DWIDTH 29 0
BBX 25 24 2 0
BITMAP
0005AFFE900000
006FFFFFFE4000
02FE50016FD000
0BD0000002F400
0F40000000B800
0F000000007800
0F40000000B800
0BC0000001F400
02F800001BD000
007FE416FE0000
0006FFFFD00000
0006FFFFE40000
01BFA416FF8000
0BF400001BF400
2F40000000BE00
7D000000002F40
F4000000000B80
F4000000000B80
F4000000000B40
BD000000002F00
3F80000001BD00
0BF940016FF400
01BFFFFFFF8000
0006BFFEA40000
ENDCHAR
STARTCHAR nine
ENCODING 57
SWIDTH 776 0
DWIDTH 28 0
BBX 25 24 1 0
BITMAP
0001AFFA400000
006FFFFFF90000
02FE5005BF8000
0BD000000BE000
1F40000001F800
3D000000007D00
7C000000003E00
7C000000001F00
7C000000000F40
7C000000000F40
3D000000002F80
2F00000000BF80
0BD000000BEB80
02FE5005BF4B40
007FFFFFF80F40
0006BFFA400F00
00000000001E00
00000000003D00
0000000000B800
0000000002F000
064000001BD000
07F94016BE0000
01BFFFFFE40000
0006BFE9000000
ENDCHAR
STARTCHAR colon
ENCODING 58
SWIDTH 245 0
DWIDTH 9 0
BBX 3 17 3 0
BITMAP
FC
FC
FC
FC
00
00
00
00
00
00
00
00
00
FC
FC
FC
FC
ENDCHAR
STARTCHAR semicolon
ENCODING 59
SWIDTH 234 0
DWIDTH 8 0
BBX 5 20 1 -3
BITMAP
0FC0
0FC0
0FC0
0FC0
0000
0000
0000
0000
0000
0000
0000
0000
0000
0F80
1F40
2F00
2E00
3D00
3D00
7C00
ENDCHAR
STARTCHAR less
ENCODING 60
SWIDTH 634 0
DWIDTH 23 0
BBX 18 18 2 3
BITMAP
0000000060
00000007F0
0000007F90
00000BF800
0000BF8000
001BF80000
01BF800000
1BF4000000
7F40000000
7F40000000
1BF4000000
01BF400000
001BF80000
0000BF8000
00000BF800
0000007F90
00000007F0
0000000060
ENDCHAR
STARTCHAR equal
ENCODING 61
SWIDTH 634 0
DWIDTH 23 0
BBX 17 9 3 8
BITMAP
FFFFFFFF80
FFFFFFFF80
0000000000
0000000000
0000000000
0000000000
0000000000
FFFFFFFF80
FFFFFFFF80
ENDCHAR
STARTCHAR greater
ENCODING 62
SWIDTH 634 0
DWIDTH 23 0
BBX 17 18 3 3
BITMAP
9000000000
F900000000
6FD0000000
06FD000000
006FE00000
0002FE0000
00002FE400
000002FE40
0000001FC0
0000001FC0
000002FE40
00002FE400
0002FE0000
006FE00000
06FD000000
6FD0000000
F900000000
9000000000
ENDCHAR
STARTCHAR question
ENCODING 63
SWIDTH 568 0
DWIDTH 20 0
BBX 16 24 2 0
BITMAP
1AFFE900
FFFFFF90
FE401BF4
900000BC
0000003E
0000002E
0000001F
0000001F
0000002E
0000007D
000001F8
00001BE0
0005FF40
01BFE400
01FA4000
01E00000
01E00000
01E00000
00000000
00000000
00000000
01F40000
01F40000
01F40000
ENDCHAR
STARTCHAR at
ENCODING 64
SWIDTH 1016 0
DWIDTH 37 0
BBX 32 25 2 0
BITMAP
0000006BFFA40000
00001BFFFFFF9000
0001FF94005BF900
000BE40000007F40
007F400000000BD0
01F80000000001F4
03E0001BFE6D00B8
0BC001BFFFFD003D
0F4007F506FC002E
2E000F80007C002E
3D002F000078001E
3D003D0000B8001E
7C003D0000B4002E
7C007C0000F4003D
7D003D0000F000BC
3D003E0002F001F4
2E001F901FF91BE0
1F000BFFFE7FFF80
0F8001BFA01BF900
07E0000000000000
01F8000000000000
007F400000018000
001BFA40016FE000
0001BFFFFFFE4000
000006BFFE900000
ENDCHAR
STARTCHAR A
ENCODING 65
SWIDTH 812 0
DWIDTH 29 0
BBX 28 24 1 0
BITMAP
000000FD000000
000001FE000000
000003EF400000
000007CB800000
00000F43D00000
00002F02E00000
00003D00F40000
0000BC00BC0000
0000F4003D0000
0002F0002F0000
0007D0000F4000
000B80000BC000
001F400003E000
002E000002F000
007D000000F800
00B80000007C00
01FFFFFFFFFE00
03FFFFFFFFFF00
07D00000000F80
0F8000000007D0
1F0000000002E0
3E0000000001F4
7C0000000000B8
F400000000003D
ENDCHAR
STARTCHAR B
ENCODING 66
SWIDTH 836 0
DWIDTH 30 0
BBX 24 24 4 0
BITMAP
FFFFFFFFA400
FFFFFFFFFF40
F40000006FD0
F400000002E0
F400000000F0
F400000000F4
F400000000F4
F400000000F0
F400000002E0
F40000006F80
FFFFFFFFF900
FFFFFFFFFE40
F40000005BF4
F400000000BC
F4000000003E
F4000000002E
F4000000001F
F4000000001F
F4000000001F
F4000000002E
F400000000BD
F400000017F8
FFFFFFFFFFD0
FFFFFFFFE900
ENDCHAR
STARTCHAR C
ENCODING 67
SWIDTH 869 0
DWIDTH 31 0
BBX 27 24 2 0
BITMAP
000016BFFE9400
0001FFFFFFFF90
001FF94005AFF8
00BE40000001B8
02F40000000018
0BD00000000000
1F400000000000
2E000000000000
3D000000000000
7C000000000000
B8000000000000
B8000000000000
B8000000000000
B8000000000000
7C000000000000
3D000000000000
2E000000000000
1F400000000000
0BD00000000000
02F40000000018
00BE40000001B8
001FF940056FF8
0001FFFFFFFF90
000016BFFE9400
ENDCHAR
STARTCHAR D
ENCODING 68
SWIDTH 910 0
DWIDTH 33 0
BBX 27 24 4 0
BITMAP
FFFFFFFEA40000
FFFFFFFFFF8000
F40000016FF400
F400000001BD00
F4000000002F40
F4000000000BC0
F40000000003D0
F40000000002E0
F40000000001F0
F40000000000F4
F40000000000F4
F40000000000F4
F40000000000F4
F40000000000F4
F40000000000F4
F40000000001F0
F40000000002E0
F40000000003D0
F4000000000BC0
F4000000002F40
F400000001BD00
F40000016FF400
FFFFFFFFFF8000
FFFFFFFEA40000
ENDCHAR
STARTCHAR E
ENCODING 69
SWIDTH 754 0
DWIDTH 27 0
BBX 21 24 4 0
BITMAP
FFFFFFFFFF40
FFFFFFFFFF40
F40000000000
F40000000000
F40000000000
F40000000000
F40000000000
F40000000000
F40000000000
F40000000000
FFFFFFFFFD00
FFFFFFFFFD00
F40000000000
F40000000000
F40000000000
F40000000000
F40000000000
F40000000000
F40000000000
F40000000000
F40000000000
F40000000000
FFFFFFFFFF40
FFFFFFFFFF40
ENDCHAR
STARTCHAR F
ENCODING 70
SWIDTH 687 0
DWIDTH 25 0
BBX 20 24 4 0
BITMAP
FFFFFFFFFD
FFFFFFFFFD
F400000000
F400000000
F400000000
F400000000
F400000000
F400000000
F400000000
F400000000
FFFFFFFFF4
FFFFFFFFF4
F400000000
F400000000
F400000000
F400000000
F400000000
F400000000
F400000000
F400000000
F400000000
F400000000
F400000000
F400000000
ENDCHAR
STARTCHAR G
ENCODING 71
SWIDTH 910 0
DWIDTH 33 0
BBX 28 24 2 0
BITMAP
000006BFFFA400
0001BFFFFFFFE4
001FFA50016FFD
00BF40000001BD
02F40000000009
0BD00000000000
1F400000000000
2E000000000000
3D000000000000
7C000000000000
B8000000000000
B8000000000000
B8000001FFFFFE
B8000001FFFFFE
7C00000000001E
3D00000000001E
2E00000000001E
1F40000000001E
0BD0000000001E
02F8000000001E
00BF400000001E
001FFA500056BE
0001BFFFFFFFF9
000006BFFFA900
ENDCHAR
STARTCHAR H
ENCODING 72
SWIDTH 949 0
DWIDTH 34 0
BBX 26 24 4 0
BITMAP
F40000000000F0
F40000000000F0
F40000000000F0
F40000000000F0
F40000000000F0
F40000000000F0
F40000000000F0
F40000000000F0
F40000000000F0
F40000000000F0
FFFFFFFFFFFFF0
FFFFFFFFFFFFF0
F40000000000F0
F40000000000F0
F40000000000F0
F40000000000F0
F40000000000F0
F40000000000F0
F40000000000F0
F40000000000F0
F40000000000F0
F40000000000F0
F40000000000F0
F40000000000F0
ENDCHAR
STARTCHAR I
ENCODING 73
SWIDTH 287 0
DWIDTH 10 0
BBX 3 24 4 0
BITMAP
F4
F4
F4
F4
F4
F4
F4
F4
F4
F4
F4
F4
F4
F4
F4
F4
F4
F4
F4
F4
F4
F4
F4
F4
ENDCHAR
STARTCHAR J
ENCODING 74
SWIDTH 590 0
DWIDTH 21 0
BBX 18 24 0 0
BITMAP
00000003D0
00000003D0
00000003D0
00000003D0
00000003D0
00000003D0
00000003D0
00000003D0
00000003D0
00000003D0
00000003D0
00000003D0
00000003D0
00000003D0
00000003D0
00000003D0
00000003D0
00000003D0
00000007C0
0000000F80
0000002F00
E54006FD00
FFFFFFE000
1ABFFA4000
ENDCHAR
STARTCHAR K
ENCODING 75
SWIDTH 806 0
DWIDTH 29 0
BBX 24 24 4 0
BITMAP
F400000002F8
F40000001F90
F4000000BD00
F4000007E000
F400002F4000
F40001F80000
F4001FD00000
F400BE000000
F407F4000000
F42F80000000
F5FD00000000
FFF000000000
F6FD00000000
F47F80000000
F40BF4000000
F401FE000000
F4002FD00000
F40007F80000
F40000BF4000
F400001FE000
F4000002FD00
F40000007F80
F40000000BF4
F400000001FE
ENDCHAR
STARTCHAR L
ENCODING 76
SWIDTH 701 0
DWIDTH 25 0
BBX 20 24 4 0
BITMAP
F400000000
F400000000
F400000000
F400000000
F400000000
F400000000
F400000000
F400000000
F400000000
F400000000
F400000000
F400000000
F400000000
F400000000
F400000000
F400000000
F400000000
F400000000
F400000000
F400000000
F400000000
F400000000
FFFFFFFFFF
FFFFFFFFFF
ENDCHAR
STARTCHAR M
ENCODING 77
SWIDTH 1139 0
DWIDTH 41 0
BBX 33 24 4 0
BITMAP
F80000000000000BC0
FD0000000000001FC0
FF0000000000003FC0
FF800000000000BFC0
F7D00000000001F7C0
F5F00000000003E7C0
F4B8000000000BC7C0
F47D000000001F47C0
F42F000000003E07C0
F40B80000000BC07C0
F407D0000001F407C0
F402F0000002E007C0
F400F8000007C007C0
F4007D00000F4007C0
F4002F00002E0007C0
F4000F80007C0007C0
F40007D000F40007C0
F40002E002E00007C0
F40000F407C00007C0
F400007C0F400007C0
F400002E2E000007C0
F400000FBC000007C0
F4000007F4000007C0
F4000002E0000007C0
ENDCHAR
STARTCHAR N
ENCODING 78
SWIDTH 936 0
DWIDTH 34 0
BBX 26 24 4 0
BITMAP
FC0000000002E0
FF0000000002E0
FFC000000002E0
F7F000000002E0
F5FC00000002E0
F47F00000002E0
F41FC0000002E0
F407E0000002E0
F401F8000002E0
F4007E000002E0
F4001F800002E0
F40007E00002E0
F40001F80002E0
F400007E0002E0
F400001F8002E0
F4000007E002E0
F4000001F802E0
F40000007E02E0
F40000001F82E0
F400000007E2E0
F400000001FAE0
F4000000007FE0
F4000000001FE0
F40000000007E0
ENDCHAR
STARTCHAR O
ENCODING 79
SWIDTH 983 0
DWIDTH 35 0
BBX 31 24 2 0
BITMAP
000016BFFE900000
0002FFFFFFFE4000
002FF940016FE400
00BE40000001FD00
03F4000000002F40
0BC0000000000BC0
1F400000000002E0
2E000000000001F4
3D000000000000B8
7C000000000000B8
B80000000000007C
B80000000000007C
B80000000000007C
B80000000000007C
7C000000000000B8
3D000000000000B8
2E000000000001F4
1F400000000002E0
0BC0000000000BC0
03F4000000002F40
00BE40000001FD00
002FF940016FE400
0002FFFFFFFE4000
000016BFFE900000
ENDCHAR
STARTCHAR P
ENCODING 80
SWIDTH 818 0
DWIDTH 29 0
BBX 24 24 4 0
BITMAP
FFFFFFFFA400
FFFFFFFFFF40
F40000005BE0
F400000001F8
F4000000007C
F4000000003D
F4000000002E
F4000000002E
F4000000002E
F4000000003D
F4000000007C
F400000001F8
F40000005BE0
FFFFFFFFFF40
FFFFFFFFA400
F40000000000
F40000000000
F40000000000
F40000000000
F40000000000
F40000000000
F40000000000
F40000000000
F40000000000
ENDCHAR
STARTCHAR Q
ENCODING 81
SWIDTH 983 0
DWIDTH 35 0
BBX 33 24 2 0
BITMAP
000016BFFE90000000
0002FFFFFFFE400000
002FF940016FE40000
00BE40000001FD0000
03F4000000002F4000
0BC0000000000BC000
1F400000000002E000
2E000000000001F400
3D000000000000B800
7C000000000000B800
B80000000000007C00
B80000000000007C00
B80000000000007C00
B80000000000007C00
7C000000000000B800
3D000000000000B800
2E000000000001F400
1F4000000A0002E000
0BC000000FE00BC000
03F4000006FE6F4000
00BE4000006FFE0000
002FF940016FFFE500
0002FFFFFFFE46FFC0
000016BFFE90001A80
ENDCHAR
STARTCHAR R
ENCODING 82
SWIDTH 833 0
DWIDTH 30 0
BBX 25 24 4 0
BITMAP
FFFFFFFE900000
FFFFFFFFFE0000
F40000056F8000
F400000007E000
F400000001F000
F400000000F400
F400000000F400
F400000000F400
F400000000F400
F400000001F000
F400000007E000
F40000056FC000
FFFFFFFFFE0000
FFFFFFFF900000
F4000007C00000
F4000002F00000
F4000000B80000
F40000003D0000
F40000001F4000
F40000000BC000
F400000002F000
F400000000F800
F4000000007D00
F4000000001F40
ENDCHAR
STARTCHAR S
ENCODING 83
SWIDTH 787 0
DWIDTH 28 0
BBX 23 24 3 0
BITMAP
001AFFFA9500
06FFFFFFFF80
2FE50005BF80
7E0000000280
F80000000000
F40000000000
F40000000000
B80000000000
3F4000000000
1BF900000000
01BFE5000000
0006FFE50000
000016FFE000
00000016FE00
000000002FD0
0000000002F0
0000000000F4
0000000000B8
0000000000F8
0000000001F4
9000000007E0
FE940005BF80
FFFFFFFFF900
16AFFFFA4000
ENDCHAR
STARTCHAR T
ENCODING 84
SWIDTH 708 0
DWIDTH 26 0
BBX 25 24 0 0
BITMAP
7FFFFFFFFFFFC0
7FFFFFFFFFFFC0
000001F0000000
000001F0000000
000001F0000000
000001F0000000
000001F0000000
000001F0000000
000001F0000000
000001F0000000
000001F0000000
000001F0000000
000001F0000000
000001F0000000
000001F0000000
000001F0000000
000001F0000000
000001F0000000
000001F0000000
000001F0000000
000001F0000000
000001F0000000
000001F0000000
000001F0000000
ENDCHAR
STARTCHAR U
ENCODING 85
SWIDTH 891 0
DWIDTH 32 0
BBX 25 24 4 0
BITMAP
F0000000000F40
F0000000000F40
F0000000000F40
F0000000000F40
F0000000000F40
F0000000000F40
F0000000000F40
F0000000000F40
F0000000000F40
F0000000000F40
F0000000000F40
F0000000000F40
F0000000000F40
F0000000000F40
F0000000000F40
F0000000000F40
F0000000000F40
F4000000001F00
B8000000002E00
7E00000000BD00
2F90000006F800
07FE4001AFE000
01BFFFFFFE4000
0006BFFE900000
ENDCHAR
STARTCHAR V
ENCODING 86
SWIDTH 817 0
DWIDTH 29 0
BBX 28 24 1 0
BITMAP
B800000000007D
7D0000000000B8
2E0000000001F4
1F4000000002E0
0B8000000007D0
07D00000000B80
02E00000001F40
01F40000002E00
00B80000007D00
007D000000B800
002E000001F000
001F400002E000
000B800007C000
0007D0000B8000
0002E0001F0000
0001F4002E0000
0000B8007C0000
00007D00B80000
00002E01F00000
00001F42E00000
00000B87C00000
000007DB800000
000002FF000000
000001FE000000
ENDCHAR
STARTCHAR W
ENCODING 87
SWIDTH 1266 0
DWIDTH 46 0
BBX 43 24 1 0
BITMAP
7C00000000FD000000007C
3D00000001FF00000000B8
2E00000002FF40000001F4
1F40000003DB80000002E0
0F80000007C7C0000003D0
07C000000B83D0000007C0
03D000001F02E000000B80
02E000002E01F400001F40
01F400003D00B800002E00
00B800007C007C00003D00
007C0000B8003D00007C00
003D0000F4002E0000B800
002E0002E0001F0001F400
001F4003D0000F4002E000
000B8007C00007C003D000
0007C00B800003D007C000
0003D00F400002E00B8000
0002E01F000001F01F0000
0000F43D000000F42E0000
0000B87C000000B83D0000
00007CB80000003D7C0000
00003DF40000002EB80000
00002FF00000001FF00000
00000FE00000000FE00000
ENDCHAR
STARTCHAR X
ENCODING 88
SWIDTH 821 0
DWIDTH 30 0
BBX 26 24 2 0
BITMAP
7D000000000BC0
1F400000002F00
07D0000000BC00
01F4000002F000
007D00000BD000
002F40002F4000
000BD000BD0000
0002F402F40000
0000BD0BD00000
00002F1F400000
00000BFD000000
000002F4000000
000007FC000000
00001FAF000000
00007E0F800000
0001F803E00000
0007E000F80000
001F80003E0000
007E00000F8000
00F8000007E000
03E0000001F800
0F800000007E00
3E000000001F80
B80000000007E0
ENDCHAR
STARTCHAR Y
ENCODING 89
SWIDTH 763 0
DWIDTH 27 0
BBX 25 24 1 0
BITMAP
7D000000000B80
1F400000002F00
0BC0000000BD00
02E0000001F400
00F8000007D000
007D00000F8000
001F40002E0000
000BC000BC0000
0002E001F40000
0000F807D00000
00003E0F800000
00001F6E000000
000007FC000000
000002F0000000
000001F0000000
000001F0000000
000001F0000000
000001F0000000
000001F0000000
000001F0000000
000001F0000000
000001F0000000
000001F0000000
000001F0000000
ENDCHAR
STARTCHAR Z
ENCODING 90
SWIDTH 728 0
DWIDTH 26 0
BBX 22 24 2 0
BITMAP
3FFFFFFFFFE0
3FFFFFFFFFD0
000000001F40
000000007D00
00000000F800
00000003E000
0000000B8000
0000002F0000
000000BD0000
000001F40000
000007D00000
00001F800000
00003E000000
0000B8000000
0002F0000000
000BC0000000
001F40000000
007D00000000
01F400000000
03E000000000
0F8000000000
2F0000000000
7FFFFFFFFFF0
7FFFFFFFFFF0
ENDCHAR
STARTCHAR bracketleft
ENCODING 91
SWIDTH 409 0
DWIDTH 15 0
BBX 9 28 4 -2
BITMAP
7FFFC0
7FFFC0
780000
780000
780000
780000
780000
780000
780000
780000
780000
780000
780000
780000
780000
780000
780000
780000
780000
780000
780000
780000
780000
780000
780000
780000
7FFFC0
7FFFC0
ENDCHAR
STARTCHAR backslash
ENCODING 92
SWIDTH 500 0
DWIDTH 18 0
BBX 14 26 2 -1
BITMAP
B4000000
78000000
3D000000
1E000000
0F000000
07800000
03C00000
02E00000
00F00000
00B40000
007C0000
002D0000
001E0000
000B4000
00078000
0003D000
0001E000
0000F000
0000B800
00003C00
00002D00
00000F00
00000B40
000007C0
000002D0
000001E0
ENDCHAR
STARTCHAR bracketright
ENCODING 93
SWIDTH 409 0
DWIDTH 15 0
BBX 10 28 1 -2
BITMAP
7FFFD0
7FFFD0
0003D0
0003D0
0003D0
0003D0
0003D0
0003D0
0003D0
0003D0
0003D0
0003D0
0003D0
0003D0
0003D0
0003D0
0003D0
0003D0
0003D0
0003D0
0003D0
0003D0
0003D0
0003D0
0003D0
0003D0
7FFFD0
7FFFD0
ENDCHAR
STARTCHAR asciicircum
ENCODING 94
SWIDTH 459 0
DWIDTH 17 0
BBX 15 10 1 14
BITMAP
001F8000
002FD000
0079F000
00F4B800
02E03D00
07C01E00
0B400F40
1F0007C0
3D0002E0
B80000F4
ENDCHAR
STARTCHAR underscore
ENCODING 95
SWIDTH 500 0
DWIDTH 18 0
BBX 18 2 0 -4
BITMAP
FFFFFFFFF0
FFFFFFFFF0
ENDCHAR
STARTCHAR grave
ENCODING 96
SWIDTH 527 0
DWIDTH 19 0
BBX 9 5 3 20
BITMAP
240000
BF4000
1BF400
00BF40
000640
ENDCHAR
STARTCHAR a
ENCODING 97
SWIDTH 888 0
DWIDTH 32 0
BBX 26 24 2 0
BITMAP
005ABFFFE90000
0BFFFFFFFFE000
0BFA50005AFD00
06400000002F40
000000000007D0
000000000002E0
000000000001F0
000000000000F0
000000000000F0
000000056ABFF0
00001AFFFFFFF0
001BFFFA9540F0
01BFE5000000F0
0BF900000000F0
2F4000000000F0
7D0000000000F0
B80000000000F0
B40000000000F0
B80000000000F0
7D0000000006F0
3F40000001BFF0
1FF90005AFF9F0
02FFFFFFFE40F0
001AFFEA5000F0
ENDCHAR
STARTCHAR b
ENCODING 98
SWIDTH 836 0
DWIDTH 30 0
BBX 24 24 4 0
BITMAP
FFFFFFFFA400
FFFFFFFFFF40
F40000006FD0
F400000002E0
F400000000F0
F400000000F4
F400000000F4
F400000000F0
F400000002E0
F40000006F80
FFFFFFFFF900
FFFFFFFFFE40
F40000005BF4
F400000000BC
F4000000003E
F4000000002E
F4000000001F
F4000000001F
F4000000001F
F4000000002E
F400000000BD
F400000017F8
FFFFFFFFFFD0
FFFFFFFFE900
ENDCHAR
STARTCHAR c
ENCODING 99
SWIDTH 869 0
DWIDTH 31 0
BBX 27 24 2 0
BITMAP
000016BFFE9400
0001FFFFFFFF90
001FF94005AFF8
00BE40000001B8
02F40000000018
0BD00000000000
1F400000000000
2E000000000000
3D000000000000
7C000000000000
B8000000000000
B8000000000000
B8000000000000
B8000000000000
7C000000000000
3D000000000000
2E000000000000
1F400000000000
0BD00000000000
02F40000000018
00BE40000001B8
001FF940056FF8
0001FFFFFFFF90
000016BFFE9400
ENDCHAR
STARTCHAR d
ENCODING 100
SWIDTH 910 0
DWIDTH 33 0
BBX 27 24 4 0
BITMAP
FFFFFFFEA40000
FFFFFFFFFF8000
F40000016FF400
F400000001BD00
F4000000002F40
F4000000000BC0
F40000000003D0
F40000000002E0
F40000000001F0
F40000000000F4
F40000000000F4
F40000000000F4
F40000000000F4
F40000000000F4
F40000000000F4
F40000000001F0
F40000000002E0
F40000000003D0
F4000000000BC0
F4000000002F40
F400000001BD00
F40000016FF400
FFFFFFFFFF8000
FFFFFFFEA40000
ENDCHAR
STARTCHAR e
ENCODING 101
SWIDTH 910 0
DWIDTH 33 0
BBX 29 24 2 0
BITMAP
00001AFFE9000000
0002FFFFFFE40000
001FE90016FE0000
00BE4000002F8000
02F400000007E000
0BD000000000F800
1F40000000007C00
2E00000000002E00
3D00000000001E00
7C00000000000F00
B800000000000F40
BFFFFFFFFFFFFF40
BFFFFFFFFFFFFF40
B800000000000000
7C00000000000000
3D00000000000000
2E00000000000000
1F40000000000000
0BD0000000000000
02F4000000000000
00BE400000006400
001FF940016BF400
0001BFFFFFFFF400
000016BFFFA94000
ENDCHAR
STARTCHAR f
ENCODING 102
SWIDTH 817 0
DWIDTH 29 0
BBX 24 24 4 0
BITMAP
0006BFFFFFFD
01BFFFFFFFFD
0BF940000000
2F8000000000
7E0000000000
BC0000000000
B80000000000
F40000000000
F40000000000
F40000000000
F40000000000
FFFFFFFFFFFC
FFFFFFFFFFFC
F40000000000
F40000000000
F40000000000
F40000000000
F40000000000
F40000000000
F40000000000
F40000000000
F40000000000
F40000000000
F40000000000
ENDCHAR
STARTCHAR g
ENCODING 103
SWIDTH 910 0
DWIDTH 33 0
BBX 28 24 2 0
BITMAP
000006BFFFA400
0001BFFFFFFFE4
001FFA50016FFD
00BF40000001BD
02F40000000009
0BD00000000000
1F400000000000
2E000000000000
3D000000000000
7C000000000000
B8000000000000
B8000000000000
B8000001FFFFFE
B8000001FFFFFE
7C00000000001E
3D00000000001E
2E00000000001E
1F40000000001E
0BD0000000001E
02F8000000001E
00BF400000001E
001FFA500056BE
0001BFFFFFFFF9
000006BFFFA900
ENDCHAR
STARTCHAR h
ENCODING 104
SWIDTH 949 0
DWIDTH 34 0
BBX 26 24 4 0
BITMAP
F40000000000F0
F40000000000F0
F40000000000F0
F40000000000F0
F40000000000F0
F40000000000F0
F40000000000F0
F40000000000F0
F40000000000F0
F40000000000F0
FFFFFFFFFFFFF0
FFFFFFFFFFFFF0
F40000000000F0
F40000000000F0
F40000000000F0
F40000000000F0
F40000000000F0
F40000000000F0
F40000000000F0
F40000000000F0
F40000000000F0
F40000000000F0
F40000000000F0
F40000000000F0
ENDCHAR
STARTCHAR i
ENCODING 105
SWIDTH 287 0
DWIDTH 10 0
BBX 3 24 4 0
BITMAP
F4
F4
F4
F4
F4
F4
F4
F4
F4
F4
F4
F4
F4
F4
F4
F4
F4
F4
F4
F4
F4
F4
F4
F4
ENDCHAR
STARTCHAR j
ENCODING 106
SWIDTH 590 0
DWIDTH 21 0
BBX 18 24 0 0
BITMAP
00000003D0
00000003D0
00000003D0
00000003D0
00000003D0
00000003D0
00000003D0
00000003D0
00000003D0
00000003D0
00000003D0
00000003D0
00000003D0
00000003D0
00000003D0
00000003D0
00000003D0
00000003D0
00000007C0
0000000F80
0000002F00
E54006FD00
FFFFFFE000
1ABFFA4000
ENDCHAR
STARTCHAR k
ENCODING 107
SWIDTH 867 0
DWIDTH 31 0
BBX 25 24 4 0
BITMAP
F4000000003D00
F4000000003D00
F4000000007C00
F400000000F800
F400000001F000
F400000007D000
F40000001F8000
F40000007E0000
F4000002F80000
F400006FD00000
F4005BF9000000
FFFFFF90000000
FFFFFFE9000000
F40016FFD00000
F400000BFD0000
F40000007F4000
F40000000BE000
F400000001F400
F400000000BD00
F4000000002E00
F4000000001F40
F4000000000F80
F4000000000B80
F40000000007C0
ENDCHAR
STARTCHAR l
ENCODING 108
SWIDTH 709 0
DWIDTH 26 0
BBX 22 24 4 0
BITMAP
F40000000000
F40000000000
F40000000000
F40000000000
F40000000000
F40000000000
F40000000000
F40000000000
F40000000000
F40000000000
F40000000000
F40000000000
F40000000000
F40000000000
F40000000000
F40000000000
F40000000000
F40000000000
B80000000000
BC0000000000
3E0000000000
1FE400000000
07FFFFFFFFD0
006BFFFFFFD0
ENDCHAR
STARTCHAR m
ENCODING 109
SWIDTH 1246 0
DWIDTH 45 0
BBX 37 24 4 0
BITMAP
F400AFE400006BFE4000
F41BFFFF4006FFFFE000
F4BE501BD02FE406FC00
F6F40001F5FD00003E00
FF800000BFE000001F40
FD0000007F4000000B80
F80000003D0000000780
F40000002D00000007C0
F40000002D00000007C0
F40000002D00000007C0
F40000002D00000007C0
F40000002D00000007C0
F40000002D00000007C0
F40000002D00000007C0
F40000002D00000007C0
F40000002D00000007C0
F40000002D00000007C0
F40000002D00000007C0
F40000002D00000007C0
F40000002D00000007C0
F40000002D00000007C0
F40000002D00000007C0
F40000002D00000007C0
F40000002D00000007C0
ENDCHAR
STARTCHAR n
ENCODING 110
SWIDTH 933 0
DWIDTH 34 0
BBX 26 24 4 0
BITMAP
F40001AFFA4000
F400AFFFFFF400
F40BFE4005BE00
F4BF8000001F40
FBF40000000BC0
FF8000000003D0
FD0000000002D0
F40000000002E0
F40000000002E0
F40000000002E0
F40000000002E0
F40000000002E0
F40000000002E0
F40000000002E0
F40000000002E0
F40000000002E0
F40000000002E0
F40000000002E0
F40000000002E0
F40000000002E0
F40000000002E0
F40000000002E0
F40000000002E0
F40000000002E0
ENDCHAR
STARTCHAR o
ENCODING 111
SWIDTH 983 0
DWIDTH 35 0
BBX 31 24 2 0
BITMAP
000016BFFE900000
0002FFFFFFFE4000
002FF940016FE400
00BE40000001FD00
03F4000000002F40
0BC0000000000BC0
1F400000000002E0
2E000000000001F4
3D000000000000B8
7C000000000000B8
B80000000000007C
B80000000000007C
B80000000000007C
B80000000000007C
7C000000000000B8
3D000000000000B8
2E000000000001F4
1F400000000002E0
0BC0000000000BC0
03F4000000002F40
00BE40000001FD00
002FF940016FE400
0002FFFFFFFE4000
000016BFFE900000
ENDCHAR
STARTCHAR p
ENCODING 112
SWIDTH 818 0
DWIDTH 29 0
BBX 24 24 4 0
BITMAP
FFFFFFFFA400
FFFFFFFFFF40
F40000005BE0
F400000001F8
F4000000007C
F4000000003D
F4000000002E
F4000000002E
F4000000002E
F4000000003D
F4000000007C
F400000001F8
F40000005BE0
FFFFFFFFFF40
FFFFFFFFA400
F40000000000
F40000000000
F40000000000
F40000000000
F40000000000
F40000000000
F40000000000
F40000000000
F40000000000
ENDCHAR
STARTCHAR q
ENCODING 113
SWIDTH 983 0
DWIDTH 35 0
BBX 33 24 2 0
BITMAP
000016BFFE90000000
0002FFFFFFFE400000
002FF940016FE40000
00BE40000001FD0000
03F4000000002F4000
0BC0000000000BC000
1F400000000002E000
2E000000000001F400
3D000000000000B800
7C000000000000B800
B80000000000007C00
B80000000000007C00
B80000000000007C00
B80000000000007C00
7C000000000000B800
3D000000000000B800
2E000000000001F400
1F400000000002E000
0BC0000000000BC000
03F4000000002F4000
00BE40000001FD0000
002FF940016FFFA500
0002FFFFFFFE6FFFC0
000016BFFE90005B40
ENDCHAR
STARTCHAR r
ENCODING 114
SWIDTH 609 0
DWIDTH 22 0
BBX 18 24 4 0
BITMAP
F40016FFE0
F401BFFFF0
F41FE50050
F4BE400000
F6F4000000
FF80000000
FE00000000
F800000000
F400000000
F400000000
F400000000
F400000000
F400000000
F400000000
F400000000
F400000000
F400000000
F400000000
F400000000
F400000000
F400000000
F400000000
F400000000
F400000000
ENDCHAR
STARTCHAR s
ENCODING 115
SWIDTH 787 0
DWIDTH 28 0
BBX 23 24 3 0
BITMAP
001AFFFA9500
06FFFFFFFF80
2FE50005BF80
7E0000000280
F80000000000
F40000000000
F40000000000
B80000000000
3F4000000000
1BF900000000
01BFE5000000
0006FFE50000
000016FFE000
00000016FE00
000000002FD0
0000000002F0
0000000000F4
0000000000B8
0000000000F8
0000000001F4
9000000007E0
FE940005BF80
FFFFFFFFF900
16AFFFFA4000
ENDCHAR
STARTCHAR t
ENCODING 116
SWIDTH 708 0
DWIDTH 26 0
BBX 25 24 0 0
BITMAP
7FFFFFFFFFFFC0
7FFFFFFFFFFFC0
000001F0000000
000001F0000000
000001F0000000
000001F0000000
000001F0000000
000001F0000000
000001F0000000
000001F0000000
000001F0000000
000001F0000000
000001F0000000
000001F0000000
000001F0000000
000001F0000000
000001F0000000
000001F0000000
000001F0000000
000001F0000000
000001F0000000
000001F0000000
000001F0000000
000001F0000000
ENDCHAR
STARTCHAR u
ENCODING 117
SWIDTH 931 0
DWIDTH 34 0
BBX 26 24 4 0
BITMAP
F40000000002D0
F40000000002D0
F40000000002D0
F40000000002D0
F40000000002D0
F40000000002D0
F40000000002D0
F40000000002D0
F40000000002D0
F40000000002D0
F40000000002D0
F40000000002D0
F40000000002D0
F40000000002D0
F40000000002D0
F40000000002D0
F40000000002D0
F4000000000BD0
B8000000006FD0
7C00000002FBD0
2F0000006FD2D0
0BE4005BFD02D0
02FFFFFF9002D0
001BFFA40002D0
ENDCHAR
STARTCHAR v
ENCODING 118
SWIDTH 817 0
DWIDTH 29 0
BBX 28 24 1 0
BITMAP
B800000000007D
7D0000000000B8
2E0000000001F4
1F4000000002E0
0B8000000007D0
07D00000000B80
02E00000001F40
01F40000002E00
00B80000007D00
007D000000B800
002E000001F000
001F400002E000
000B800007C000
0007D0000B8000
0002E0001F0000
0001F4002E0000
0000B8007C0000
00007D00B80000
00002E01F00000
00001F42E00000
00000B87C00000
000007DB800000
000002FF000000
000001FE000000
ENDCHAR
STARTCHAR w
ENCODING 119
SWIDTH 1266 0
DWIDTH 46 0
BBX 43 24 1 0
BITMAP
7C00000000FD000000007C
3D00000001FF00000000B8
2E00000002FF40000001F4
1F40000003DB80000002E0
0F80000007C7C0000003D0
07C000000B83D0000007C0
03D000001F02E000000B80
02E000002E01F400001F40
01F400003D00B800002E00
00B800007C007C00003D00
007C0000B8003D00007C00
003D0000F4002E0000B800
002E0002E0001F0001F400
001F4003D0000F4002E000
000B8007C00007C003D000
0007C00B800003D007C000
0003D00F400002E00B8000
0002E01F000001F01F0000
0000F43D000000F42E0000
0000B87C000000B83D0000
00007CB80000003D7C0000
00003DF40000002EB80000
00002FF00000001FF00000
00000FE00000000FE00000
ENDCHAR
STARTCHAR x
ENCODING 120
SWIDTH 821 0
DWIDTH 30 0
BBX 26 24 2 0
BITMAP
7D000000000BC0
1F400000002F00
07D0000000BC00
01F4000002F000
007D00000BD000
002F40002F4000
000BD000BD0000
0002F402F40000
0000BD0BD00000
00002F1F400000
00000BFD000000
000002F4000000
000007FC000000
00001FAF000000
00007E0F800000
0001F803E00000
0007E000F80000
001F80003E0000
007E00000F8000
00F8000007E000
03E0000001F800
0F800000007E00
3E000000001F80
B80000000007E0
ENDCHAR
STARTCHAR y
ENCODING 121
SWIDTH 911 0
DWIDTH 33 0
BBX 26 24 3 0
BITMAP
B40000000002E0
B40000000002E0
B40000000002E0
B40000000002E0
B40000000002E0
B40000000002E0
B80000000002E0
B80000000002E0
7C0000000007E0
7D000000001FE0
3E000000007FE0
1F40000001F6E0
0BE000001BD2E0
02FE4005FE42E0
006FFFFFE402E0
0006BFF94002E0
000000000002E0
000000000007D0
00000000000FC0
00000000007F40
A400000006FD00
BFA50005BFE000
BFFFFFFFFE4000
16ABFFFA900000
ENDCHAR
STARTCHAR z
ENCODING 122
SWIDTH 728 0
DWIDTH 26 0
BBX 22 24 2 0
BITMAP
3FFFFFFFFFE0
3FFFFFFFFFD0
000000001F40
000000007D00
00000000F800
00000003E000
0000000B8000
0000002F0000
000000BD0000
000001F40000
000007D00000
00001F800000
00003E000000
0000B8000000
0002F0000000
000BC0000000
001F40000000
007D00000000
01F400000000
03E000000000
0F8000000000
2F0000000000
7FFFFFFFFFF0
7FFFFFFFFFF0
ENDCHAR
STARTCHAR braceleft
ENCODING 123
SWIDTH 386 0
DWIDTH 14 0
BBX 11 28 1 -2
BITMAP
0006FC
002FFC
007D00
00B800
00B400
00F400
00F400
00F400
00F400
00F400
00F000
01E000
07D000
FF4000
FF4000
07D000
01E000
00F000
00F400
00F400
00F400
00F400
00F400
00B400
00B800
007D00
002FFC
0006FC
ENDCHAR
STARTCHAR bar
ENCODING 124
SWIDTH 259 0
DWIDTH 9 0
BBX 3 36 3 -8
BITMAP
78
78
78
78
78
78
78
78
78
78
78
78
78
78
78
78
78
78
78
78
78
78
78
78
78
78
78
78
78
78
78
78
78
78
78
78
ENDCHAR
STARTCHAR braceright
ENCODING 125
SWIDTH 386 0
DWIDTH 14 0
BBX 12 28 1 -2
BITMAP
7F9000
7FF800
007D00
002E00
001E00
001E00
001E00
001E00
001E00
001F00
001F00
000F40
0007D0
0001FE
0001FE
0007D0
000F40
001F00
001F00
001E00
001E00
001E00
001E00
001E00
002E00
007D00
7FF800
7F9000
ENDCHAR
STARTCHAR asciitilde
ENCODING 126
SWIDTH 634 0
DWIDTH 23 0
BBX 18 4 2 10
BITMAP
06FA400010
2FFFF901B0
7905BFFFE0
500006FE40
ENDCHAR
STARTCHAR nonbreakingspace
ENCODING 160
SWIDTH 375 0
DWIDTH 14 0
BBX 1 1 0 0
BITMAP
00
ENDCHAR
STARTCHAR exclamdown
ENCODING 161
SWIDTH 274 0
DWIDTH 10 0
BBX 4 24 3 0
BITMAP
7D
7D
7D
00
00
00
28
38
38
3C
3C
3C
3C
3C
3C
7C
7C
7D
7D
7D
7D
7D
7D
7D
ENDCHAR
STARTCHAR cent
ENCODING 162
SWIDTH 736 0
DWIDTH 27 0
BBX 23 28 2 -2
BITMAP
000001D00000
000001D00000
000001D00000
00006BFE9000
001BFFFFFE40
00BF95D16FE0
07F401D001B8
0F8001D00018
2F0001D00000
7D0001D00000
B80001D00000
F40001D00000
F40001D00000
F40001D00000
F40001D00000
F40001D00000
F40001D00000
B80001D00000
7D0001D00000
2F0001D00000
0F8001D00018
07F401D001B8
00BF95D06BE0
001BFFFFFE40
00016BFE9000
000001D00000
000001D00000
000001D00000
ENDCHAR
STARTCHAR sterling
ENCODING 163
SWIDTH 792 0
DWIDTH 29 0
BBX 25 24 2 0
BITMAP
000006BFFA9000
00006FFFFFFC00
0001FE4006FC00
0007E000001800
000B8000000000
000F4000000000
001F0000000000
002E0000000000
002E0000000000
002E0000000000
002E0000000000
BFFFFFFFFC0000
BFFFFFFFFC0000
002E0000000000
002E0000000000
002E0000000000
002E0000000000
002D0000000000
003D0000000000
007C0000000000
01F40000000000
1BFFFE95001640
FFFFFFFFFFFF40
A940056BFFFF40
ENDCHAR
STARTCHAR currency
ENCODING 164
SWIDTH 560 0
DWIDTH 20 0
BBX 16 17 2 4
BITMAP
10000004
B400001E
7D1BF87D
1FFFFFF4
07F41BE0
0B8002E0
0F0000B4
1E000074
1D000078
1E000074
0F0000B4
0B8001E0
07E41BE0
1FFFFFF4
7D1BE47D
7400001E
10000004
ENDCHAR
STARTCHAR yen
ENCODING 165
SWIDTH 811 0
DWIDTH 29 0
BBX 25 24 2 0
BITMAP
7D000000000F80
2F000000002E00
0B80000000BC00
03E0000001F000
00F8000007D000
007D00001F4000
001F40003E0000
000BC000B80000
0002E002F00000
0000B807C00000
2FFFFE1FFFFF00
2FFFFFBFFFFF00
000007F8000000
000002F0000000
000002E0000000
2FFFFFFFFFFF00
2FFFFFFFFFFF00
000002E0000000
000002E0000000
000002E0000000
000002E0000000
000002E0000000
000002E0000000
000002E0000000
ENDCHAR
STARTCHAR brokenbar
ENCODING 166
SWIDTH 259 0
DWIDTH 9 0
BBX 3 31 3 -6
BITMAP
78
78
78
78
78
78
78
78
78
78
78
78
78
00
00
00
00
00
78
78
78
78
78
78
78
78
78
78
78
78
78
ENDCHAR
STARTCHAR section
ENCODING 167
SWIDTH 500 0
DWIDTH 18 0
BBX 14 24 2 0
BITMAP
01AFFF00
0BFFFF00
1F401600
2E000000
2E000000
1F400000
07F40000
07FF4000
2F6FF400
7C01FF40
B4001FC0
B40003E0
BC0001E0
7F4001E0
1FE403D0
02FF5F80
002FFD00
0001FD00
00002F40
00000B80
00000780
29006F40
2FFFFE00
06FFA400
ENDCHAR
STARTCHAR dieresis
ENCODING 168
SWIDTH 527 0
DWIDTH 19 0
BBX 11 3 4 20
BITMAP
7D01F4
7D01F4
7D01F4
ENDCHAR
STARTCHAR copyright
ENCODING 169
SWIDTH 770 0
DWIDTH 28 0
BBX 25 24 1 0
BITMAP
00002BFE400000
0006FFFFF80000
001FE401BF4000
00BD00000BD000
02F41BFE51F400
07C0BFFFF07C00
0B42F901B01E00
1E07D000000F00
2C0B8000000740
3C0F0000000380
380F00000002C0
781E00000002C0
780F00000002C0
380F00000002C0
380B8000000380
2C07D000000740
1E02F901B00B00
0F40BFFFF01E00
07C01BFE907C00
02F4000001F400
00BD00000BD000
001FE401BF4000
0006FFFFF80000
00006BFE400000
ENDCHAR
STARTCHAR ordfeminine
ENCODING 170
SWIDTH 497 0
DWIDTH 18 0
BBX 15 16 1 8
BITMAP
05BFFA40
2FFFFFE0
294005F4
00000038
0016AFFC
06FFFFFC
2FA5403C
B800003C
F000007C
B9001BFC
7FFFFFBC
06FFE93C
00000000
00000000
7FFFFFFC
7FFFFFFC
ENDCHAR
STARTCHAR guillemotleft
ENCODING 171
SWIDTH 440 0
DWIDTH 16 0
BBX 14 13 1 6
BITMAP
00240280
00B807D0
02F01F40
0BC07E00
2F40F800
7D03E000
B803C000
7D03E000
2F40F800
0BC07E00
02F01F40
00B807D0
00240280
ENDCHAR
STARTCHAR logicalnot
ENCODING 172
SWIDTH 634 0
DWIDTH 23 0
BBX 17 8 3 8
BITMAP
FFFFFFFF80
FFFFFFFF80
0000000380
0000000380
0000000380
0000000380
0000000380
0000000380
ENDCHAR
STARTCHAR uni00AD
ENCODING 173
SWIDTH 540 0
DWIDTH 19 0
BBX 14 2 3 11
BITMAP
FFFFFFE0
FFFFFFE0
ENDCHAR
STARTCHAR registered
ENCODING 174
SWIDTH 600 0
DWIDTH 22 0
BBX 18 18 2 6
BITMAP
001BFA0000
01E406E000
0740002800
1D00000A00
382FF90340
702C0B42C0
A02C0380D0
D02C0380E0
D02C0B40A0
D02FFD00A0
D02C1D00E0
A02C0B00D0
702C0382C0
382C02D340
1D00000A00
0740002800
01E406E000
001BFA0000
ENDCHAR
STARTCHAR macron
ENCODING 175
SWIDTH 527 0
DWIDTH 19 0
BBX 11 2 4 21
BITMAP
7FFFF4
7FFFF4
ENDCHAR
STARTCHAR degree
ENCODING 176
SWIDTH 373 0
DWIDTH 13 0
BBX 9 9 2 15
BITMAP
06F800
1FFF00
3D1B80
B403C0
B002C0
B403C0
7D0B80
1FFF00
06F800
ENDCHAR
STARTCHAR plusminus
ENCODING 177
SWIDTH 634 0
DWIDTH 23 0
BBX 17 20 3 2
BITMAP
0002D00000
0002D00000
0002D00000
0002D00000
0002D00000
0002D00000
0002D00000
FFFFFFFF80
FFFFFFFF80
0002D00000
0002D00000
0002D00000
0002D00000
0002D00000
0002D00000
0000000000
0000000000
0000000000
FFFFFFFF80
FFFFFFFF80
ENDCHAR
STARTCHAR twosuperior
ENCODING 178
SWIDTH 511 0
DWIDTH 18 0
BBX 16 15 1 9
BITMAP
16BFE900
BFFFFFD0
A90017F4
000000BC
0000003C
0000003C
000000B8
000002E0
00001B80
0000BD00
000BD000
01BD0000
1B900000
BFFFFFFD
BFFFFFFD
ENDCHAR
STARTCHAR threesuperior
ENCODING 179
SWIDTH 512 0
DWIDTH 18 0
BBX 15 16 1 8
BITMAP
1AFFE900
7FFFFFD0
650017F0
000000B4
000000B4
000001F4
00005BD0
003FFA00
003FFE40
000016F0
00000078
0000003C
0000007C
A50016F4
BFFFFFD0
1AFFE900
ENDCHAR
STARTCHAR acute
ENCODING 180
SWIDTH 527 0
DWIDTH 19 0
BBX 9 5 7 20
BITMAP
000600
007F80
07F900
7F8000
640000
ENDCHAR
STARTCHAR micro
ENCODING 181
SWIDTH 705 0
DWIDTH 25 0
BBX 21 24 1 -7
BITMAP
007C000007C0
007800000780
00B800000B80
00F400000F40
00F000000F40
01F000001F00
01E000001E00
02E000002E00
02D000003D00
03C000003D00
07C000007C00
07C00001FC00
0BD00007F800
0BF4001E7800
0F7D01B87C00
0F1FFFE03C00
1E06FE002D00
2E0000000000
2D0000000000
3D0000000000
3C0000000000
7C0000000000
B80000000000
B40000000000
ENDCHAR
STARTCHAR paragraph
ENCODING 182
SWIDTH 585 0
DWIDTH 21 0
BBX 15 24 2 0
BITMAP
006FFFF8
07FFE028
1FFFE028
3FFFE028
7FFFE028
BFFFE028
BFFFE028
BFFFE028
BFFFE028
7FFFE028
3FFFE028
1FFFE028
07FFE028
006FE028
0000A028
0000A028
0000A028
0000A028
0000A028
0000A028
0000A028
0000A028
0000A028
0000A028
ENDCHAR
STARTCHAR periodcentered
ENCODING 183
SWIDTH 185 0
DWIDTH 7 0
BBX 4 4 1 10
BITMAP
7F
7F
7F
7F
ENDCHAR
STARTCHAR cedilla
ENCODING 184
SWIDTH 527 0
DWIDTH 19 0
BBX 9 7 5 -7
BITMAP
00D000
02C000
03F900
000B40
000B80
BFFF40
BFF900
ENDCHAR
STARTCHAR onesuperior
ENCODING 185
SWIDTH 261 0
DWIDTH 9 0
BBX 6 15 0 9
BITMAP
1AF0
BFF0
A5F0
00F0
00F0
00F0
00F0
00F0
00F0
00F0
00F0
00F0
00F0
00F0
00F0
ENDCHAR
STARTCHAR ordmasculine
ENCODING 186
SWIDTH 520 0
DWIDTH 19 0
BBX 17 16 1 8
BITMAP
006FFA4000
07FFFFF400
2F9405BD00
7D00001F00
B400000B40
F000000780
F000000780
B400000B40
7D00001F00
2F9405BD00
07FFFFF400
006FFA4000
0000000000
0000000000
3FFFFFFE00
3FFFFFFE00
ENDCHAR
STARTCHAR guillemotright
ENCODING 187
SWIDTH 440 0
DWIDTH 16 0
BBX 14 13 1 6
BITMAP
24018000
7D02E000
2F40F800
0BC07E00
02F01F40
00F807D0
007C02D0
00F807D0
02F01F40
0BC07E00
2F40F800
7D02E000
24018000
ENDCHAR
STARTCHAR onequarter
ENCODING 188
SWIDTH 857 0
DWIDTH 31 0
BBX 29 24 0 0
BITMAP
16F40000001F0000
7FF40000003D0000
69B4000000B40000
00B4000002E00000
00B4000007800000
00B400001F000000
00B400003D000000
00B40000B4000000
00B40002E0000000
00B4000780000000
00B4001F00000000
00B4003D0007E000
00B400B4001FE000
000002E000B9E000
0000078002E1E000
00001F000B81E000
00003D002E01E000
0000F400B801E000
0002E002D001E000
00078007FFFFFFC0
001F000BFFFFFFC0
003D00000001E000
00F400000001E000
02E000000001E000
ENDCHAR
STARTCHAR onehalf
ENCODING 189
SWIDTH 937 0
DWIDTH 34 0
BBX 31 24 0 0
BITMAP
16F40000001F0000
7FF40000003D0000
69B4000000B40000
00B4000002E00000
00B4000007800000
00B400001F000000
00B400003D000000
00B40000B4000000
00B40002E0000000
00B4000780000000
00B4001F00000000
00B4003D016FFA00
00B400B407FFFFD0
000002E0069006F4
00000780000000B8
00001F0000000078
00003D00000000B4
0000F400000002E0
0002E00000000B80
000780000000BD00
001F0000000BD000
003D000000BD0000
00F4000007FFFFFC
02E000000BFFFFFC
ENDCHAR
STARTCHAR threequarters
ENCODING 190
SWIDTH 978 0
DWIDTH 35 0
BBX 33 24 1 0
BITMAP
06FFA40000003D0000
3FFFFE000000B80000
29005F400002E00000
00000B400007C00000
00005F00001F400000
007FF800003D000000
007FF80000B8000000
00016F4002E0000000
000007C007C0000000
000003C01F40000000
500007803D00000000
7D006E00B8001FC000
1AFFA402E0007FC000
00000007C001F7C000
0000001F4007C3C000
0000003D001F03C000
000000B8007803C000
000002E002E003C000
000007C00B8003C000
00001F401FFFFFFF40
00003D001FFFFFFF40
0000B800000003C000
0002E000000003C000
0007C000000003C000
ENDCHAR
STARTCHAR questiondown
ENCODING 191
SWIDTH 568 0
DWIDTH 20 0
BBX 17 24 2 0
BITMAP
00000BC000
00000BC000
00000BC000
0000000000
0000000000
0000000000
000007C000
000007C000
000007C000
00006FC000
000BFE4000
00BF900000
07F8000000
0F80000000
2E00000000
7D00000000
7C00000000
7800000000
7C00000000
3D00000000
2F40000240
0BE5006F40
02FFFFFF40
001BFFA500
ENDCHAR
STARTCHAR Agrave
ENCODING 192
SWIDTH 812 0
DWIDTH 29 0
BBX 28 31 1 0
BITMAP
00009000000000
0001FD00000000
00006FE0000000
000001FD000000
00000019000000
00000000000000
00000000000000
000000FD000000
000001FE000000
000003EF400000
000007CB800000
00000F43D00000
00002F02E00000
00003D00F40000
0000BC00BC0000
0000F4003D0000
0002F0002F0000
0007D0000F4000
000B80000BC000
001F400003E000
002E000002F000
007D000000F800
00B80000007C00
01FFFFFFFFFE00
03FFFFFFFFFF00
07D00000000F80
0F8000000007D0
1F0000000002E0
3E0000000001F4
7C0000000000B8
F400000000003D
ENDCHAR
STARTCHAR Aacute
ENCODING 193
SWIDTH 812 0
DWIDTH 29 0
BBX 28 31 1 0
BITMAP
00000000190000
00000001BE0000
0000001BE40000
000001FE400000
00000090000000
00000000000000
00000000000000
000000FD000000
000001FE000000
000003EF400000
000007CB800000
00000F43D00000
00002F02E00000
00003D00F40000
0000BC00BC0000
0000F4003D0000
0002F0002F0000
0007D0000F4000
000B80000BC000
001F400003E000
002E000002F000
007D000000F800
00B80000007C00
01FFFFFFFFFE00
03FFFFFFFFFF00
07D00000000F80
0F8000000007D0
1F0000000002E0
3E0000000001F4
7C0000000000B8
F400000000003D
ENDCHAR
STARTCHAR Acircumflex
ENCODING 194
SWIDTH 812 0
DWIDTH 29 0
BBX 28 31 1 0
BITMAP
00000078000000
000006FF400000
00002F9BF40000
0002F900BE0000
00028000060000
00000000000000
00000000000000
000000FD000000
000001FE000000
000003EF400000
000007CB800000
00000F43D00000
00002F02E00000
00003D00F40000
0000BC00BC0000
0000F4003D0000
0002F0002F0000
0007D0000F4000
000B80000BC000
001F400003E000
002E000002F000
007D000000F800
00B80000007C00
01FFFFFFFFFE00
03FFFFFFFFFF00
07D00000000F80
0F8000000007D0
1F0000000002E0
3E0000000001F4
7C0000000000B8
F400000000003D
ENDCHAR
STARTCHAR Atilde
ENCODING 195
SWIDTH 812 0
DWIDTH 29 0
BBX 28 30 1 0
BITMAP
00002F800E0000
0000BFF91E0000
0001E0BFFD0000
0001D007F40000
00000000000000
00000000000000
000000FD000000
000001FE000000
000003EF400000
000007CB800000
00000F43D00000
00002F02E00000
00003D00F40000
0000BC00BC0000
0000F4003D0000
0002F0002F0000
0007D0000F4000
000B80000BC000
001F400003E000
002E000002F000
007D000000F800
00B80000007C00
01FFFFFFFFFE00
03FFFFFFFFFF00
07D00000000F80
0F8000000007D0
1F0000000002E0
3E0000000001F4
7C0000000000B8
F400000000003D
ENDCHAR
STARTCHAR Adieresis
ENCODING 196
SWIDTH 812 0
DWIDTH 29 0
BBX 28 29 1 0
BITMAP
00007D00F40000
00007D00F40000
00007D00F40000
00000000000000
00000000000000
000000FD000000
000001FE000000
000003EF400000
000007CB800000
00000F43D00000
00002F02E00000
00003D00F40000
0000BC00BC0000
0000F4003D0000
0002F0002F0000
0007D0000F4000
000B80000BC000
001F400003E000
002E000002F000
007D000000F800
00B80000007C00
01FFFFFFFFFE00
03FFFFFFFFFF00
07D00000000F80
0F8000000007D0
1F0000000002E0
3E0000000001F4
7C0000000000B8
F400000000003D
ENDCHAR
STARTCHAR Aring
ENCODING 197
SWIDTH 812 0
DWIDTH 29 0
BBX 28 33 1 0
BITMAP
000002FE400000
00001FFFE00000
00002E01F00000
00003C00B40000
00002E01F00000
00001FFFE00000
000002FE400000
00000000000000
00000000000000
000000FD000000
000001FE000000
000003EF400000
000007CB800000
00000F43D00000
00002F02E00000
00003D00F40000
0000BC00BC0000
0000F4003D0000
0002F0002F0000
0007D0000F4000
000B80000BC000
001F400003E000
002E000002F000
007D000000F800
00B80000007C00
01FFFFFFFFFE00
03FFFFFFFFFF00
07D00000000F80
0F8000000007D0
1F0000000002E0
3E0000000001F4
7C0000000000B8
F400000000003D
ENDCHAR
STARTCHAR AE
ENCODING 198
SWIDTH 1172 0
DWIDTH 42 0
BBX 40 24 0 0
BITMAP
00000000FFFFFFFFFFFD
00000002FFFFFFFFFFFD
00000007C3E000000000
0000000F43E000000000
0000002E03E000000000
0000007D03E000000000
000000F803E000000000
000002F003E000000000
000007D003E000000000
00000F8003E000000000
00002F0003FFFFFFFFF4
00007D0003FFFFFFFFF4
0001F80003E000000000
0002F00003E000000000
000BD00003E000000000
001F800003E000000000
003FFFFFFFE000000000
00BFFFFFFFE000000000
01F8000003E000000000
03F0000003E000000000
0BD0000003E000000000
1F80000003E000000000
3F00000003FFFFFFFFFE
BD00000003FFFFFFFFFE
ENDCHAR
STARTCHAR Ccedilla
ENCODING 199
SWIDTH 869 0
DWIDTH 31 0
BBX 27 31 2 -7
BITMAP
000016BFFE9400
0001FFFFFFFF90
001FF94005AFF8
00BE40000001B8
02F40000000018
0BD00000000000
1F400000000000
2E000000000000
3D000000000000
7C000000000000
B8000000000000
B8000000000000
B8000000000000
B8000000000000
7C000000000000
3D000000000000
2E000000000000
1F400000000000
0BD00000000000
02F40000000018
00BE40000001B8
001FF940056FF8
0001FFFFFFFF90
000006BFFE9400
0000001D000000
0000002C000000
0000003FE00000
00000000780000
00000000B80000
000007FFF40000
000007FF900000
ENDCHAR
STARTCHAR Egrave
ENCODING 200
SWIDTH 754 0
DWIDTH 27 0
BBX 21 31 4 0
BITMAP
00A000000000
00FE00000000
002FE0000000
0001BE000000
00001A000000
000000000000
000000000000
FFFFFFFFFF40
FFFFFFFFFF40
F40000000000
F40000000000
F40000000000
F40000000000
F40000000000
F40000000000
F40000000000
F40000000000
FFFFFFFFFD00
FFFFFFFFFD00
F40000000000
F40000000000
F40000000000
F40000000000
F40000000000
F40000000000
F40000000000
F40000000000
F40000000000
F40000000000
FFFFFFFFFF40
FFFFFFFFFF40
ENDCHAR
STARTCHAR Eacute
ENCODING 201
SWIDTH 754 0
DWIDTH 27 0
BBX 21 31 4 0
BITMAP
0000000A0000
000001BF0000
00001BF40000
0000BE400000
0000A0000000
000000000000
000000000000
FFFFFFFFFF40
FFFFFFFFFF40
F40000000000
F40000000000
F40000000000
F40000000000
F40000000000
F40000000000
F40000000000
F40000000000
FFFFFFFFFD00
FFFFFFFFFD00
F40000000000
F40000000000
F40000000000
F40000000000
F40000000000
F40000000000
F40000000000
F40000000000
F40000000000
F40000000000
FFFFFFFFFF40
FFFFFFFFFF40
ENDCHAR
STARTCHAR Ecircumflex
ENCODING 202
SWIDTH 754 0
DWIDTH 27 0
BBX 21 31 4 0
BITMAP
000068000000
0002FF800000
002FEBF40000
01F9007F4000
019000064000
000000000000
000000000000
FFFFFFFFFF40
FFFFFFFFFF40
F40000000000
F40000000000
F40000000000
F40000000000
F40000000000
F40000000000
F40000000000
F40000000000
FFFFFFFFFD00
FFFFFFFFFD00
F40000000000
F40000000000
F40000000000
F40000000000
F40000000000
F40000000000
F40000000000
F40000000000
F40000000000
F40000000000
FFFFFFFFFF40
FFFFFFFFFF40
ENDCHAR
STARTCHAR Edieresis
ENCODING 203
SWIDTH 754 0
DWIDTH 27 0
BBX 21 29 4 0
BITMAP
003E00B80000
003E00B80000
003E00B80000
000000000000
000000000000
FFFFFFFFFF40
FFFFFFFFFF40
F40000000000
F40000000000
F40000000000
F40000000000
F40000000000
F40000000000
F40000000000
F40000000000
FFFFFFFFFD00
FFFFFFFFFD00
F40000000000
F40000000000
F40000000000
F40000000000
F40000000000
F40000000000
F40000000000
F40000000000
F40000000000
F40000000000
FFFFFFFFFF40
FFFFFFFFFF40
ENDCHAR
STARTCHAR Igrave
ENCODING 204
SWIDTH 287 0
DWIDTH 10 0
BBX 8 31 -1 0
BITMAP
6400
FE40
1FE4
01BE
000A
0000
0000
003D
003D
003D
003D
003D
003D
003D
003D
003D
003D
003D
003D
003D
003D
003D
003D
003D
003D
003D
003D
003D
003D
003D
003D
ENDCHAR
STARTCHAR Iacute
ENCODING 205
SWIDTH 287 0
DWIDTH 10 0
BBX 9 31 3 0
BITMAP
000A00
00BF40
0BF900
BE4000
A40000
000000
000000
3D0000
3D0000
3D0000
3D0000
3D0000
3D0000
3D0000
3D0000
3D0000
3D0000
3D0000
3D0000
3D0000
3D0000
3D0000
3D0000
3D0000
3D0000
3D0000
3D0000
3D0000
3D0000
3D0000
3D0000
ENDCHAR
STARTCHAR Icircumflex
ENCODING 206
SWIDTH 287 0
DWIDTH 10 0
BBX 14 31 -2 0
BITMAP
000A4000
00BFE400
07F9FE00
7F401BD0
640001A0
00000000
00000000
000F4000
000F4000
000F4000
000F4000
000F4000
000F4000
000F4000
000F4000
000F4000
000F4000
000F4000
000F4000
000F4000
000F4000
000F4000
000F4000
000F4000
000F4000
000F4000
000F4000
000F4000
000F4000
000F4000
000F4000
ENDCHAR
STARTCHAR Idieresis
ENCODING 207
SWIDTH 287 0
DWIDTH 10 0
BBX 10 29 0 0
BITMAP
BC02F0
BC02F0
BC02F0
000000
000000
00F400
00F400
00F400
00F400
00F400
00F400
00F400
00F400
00F400
00F400
00F400
00F400
00F400
00F400
00F400
00F400
00F400
00F400
00F400
00F400
00F400
00F400
00F400
00F400
ENDCHAR
STARTCHAR Eth
ENCODING 208
SWIDTH 910 0
DWIDTH 33 0
BBX 31 24 0 0
BITMAP
00FFFFFFFA900000
00FFFFFFFFFF4000
00F4000005BFF400
00F400000002FD00
00F4000000003F40
00F4000000000BC0
00F40000000007D0
00F40000000002E0
00F40000000001F0
00F40000000000F4
00F40000000000F4
7FFFFFFF000000F4
7FFFFFFF000000F4
00F40000000000F4
00F40000000000F4
00F40000000001F0
00F40000000002E0
00F40000000003D0
00F4000000000BC0
00F4000000002F40
00F400000001FD00
00F40000056FF400
00FFFFFFFFFF4000
00FFFFFFFA900000
ENDCHAR
STARTCHAR Ntilde
ENCODING 209
SWIDTH 936 0
DWIDTH 34 0
BBX 26 30 4 0
BITMAP
0000BE402C0000
0002FFE4780000
0003C1FFF40000
0007401BD00000
00000000000000
00000000000000
FC0000000002E0
FF0000000002E0
FFC000000002E0
F7F000000002E0
F5FC00000002E0
F47F00000002E0
F41FC0000002E0
F407E0000002E0
F401F8000002E0
F4007E000002E0
F4001F800002E0
F40007E00002E0
F40001F80002E0
F400007E0002E0
F400001F8002E0
F4000007E002E0
F4000001F802E0
F40000007E02E0
F40000001F82E0
F400000007E2E0
F400000001FAE0
F4000000007FE0
F4000000001FE0
F40000000007E0
ENDCHAR
STARTCHAR Ograve
ENCODING 210
SWIDTH 983 0
DWIDTH 35 0
BBX 31 31 2 0
BITMAP
0000090000000000
00001FE000000000
000006FE00000000
0000001FE0000000
00000001A0000000
0000000000000000
0000000000000000
000016BFFE900000
0002FFFFFFFE4000
002FF940016FE400
00BE40000001FD00
03F4000000002F40
0BC0000000000BC0
1F400000000002E0
2E000000000001F4
3D000000000000B8
7C000000000000B8
B80000000000007C
B80000000000007C
B80000000000007C
B80000000000007C
7C000000000000B8
3D000000000000B8
2E000000000001F4
1F400000000002E0
0BC0000000000BC0
03F4000000002F40
00BE40000001FD00
002FF940016FE400
0002FFFFFFFE4000
000016BFFE900000
ENDCHAR
STARTCHAR Oacute
ENCODING 211
SWIDTH 983 0
DWIDTH 35 0
BBX 31 31 2 0
BITMAP
0000000001900000
000000001BE00000
00000001BE400000
0000000BE4000000
0000000900000000
0000000000000000
0000000000000000
000016BFFE900000
0002FFFFFFFE4000
002FF940016FE400
00BE40000001FD00
03F4000000002F40
0BC0000000000BC0
1F400000000002E0
2E000000000001F4
3D000000000000B8
7C000000000000B8
B80000000000007C
B80000000000007C
B80000000000007C
B80000000000007C
7C000000000000B8
3D000000000000B8
2E000000000001F4
1F400000000002E0
0BC0000000000BC0
03F4000000002F40
00BE40000001FD00
002FF940016FE400
0002FFFFFFFE4000
000016BFFE900000
ENDCHAR
STARTCHAR Ocircumflex
ENCODING 212
SWIDTH 983 0
DWIDTH 35 0
BBX 31 31 2 0
BITMAP
0000000680000000
0000006FF4000000
000002FDBF400000
00002F900BE40000
0000290000600000
0000000000000000
0000000000000000
000016BFFE900000
0002FFFFFFFE4000
002FF940016FE400
00BE40000001FD00
03F4000000002F40
0BC0000000000BC0
1F400000000002E0
2E000000000001F4
3D000000000000B8
7C000000000000B8
B80000000000007C
B80000000000007C
B80000000000007C
B80000000000007C
7C000000000000B8
3D000000000000B8
2E000000000001F4
1F400000000002E0
0BC0000000000BC0
03F4000000002F40
00BE40000001FD00
002FF940016FE400
0002FFFFFFFE4000
000016BFFE900000
ENDCHAR
STARTCHAR Otilde
ENCODING 213
SWIDTH 983 0
DWIDTH 35 0
BBX 31 30 2 0
BITMAP
000002F900B00000
00000BFF91E00000
00000E0BFFD00000
00001D006F400000
0000000000000000
0000000000000000
000016BFFE900000
0002FFFFFFFE4000
002FF940016FE400
00BE40000001FD00
03F4000000002F40
0BC0000000000BC0
1F400000000002E0
2E000000000001F4
3D000000000000B8
7C000000000000B8
B80000000000007C
B80000000000007C
B80000000000007C
B80000000000007C
7C000000000000B8
3D000000000000B8
2E000000000001F4
1F400000000002E0
0BC0000000000BC0
03F4000000002F40
00BE40000001FD00
002FF940016FE400
0002FFFFFFFE4000
000016BFFE900000
ENDCHAR
STARTCHAR Odieresis
ENCODING 214
SWIDTH 983 0
DWIDTH 35 0
BBX 31 29 2 0
BITMAP
000003E00F800000
000003E00F800000
000003E00F800000
0000000000000000
0000000000000000
000016BFFE900000
0002FFFFFFFE4000
002FF940016FE400
00BE40000001FD00
03F4000000002F40
0BC0000000000BC0
1F400000000002E0
2E000000000001F4
3D000000000000B8
7C000000000000B8
B80000000000007C
B80000000000007C
B80000000000007C
B80000000000007C
7C000000000000B8
3D000000000000B8
2E000000000001F4
1F400000000002E0
0BC0000000000BC0
03F4000000002F40
00BE40000001FD00
002FF940016FE400
0002FFFFFFFE4000
000016BFFE900000
ENDCHAR
STARTCHAR multiply
ENCODING 215
SWIDTH 634 0
DWIDTH 23 0
BBX 15 15 4 5
BITMAP
60000020
B80000F8
2E0003E0
0B800F80
02E03E00
00F8F800
003FE000
001FC000
002FE000
00B9F800
02E03E00
0B800F80
2E0003E0
B80000F8
60000020
ENDCHAR
STARTCHAR Oslash
ENCODING 216
SWIDTH 983 0
DWIDTH 35 0
BBX 31 30 2 -3
BITMAP
0000000000002D00
0000000000007800
000000000000F000
000016BFFE92D000
0002FFFFFFFF8000
002FF940016FE400
00BE4000003EFD00
03F4000000B82F40
0BC0000001E00BD0
1F40000007C002E0
2E0000000F4001F4
3D0000002E0000B8
7C00000078000078
B8000001F000007C
B8000003D000007C
B800000B4000007C
B800001E0000007C
7C00007C000000B8
3D0000F4000000B8
2E0002D0000001F4
1F400B80000002E0
0BC01F0000000BC0
03F43D0000002F40
00FEB4000001FD00
002FF940016FE400
0007FFFFFFFE4000
000F56BFFE900000
002E000000000000
007C000000000000
00F4000000000000
ENDCHAR
STARTCHAR Ugrave
ENCODING 217
SWIDTH 891 0
DWIDTH 32 0
BBX 25 31 4 0
BITMAP
00060000000000
000FE400000000
0001FE40000000
00001BE0000000
000000A0000000
00000000000000
00000000000000
F0000000000F40
F0000000000F40
F0000000000F40
F0000000000F40
F0000000000F40
F0000000000F40
F0000000000F40
F0000000000F40
F0000000000F40
F0000000000F40
F0000000000F40
F0000000000F40
F0000000000F40
F0000000000F40
F0000000000F40
F0000000000F40
F0000000000F40
F4000000001F00
B8000000002E00
7E00000000BD00
2F90000006F800
07FE4001AFE000
01BFFFFFFE4000
0006BFFE900000
ENDCHAR
STARTCHAR Uacute
ENCODING 218
SWIDTH 891 0
DWIDTH 32 0
BBX 25 31 4 0
BITMAP
00000000A00000
0000000BF00000
000000BF800000
00000BE4000000
00000A40000000
00000000000000
00000000000000
F0000000000F40
F0000000000F40
F0000000000F40
F0000000000F40
F0000000000F40
F0000000000F40
F0000000000F40
F0000000000F40
F0000000000F40
F0000000000F40
F0000000000F40
F0000000000F40
F0000000000F40
F0000000000F40
F0000000000F40
F0000000000F40
F0000000000F40
F4000000001F00
B8000000002E00
7E00000000BD00
2F90000006F800
07FE4001AFE000
01BFFFFFFE4000
0006BFFE900000
ENDCHAR
STARTCHAR Ucircumflex
ENCODING 219
SWIDTH 891 0
DWIDTH 32 0
BBX 25 31 4 0
BITMAP
00000290000000
00002FF8000000
0001FEBF800000
001FD006F40000
00190000640000
00000000000000
00000000000000
F0000000000F40
F0000000000F40
F0000000000F40
F0000000000F40
F0000000000F40
F0000000000F40
F0000000000F40
F0000000000F40
F0000000000F40
F0000000000F40
F0000000000F40
F0000000000F40
F0000000000F40
F0000000000F40
F0000000000F40
F0000000000F40
F0000000000F40
F4000000001F00
B8000000002E00
7E00000000BD00
2F90000006F800
07FE4001AFE000
01BFFFFFFE4000
0006BFFE900000
ENDCHAR
STARTCHAR Udieresis
ENCODING 220
SWIDTH 891 0
DWIDTH 32 0
BBX 25 29 4 0
BITMAP
0002F00BC00000
0002F00BC00000
0002F00BC00000
00000000000000
00000000000000
F0000000000F40
F0000000000F40
F0000000000F40
F0000000000F40
F0000000000F40
F0000000000F40
F0000000000F40
F0000000000F40
F0000000000F40
F0000000000F40
F0000000000F40
F0000000000F40
F0000000000F40
F0000000000F40
F0000000000F40
F0000000000F40
F0000000000F40
F4000000001F00
B8000000002E00
7E00000000BD00
2F90000006F800
07FE4001AFE000
01BFFFFFFE4000
0006BFFE900000
ENDCHAR
STARTCHAR Yacute
ENCODING 221
SWIDTH 763 0
DWIDTH 27 0
BBX 25 31 1 0
BITMAP
00000000640000
00000006F80000
0000006F900000
000002F9000000
00000240000000
00000000000000
00000000000000
7D000000000B80
1F400000002F00
0BC0000000BD00
02E0000001F400
00F8000007D000
007D00000F8000
001F40002E0000
000BC000BC0000
0002E001F40000
0000F807D00000
00003E0F800000
00001F6E000000
000007FC000000
000002F0000000
000001F0000000
000001F0000000
000001F0000000
000001F0000000
000001F0000000
000001F0000000
000001F0000000
000001F0000000
000001F0000000
000001F0000000
ENDCHAR
STARTCHAR Thorn
ENCODING 222
SWIDTH 787 0
DWIDTH 28 0
BBX 22 24 4 0
BITMAP
F40000000000
F40000000000
F40000000000
F40000000000
FFFFFFFE9000
FFFFFFFFF900
F4000005BF40
F40000000BD0
F400000003E0
F400000001F0
F400000001F0
F400000000F0
F400000001F0
F400000001F0
F400000003E0
F40000000BC0
F4000001BF40
FFFFFFFFF900
FFFFFFFE9000
F40000000000
F40000000000
F40000000000
F40000000000
F40000000000
ENDCHAR
STARTCHAR germandbls
ENCODING 223
SWIDTH 863 0
DWIDTH 31 0
BBX 26 24 3 0
BITMAP
0005AFFE940000
006FFFFFFF4000
02FE50016FF400
0BD0000001FC00
2F000000003E00
3D000000002E00
7C000000001E00
B8000000002E00
B800000000BC00
B80000005BF400
B800BFFFFE4000
B800BFFFFF9000
B80000005BFD00
B8000000007F40
B8000000000BD0
B80000000003E0
B80000000001F0
B80000000001F0
B80000000002E0
B80000000007D0
B8090000001F80
B80FE94016FE00
B80FFFFFFFF400
B8016BFFFA4000
ENDCHAR
STARTCHAR agrave
ENCODING 224
SWIDTH 888 0
DWIDTH 32 0
BBX 26 31 2 0
BITMAP
0000A000000000
0001FE00000000
00006FE0000000
000001BE000000
0000001A000000
00000000000000
00000000000000
005ABFFFE90000
0BFFFFFFFFE000
0BFA50005AFD00
06400000002F40
000000000007D0
000000000002E0
000000000001F0
000000000000F0
000000000000F0
000000056ABFF0
00001AFFFFFFF0
001BFFFA9540F0
01BFE5000000F0
0BF900000000F0
2F4000000000F0
7D0000000000F0
B80000000000F0
B40000000000F0
B80000000000F0
7D0000000006F0
3F40000001BFF0
1FF90005AFF9F0
02FFFFFFFE40F0
001AFFEA5000F0
ENDCHAR
STARTCHAR aacute
ENCODING 225
SWIDTH 888 0
DWIDTH 32 0
BBX 26 31 2 0
BITMAP
00000000190000
00000001BF0000
0000001BF40000
000000BE400000
000000A0000000
00000000000000
00000000000000
005ABFFFE90000
0BFFFFFFFFE000
0BFA50005AFD00
06400000002F40
000000000007D0
000000000002E0
000000000001F0
000000000000F0
000000000000F0
000000056ABFF0
00001AFFFFFFF0
001BFFFA9540F0
01BFE5000000F0
0BF900000000F0
2F4000000000F0
7D0000000000F0
B80000000000F0
B40000000000F0
B80000000000F0
7D0000000006F0
3F40000001BFF0
1FF90005AFF9F0
02FFFFFFFE40F0
001AFFEA5000F0
ENDCHAR
STARTCHAR acircumflex
ENCODING 226
SWIDTH 888 0
DWIDTH 32 0
BBX 26 31 2 0
BITMAP
00000068000000
000006FF800000
00002FDBF40000
0001F9007F4000
00029000064000
00000000000000
00000000000000
005ABFFFE90000
0BFFFFFFFFE000
0BFA50005AFD00
06400000002F40
000000000007D0
000000000002E0
000000000001F0
000000000000F0
000000000000F0
000000056ABFF0
00001AFFFFFFF0
001BFFFA9540F0
01BFE5000000F0
0BF900000000F0
2F4000000000F0
7D0000000000F0
B80000000000F0
B40000000000F0
B80000000000F0
7D0000000006F0
3F40000001BFF0
1FF90005AFF9F0
02FFFFFFFE40F0
001AFFEA5000F0
ENDCHAR
STARTCHAR atilde
ENCODING 227
SWIDTH 888 0
DWIDTH 32 0
BBX 26 30 2 0
BITMAP
00002F900B0000
0000BFF91E0000
0000F07FFD0000
0001D006F40000
00000000000000
00000000000000
005ABFFFE90000
0BFFFFFFFFE000
0BFA50005AFD00
06400000002F40
000000000007D0
000000000002E0
000000000001F0
000000000000F0
000000000000F0
000000056ABFF0
00001AFFFFFFF0
001BFFFA9540F0
01BFE5000000F0
0BF900000000F0
2F4000000000F0
7D0000000000F0
B80000000000F0
B40000000000F0
B80000000000F0
7D0000000006F0
3F40000001BFF0
1FF90005AFF9F0
02FFFFFFFE40F0
001AFFEA5000F0
ENDCHAR
STARTCHAR adieresis
ENCODING 228
SWIDTH 888 0
DWIDTH 32 0
BBX 26 29 2 0
BITMAP
00003E00F80000
00003E00F80000
00003E00F80000
00000000000000
00000000000000
005ABFFFE90000
0BFFFFFFFFE000
0BFA50005AFD00
06400000002F40
000000000007D0
000000000002E0
000000000001F0
000000000000F0
000000000000F0
000000056ABFF0
00001AFFFFFFF0
001BFFFA9540F0
01BFE5000000F0
0BF900000000F0
2F4000000000F0
7D0000000000F0
B80000000000F0
B40000000000F0
B80000000000F0
7D0000000006F0
3F40000001BFF0
1FF90005AFF9F0
02FFFFFFFE40F0
001AFFEA5000F0
ENDCHAR
STARTCHAR aring
ENCODING 229
SWIDTH 888 0
DWIDTH 32 0
BBX 26 33 2 0
BITMAP
000002BE400000
00000FFFE00000
00002E01F40000
00002C00740000
00002E01F40000
00000FFFE00000
000002FE400000
00000000000000
00000000000000
005ABFFFE90000
0BFFFFFFFFE000
0BFA50005AFD00
06400000002F40
000000000007D0
000000000002E0
000000000001F0
000000000000F0
000000000000F0
000000056ABFF0
00001AFFFFFFF0
001BFFFA9540F0
01BFE5000000F0
0BF900000000F0
2F4000000000F0
7D0000000000F0
B80000000000F0
B40000000000F0
B80000000000F0
7D0000000006F0
3F40000001BFF0
1FF90005AFF9F0
02FFFFFFFE40F0
001AFFEA5000F0
ENDCHAR
STARTCHAR ae
ENCODING 230
SWIDTH 1551 0
DWIDTH 56 0
BBX 52 24 2 0
BITMAP
005ABFFFE90000001AFFA50000
0BFFFFFFFFE40006FFFFFFD000
0BFA50005AFE006FE5001BFD00
06400000002F81FD0000006F40
000000000007D7E00000000BD0
000000000002EF8000000002F0
000000000001FF0000000000B8
000000000000FD00000000007C
000000000000F800000000002D
000000056ABFF400000000002E
00001AFFFFFFF400000000001E
001BFFFA9541FFFFFFFFFFFFFE
01BFE5000000FFFFFFFFFFFFFF
0BF900000000F4000000000000
2F4000000000F4000000000000
7D0000000000B8000000000000
B800000000007C000000000000
B800000000002E000000000000
B80000000000BF800000000000
7D0000000007FBE00000000000
3F40000001BF91FE0000000060
1FF90005AFF9002FE940016FF0
02FFFFFFFE400006FFFFFFFFF0
001AFFFA500000001AFFFFA940
ENDCHAR
STARTCHAR ccedilla
ENCODING 231
SWIDTH 869 0
DWIDTH 31 0
BBX 27 31 2 -7
BITMAP
000016BFFE9400
0001FFFFFFFF90
001FF94005AFF8
00BE40000001B8
02F40000000018
0BD00000000000
1F400000000000
2E000000000000
3D000000000000
7C000000000000
B8000000000000
B8000000000000
B8000000000000
B8000000000000
7C000000000000
3D000000000000
2E000000000000
1F400000000000
0BD00000000000
02F40000000018
00BE40000001B8
001FF940056FF8
0001FFFFFFFF90
000006BFFE9400
0000001D000000
0000002C000000
0000003FE00000
00000000780000
00000000B80000
000007FFF40000
000007FF900000
ENDCHAR
STARTCHAR egrave
ENCODING 232
SWIDTH 910 0
DWIDTH 33 0
BBX 29 31 2 0
BITMAP
0000240000000000
0000BF4000000000
00001BF400000000
000000BF40000000
0000000640000000
0000000000000000
0000000000000000
00001AFFE9000000
0002FFFFFFE40000
001FE90016FE0000
00BE4000002F8000
02F400000007E000
0BD000000000F800
1F40000000007C00
2E00000000002E00
3D00000000001E00
7C00000000000F00
B800000000000F40
BFFFFFFFFFFFFF40
BFFFFFFFFFFFFF40
B800000000000000
7C00000000000000
3D00000000000000
2E00000000000000
1F40000000000000
0BD0000000000000
02F4000000000000
00BE400000006400
001FF940016BF400
0001BFFFFFFFF400
000016BFFFA94000
ENDCHAR
STARTCHAR eacute
ENCODING 233
SWIDTH 910 0
DWIDTH 33 0
BBX 29 31 2 0
BITMAP
0000000006000000
000000007F400000
00000007F9000000
0000007F80000000
0000006400000000
0000000000000000
0000000000000000
00001AFFE9000000
0002FFFFFFE40000
001FE90016FE0000
00BE4000002F8000
02F400000007E000
0BD000000000F800
1F40000000007C00
2E00000000002E00
3D00000000001E00
7C00000000000F00
B800000000000F40
BFFFFFFFFFFFFF40
BFFFFFFFFFFFFF40
B800000000000000
7C00000000000000
3D00000000000000
2E00000000000000
1F40000000000000
0BD0000000000000
02F4000000000000
00BE400000006400
001FF940016BF400
0001BFFFFFFFF400
000016BFFFA94000
ENDCHAR
STARTCHAR ecircumflex
ENCODING 234
SWIDTH 910 0
DWIDTH 33 0
BBX 29 31 2 0
BITMAP
0000001D00000000
000001FFD0000000
00001BE6F9000000
0000BE406F800000
0000900002800000
0000000000000000
0000000000000000
00001AFFE9000000
0002FFFFFFE40000
001FE90016FE0000
00BE4000002F8000
02F400000007E000
0BD000000000F800
1F40000000007C00
2E00000000002E00
3D00000000001E00
7C00000000000F00
B800000000000F40
BFFFFFFFFFFFFF40
BFFFFFFFFFFFFF40
B800000000000000
7C00000000000000
3D00000000000000
2E00000000000000
1F40000000000000
0BD0000000000000
02F4000000000000
00BE400000006400
001FF940016BF400
0001BFFFFFFFF400
000016BFFFA94000
ENDCHAR
STARTCHAR edieresis
ENCODING 235
SWIDTH 910 0
DWIDTH 33 0
BBX 29 29 2 0
BITMAP
00001F407D000000
00001F407D000000
00001F407D000000
0000000000000000
0000000000000000
00001AFFE9000000
0002FFFFFFE40000
001FE90016FE0000
00BE4000002F8000
02F400000007E000
0BD000000000F800
1F40000000007C00
2E00000000002E00
3D00000000001E00
7C00000000000F00
B800000000000F40
BFFFFFFFFFFFFF40
BFFFFFFFFFFFFF40
B800000000000000
7C00000000000000
3D00000000000000
2E00000000000000
1F40000000000000
0BD0000000000000
02F4000000000000
00BE400000006400
001FF940016BF400
0001BFFFFFFFF400
000016BFFFA94000
ENDCHAR
STARTCHAR igrave
ENCODING 236
SWIDTH 287 0
DWIDTH 10 0
BBX 8 31 -1 0
BITMAP
6400
FE40
1FE4
01BE
000A
0000
0000
003D
003D
003D
003D
003D
003D
003D
003D
003D
003D
003D
003D
003D
003D
003D
003D
003D
003D
003D
003D
003D
003D
003D
003D
ENDCHAR
STARTCHAR iacute
ENCODING 237
SWIDTH 287 0
DWIDTH 10 0
BBX 9 31 3 0
BITMAP
000600
00BF40
0BF900
BF4000
A40000
000000
000000
3D0000
3D0000
3D0000
3D0000
3D0000
3D0000
3D0000
3D0000
3D0000
3D0000
3D0000
3D0000
3D0000
3D0000
3D0000
3D0000
3D0000
3D0000
3D0000
3D0000
3D0000
3D0000
3D0000
3D0000
ENDCHAR
STARTCHAR icircumflex
ENCODING 238
SWIDTH 287 0
DWIDTH 10 0
BBX 14 31 -2 0
BITMAP
000A4000
00BFE400
07F9FE00
7F801BE0
640001A0
00000000
00000000
000F4000
000F4000
000F4000
000F4000
000F4000
000F4000
000F4000
000F4000
000F4000
000F4000
000F4000
000F4000
000F4000
000F4000
000F4000
000F4000
000F4000
000F4000
000F4000
000F4000
000F4000
000F4000
000F4000
000F4000
ENDCHAR
STARTCHAR idieresis
ENCODING 239
SWIDTH 287 0
DWIDTH 10 0
BBX 10 29 0 0
BITMAP
BC02F0
BC02F0
BC02F0
000000
000000
00F400
00F400
00F400
00F400
00F400
00F400
00F400
00F400
00F400
00F400
00F400
00F400
00F400
00F400
00F400
00F400
00F400
00F400
00F400
00F400
00F400
00F400
00F400
00F400
ENDCHAR
STARTCHAR eth
ENCODING 240
SWIDTH 910 0
DWIDTH 33 0
BBX 31 24 0 0
BITMAP
00FFFFFFFA900000
00FFFFFFFFFF4000
00F4000005BFF400
00F400000002FD00
00F4000000003F40
00F4000000000BC0
00F40000000007D0
00F40000000002E0
00F40000000001F0
00F40000000000F4
00F40000000000F4
7FFFFFFF000000F4
7FFFFFFF000000F4
00F40000000000F4
00F40000000000F4
00F40000000001F0
00F40000000002E0
00F40000000003D0
00F4000000000BC0
00F4000000002F40
00F400000001FD00
00F40000056FF400
00FFFFFFFFFF4000
00FFFFFFFA900000
ENDCHAR
STARTCHAR ntilde
ENCODING 241
SWIDTH 933 0
DWIDTH 34 0
BBX 26 30 4 0
BITMAP
0001BE00380000
0003FFE4B40000
000786FFF00000
000B002F900000
00000000000000
00000000000000
F40001AFFA4000
F400AFFFFFF400
F40BFE4005BE00
F4BF8000001F40
FBF40000000BC0
FF8000000003D0
FD0000000002D0
F40000000002E0
F40000000002E0
F40000000002E0
F40000000002E0
F40000000002E0
F40000000002E0
F40000000002E0
F40000000002E0
F40000000002E0
F40000000002E0
F40000000002E0
F40000000002E0
F40000000002E0
F40000000002E0
F40000000002E0
F40000000002E0
F40000000002E0
ENDCHAR
STARTCHAR ograve
ENCODING 242
SWIDTH 983 0
DWIDTH 35 0
BBX 31 31 2 0
BITMAP
0000090000000000
00001FE000000000
000006FE00000000
0000001FE0000000
00000001A0000000
0000000000000000
0000000000000000
000016BFFE900000
0002FFFFFFFE4000
002FF940016FE400
00BE40000001FD00
03F4000000002F40
0BC0000000000BC0
1F400000000002E0
2E000000000001F4
3D000000000000B8
7C000000000000B8
B80000000000007C
B80000000000007C
B80000000000007C
B80000000000007C
7C000000000000B8
3D000000000000B8
2E000000000001F4
1F400000000002E0
0BC0000000000BC0
03F4000000002F40
00BE40000001FD00
002FF940016FE400
0002FFFFFFFE4000
000016BFFE900000
ENDCHAR
STARTCHAR oacute
ENCODING 243
SWIDTH 983 0
DWIDTH 35 0
BBX 31 31 2 0
BITMAP
0000000001900000
000000001BE00000
00000001BE400000
0000000BE4000000
0000000900000000
0000000000000000
0000000000000000
000016BFFE900000
0002FFFFFFFE4000
002FF940016FE400
00BE40000001FD00
03F4000000002F40
0BC0000000000BC0
1F400000000002E0
2E000000000001F4
3D000000000000B8
7C000000000000B8
B80000000000007C
B80000000000007C
B80000000000007C
B80000000000007C
7C000000000000B8
3D000000000000B8
2E000000000001F4
1F400000000002E0
0BC0000000000BC0
03F4000000002F40
00BE40000001FD00
002FF940016FE400
0002FFFFFFFE4000
000016BFFE900000
ENDCHAR
STARTCHAR ocircumflex
ENCODING 244
SWIDTH 983 0
DWIDTH 35 0
BBX 31 31 2 0
BITMAP
0000000680000000
0000006FF4000000
000002FDBF400000
00002F900BE40000
0000290000600000
0000000000000000
0000000000000000
000016BFFE900000
0002FFFFFFFE4000
002FF940016FE400
00BE40000001FD00
03F4000000002F40
0BC0000000000BC0
1F400000000002E0
2E000000000001F4
3D000000000000B8
7C000000000000B8
B80000000000007C
B80000000000007C
B80000000000007C
B80000000000007C
7C000000000000B8
3D000000000000B8
2E000000000001F4
1F400000000002E0
0BC0000000000BC0
03F4000000002F40
00BE40000001FD00
002FF940016FE400
0002FFFFFFFE4000
000016BFFE900000
ENDCHAR
STARTCHAR otilde
ENCODING 245
SWIDTH 983 0
DWIDTH 35 0
BBX 31 30 2 0
BITMAP
000002F900B00000
00000BFF91E00000
00000E0BFFD00000
00001D006F400000
0000000000000000
0000000000000000
000016BFFE900000
0002FFFFFFFE4000
002FF940016FE400
00BE40000001FD00
03F4000000002F40
0BC0000000000BC0
1F400000000002E0
2E000000000001F4
3D000000000000B8
7C000000000000B8
B80000000000007C
B80000000000007C
B80000000000007C
B80000000000007C
7C000000000000B8
3D000000000000B8
2E000000000001F4
1F400000000002E0
0BC0000000000BC0
03F4000000002F40
00BE40000001FD00
002FF940016FE400
0002FFFFFFFE4000
000016BFFE900000
ENDCHAR
STARTCHAR odieresis
ENCODING 246
SWIDTH 983 0
DWIDTH 35 0
BBX 31 29 2 0
BITMAP
000003E00F800000
000003E00F800000
000003E00F800000
0000000000000000
0000000000000000
000016BFFE900000
0002FFFFFFFE4000
002FF940016FE400
00BE40000001FD00
03F4000000002F40
0BC0000000000BC0
1F400000000002E0
2E000000000001F4
3D000000000000B8
7C000000000000B8
B80000000000007C
B80000000000007C
B80000000000007C
B80000000000007C
7C000000000000B8
3D000000000000B8
2E000000000001F4
1F400000000002E0
0BC0000000000BC0
03F4000000002F40
00BE40000001FD00
002FF940016FE400
0002FFFFFFFE4000
000016BFFE900000
ENDCHAR
STARTCHAR divide
ENCODING 247
SWIDTH 634 0
DWIDTH 23 0
BBX 17 14 3 5
BITMAP
0002E00000
0002E00000
0002E00000
0000000000
0000000000
0000000000
FFFFFFFF80
FFFFFFFF80
0000000000
0000000000
0000000000
0002E00000
0002E00000
0002E00000
ENDCHAR
STARTCHAR oslash
ENCODING 248
SWIDTH 983 0
DWIDTH 35 0
BBX 31 30 2 -3
BITMAP
0000000000002D00
0000000000007800
000000000000F000
000016BFFE92D000
0002FFFFFFFF8000
002FF940016FE400
00BE4000003EFD00
03F4000000B82F40
0BC0000001E00BD0
1F40000007C002E0
2E0000000F4001F4
3D0000002E0000B8
7C00000078000078
B8000001F000007C
B8000003D000007C
B800000B4000007C
B800001E0000007C
7C00007C000000B8
3D0000F4000000B8
2E0002D0000001F4
1F400B80000002E0
0BC01F0000000BC0
03F43D0000002F40
00FEB4000001FD00
002FF940016FE400
0007FFFFFFFE4000
000F56BFFE900000
002E000000000000
007C000000000000
00F4000000000000
ENDCHAR
STARTCHAR ugrave
ENCODING 249
SWIDTH 931 0
DWIDTH 34 0
BBX 26 31 4 0
BITMAP
00024000000000
0007F400000000
0001BF80000000
000007F8000000
00000064000000
00000000000000
00000000000000
F40000000002D0
F40000000002D0
F40000000002D0
F40000000002D0
F40000000002D0
F40000000002D0
F40000000002D0
F40000000002D0
F40000000002D0
F40000000002D0
F40000000002D0
F40000000002D0
F40000000002D0
F40000000002D0
F40000000002D0
F40000000002D0
F40000000002D0
F4000000000BD0
B8000000006FD0
7C00000002FBD0
2F0000006FD2D0
0BE4005BFD02D0
02FFFFFF9002D0
001BFFA40002D0
ENDCHAR
STARTCHAR uacute
ENCODING 250
SWIDTH 931 0
DWIDTH 34 0
BBX 26 31 4 0
BITMAP
00000000640000
00000006F80000
0000006F900000
000006F9000000
00000240000000
00000000000000
00000000000000
F40000000002D0
F40000000002D0
F40000000002D0
F40000000002D0
F40000000002D0
F40000000002D0
F40000000002D0
F40000000002D0
F40000000002D0
F40000000002D0
F40000000002D0
F40000000002D0
F40000000002D0
F40000000002D0
F40000000002D0
F40000000002D0
F40000000002D0
F4000000000BD0
B8000000006FD0
7C00000002FBD0
2F0000006FD2D0
0BE4005BFD02D0
02FFFFFF9002D0
001BFFA40002D0
ENDCHAR
STARTCHAR ucircumflex
ENCODING 251
SWIDTH 931 0
DWIDTH 34 0
BBX 26 31 4 0
BITMAP
000001E0000000
00001BFD000000
0000BF6FD00000
000BE402F90000
000A4000180000
00000000000000
00000000000000
F40000000002D0
F40000000002D0
F40000000002D0
F40000000002D0
F40000000002D0
F40000000002D0
F40000000002D0
F40000000002D0
F40000000002D0
F40000000002D0
F40000000002D0
F40000000002D0
F40000000002D0
F40000000002D0
F40000000002D0
F40000000002D0
F40000000002D0
F4000000000BD0
B8000000006FD0
7C00000002FBD0
2F0000006FD2D0
0BE4005BFD02D0
02FFFFFF9002D0
001BFFA40002D0
ENDCHAR
STARTCHAR udieresis
ENCODING 252
SWIDTH 931 0
DWIDTH 34 0
BBX 26 29 4 0
BITMAP
0000F403E00000
0000F403E00000
0000F403E00000
00000000000000
00000000000000
F40000000002D0
F40000000002D0
F40000000002D0
F40000000002D0
F40000000002D0
F40000000002D0
F40000000002D0
F40000000002D0
F40000000002D0
F40000000002D0
F40000000002D0
F40000000002D0
F40000000002D0
F40000000002D0
F40000000002D0
F40000000002D0
F40000000002D0
F4000000000BD0
B8000000006FD0
7C00000002FBD0
2F0000006FD2D0
0BE4005BFD02D0
02FFFFFF9002D0
001BFFA40002D0
ENDCHAR
STARTCHAR yacute
ENCODING 253
SWIDTH 911 0
DWIDTH 33 0
BBX 26 31 3 0
BITMAP
00000000280000
00000002FC0000
0000006FD00000
000002F9000000
00000280000000
00000000000000
00000000000000
B40000000002E0
B40000000002E0
B40000000002E0
B40000000002E0
B40000000002E0
B40000000002E0
B80000000002E0
B80000000002E0
7C0000000007E0
7D000000001FE0
3E000000007FE0
1F40000001F6E0
0BE000001BD2E0
02FE4005FE42E0
006FFFFFE402E0
0006BFF94002E0
000000000002E0
000000000007D0
00000000000FC0
00000000007F40
A400000006FD00
BFA50005BFE000
BFFFFFFFFE4000
16ABFFFA900000
ENDCHAR
STARTCHAR thorn
ENCODING 254
SWIDTH 787 0
DWIDTH 28 0
BBX 22 24 4 0
BITMAP
F40000000000
F40000000000
F40000000000
F40000000000
FFFFFFFE9000
FFFFFFFFF900
F4000005BF40
F40000000BD0
F400000003E0
F400000001F0
F400000001F0
F400000000F0
F400000001F0
F400000001F0
F400000003E0
F40000000BC0
F4000001BF40
FFFFFFFFF900
FFFFFFFE9000
F40000000000
F40000000000
F40000000000
F40000000000
F40000000000
ENDCHAR
STARTCHAR ydieresis
ENCODING 255
SWIDTH 911 0
DWIDTH 33 0
BBX 26 29 3 0
BITMAP
0000F802E00000
0000F802E00000
0000F802E00000
00000000000000
00000000000000
B40000000002E0
B40000000002E0
B40000000002E0
B40000000002E0
B40000000002E0
B40000000002E0
B80000000002E0
B80000000002E0
7C0000000007E0
7D000000001FE0
3E000000007FE0
1F40000001F6E0
0BE000001BD2E0
02FE4005FE42E0
006FFFFFE402E0
0006BFF94002E0
000000000002E0
000000000007D0
00000000000FC0
00000000007F40
A400000006FD00
BFA50005BFE000
BFFFFFFFFE4000
16ABFFFA900000
ENDCHAR
STARTCHAR Amacron
ENCODING 256
SWIDTH 812 0
DWIDTH 29 0
BBX 28 29 1 0
BITMAP
00007FFFF40000
00007FFFF40000
00000000000000
00000000000000
00000000000000
000000FD000000
000001FE000000
000003EF400000
000007CB800000
00000F43D00000
00002F02E00000
00003D00F40000
0000BC00BC0000
0000F4003D0000
0002F0002F0000
0007D0000F4000
000B80000BC000
001F400003E000
002E000002F000
007D000000F800
00B80000007C00
01FFFFFFFFFE00
03FFFFFFFFFF00
07D00000000F80
0F8000000007D0
1F0000000002E0
3E0000000001F4
7C0000000000B8
F400000000003D
ENDCHAR
STARTCHAR amacron
ENCODING 257
SWIDTH 888 0
DWIDTH 32 0
BBX 26 29 2 0
BITMAP
00003FFFF80000
00003FFFF80000
00000000000000
00000000000000
00000000000000
005ABFFFE90000
0BFFFFFFFFE000
0BFA50005AFD00
06400000002F40
000000000007D0
000000000002E0
000000000001F0
000000000000F0
000000000000F0
000000056ABFF0
00001AFFFFFFF0
001BFFFA9540F0
01BFE5000000F0
0BF900000000F0
2F4000000000F0
7D0000000000F0
B80000000000F0
B40000000000F0
B80000000000F0
7D0000000006F0
3F40000001BFF0
1FF90005AFF9F0
02FFFFFFFE40F0
001AFFEA5000F0
ENDCHAR
STARTCHAR Abreve
ENCODING 258
SWIDTH 812 0
DWIDTH 29 0
BBX 28 30 1 0
BITMAP
0001F0002E0000
0000BD01BC0000
00002FFFF40000
000006FE800000
00000000000000
00000000000000
000000FD000000
000001FE000000
000003EF400000
000007CB800000
00000F43D00000
00002F02E00000
00003D00F40000
0000BC00BC0000
0000F4003D0000
0002F0002F0000
0007D0000F4000
000B80000BC000
001F400003E000
002E000002F000
007D000000F800
00B80000007C00
01FFFFFFFFFE00
03FFFFFFFFFF00
07D00000000F80
0F8000000007D0
1F0000000002E0
3E0000000001F4
7C0000000000B8
F400000000003D
ENDCHAR
STARTCHAR abreve
ENCODING 259
SWIDTH 888 0
DWIDTH 32 0
BBX 26 30 2 0
BITMAP
0000F0001E0000
0000BD01BD0000
00002FFFF40000
000006FF800000
00000000000000
00000000000000
005ABFFFE90000
0BFFFFFFFFE000
0BFA50005AFD00
06400000002F40
000000000007D0
000000000002E0
000000000001F0
000000000000F0
000000000000F0
000000056ABFF0
00001AFFFFFFF0
001BFFFA9540F0
01BFE5000000F0
0BF900000000F0
2F4000000000F0
7D0000000000F0
B80000000000F0
B40000000000F0
B80000000000F0
7D0000000006F0
3F40000001BFF0
1FF90005AFF9F0
02FFFFFFFE40F0
001AFFEA5000F0
ENDCHAR
STARTCHAR Aogonek
ENCODING 260
SWIDTH 812 0
DWIDTH 29 0
BBX 30 30 1 -6
BITMAP
000000FD00000000
000001FE00000000
000003EF40000000
000007CB80000000
00000F43D0000000
00002F02E0000000
00003D00F4000000
0000BC00BC000000
0000F4003D000000
0002F0002F000000
0007D0000F400000
000B80000BC00000
001F400003E00000
002E000002F00000
007D000000F80000
00B80000007C0000
01FFFFFFFFFE0000
03FFFFFFFFFF0000
07D00000000F8000
0F8000000007D000
1F0000000002E000
3E0000000001F400
7C0000000000B800
F400000000003D00
000000000000B400
000000000003C000
00000000000B4000
00000000000B8000
000000000007FFF0
000000000001BFF0
ENDCHAR
STARTCHAR aogonek
ENCODING 261
SWIDTH 888 0
DWIDTH 32 0
BBX 29 30 2 -6
BITMAP
005ABFFFE9000000
0BFFFFFFFFE00000
0BFA50005AFD0000
06400000002F4000
000000000007D000
000000000002E000
000000000001F000
000000000000F000
000000000000F000
000000056ABFF000
00001AFFFFFFF000
001BFFFA9540F000
01BFE5000000F000
0BF900000000F000
2F4000000000F000
7D0000000000F000
B80000000000F000
B40000000000F000
B80000000001F000
7D000000000BF000
3F40000001BFF000
1FF90005BFF9F000
02FFFFFFFE40F000
001AFFEA5000F000
0000000000069000
00000000001E0000
00000000002C0000
00000000003D0000
00000000002FFF80
00000000000BFF80
ENDCHAR
STARTCHAR Cacute
ENCODING 262
SWIDTH 869 0
DWIDTH 31 0
BBX 27 31 2 0
BITMAP
00000000018000
000000001FE000
00000001FE4000
0000001FE00000
00000019000000
00000000000000
00000000000000
000016BFFE9400
0001FFFFFFFF90
001FF94005AFF8
00BE40000001B8
02F40000000018
0BD00000000000
1F400000000000
2E000000000000
3D000000000000
7C000000000000
B8000000000000
B8000000000000
B8000000000000
B8000000000000
7C000000000000
3D000000000000
2E000000000000
1F400000000000
0BD00000000000
02F40000000018
00BE40000001B8
001FF940056FF8
0001FFFFFFFF90
000016BFFE9400
ENDCHAR
STARTCHAR cacute
ENCODING 263
SWIDTH 869 0
DWIDTH 31 0
BBX 27 31 2 0
BITMAP
00000000018000
000000001BE000
00000001FE4000
0000001FE00000
00000019000000
00000000000000
00000000000000
000016BFFE9400
0001FFFFFFFF90
001FF94005AFF8
00BE40000001B8
02F40000000018
0BD00000000000
1F400000000000
2E000000000000
3D000000000000
7C000000000000
B8000000000000
B8000000000000
B8000000000000
B8000000000000
7C000000000000
3D000000000000
2E000000000000
1F400000000000
0BD00000000000
02F40000000018
00BE40000001B8
001FF940056FF8
0001FFFFFFFF90
000016BFFE9400
ENDCHAR
STARTCHAR Ccircumflex
ENCODING 264
SWIDTH 869 0
DWIDTH 31 0
BBX 27 31 2 0
BITMAP
00000007400000
0000007FF40000
000006F9BE4000
00002F901BE000
00002800006000
00000000000000
00000000000000
000016BFFE9400
0001FFFFFFFF90
001FF94005AFF8
00BE40000001B8
02F40000000018
0BD00000000000
1F400000000000
2E000000000000
3D000000000000
7C000000000000
B8000000000000
B8000000000000
B8000000000000
B8000000000000
7C000000000000
3D000000000000
2E000000000000
1F400000000000
0BD00000000000
02F40000000018
00BE40000001B8
001FF940056FF8
0001FFFFFFFF90
000016BFFE9400
ENDCHAR
STARTCHAR ccircumflex
ENCODING 265
SWIDTH 869 0
DWIDTH 31 0
BBX 27 31 2 0
BITMAP
00000007400000
0000007FF40000
000006F9BE4000
00002F901BE000
00002800006000
00000000000000
00000000000000
000016BFFE9400
0001FFFFFFFF90
001FF94005AFF8
00BE40000001B8
02F40000000018
0BD00000000000
1F400000000000
2E000000000000
3D000000000000
7C000000000000
B8000000000000
B8000000000000
B8000000000000
B8000000000000
7C000000000000
3D000000000000
2E000000000000
1F400000000000
0BD00000000000
02F40000000018
00BE40000001B8
001FF940056FF8
0001FFFFFFFF90
000016BFFE9400
ENDCHAR
STARTCHAR Cdotaccent
ENCODING 266
SWIDTH 869 0
DWIDTH 31 0
BBX 27 29 2 0
BITMAP
0000000BC00000
0000000BC00000
0000000BC00000
00000000000000
00000000000000
000016BFFE9400
0001FFFFFFFF90
001FF94005AFF8
00BE40000001B8
02F40000000018
0BD00000000000
1F400000000000
2E000000000000
3D000000000000
7C000000000000
B8000000000000
B8000000000000
B8000000000000
B8000000000000
7C000000000000
3D000000000000
2E000000000000
1F400000000000
0BD00000000000
02F40000000018
00BE40000001B8
001FF940056FF8
0001FFFFFFFF90
000016BFFE9400
ENDCHAR
STARTCHAR cdotaccent
ENCODING 267
SWIDTH 869 0
DWIDTH 31 0
BBX 27 29 2 0
BITMAP
0000000BC00000
0000000BC00000
0000000BC00000
00000000000000
00000000000000
000016BFFE9400
0001FFFFFFFF90
001FF94005AFF8
00BE40000001B8
02F40000000018
0BD00000000000
1F400000000000
2E000000000000
3D000000000000
7C000000000000
B8000000000000
B8000000000000
B8000000000000
B8000000000000
7C000000000000
3D000000000000
2E000000000000
1F400000000000
0BD00000000000
02F40000000018
00BE40000001B8
001FF940056FF8
0001FFFFFFFF90
000016BFFE9400
ENDCHAR
STARTCHAR Ccaron
ENCODING 268
SWIDTH 869 0
DWIDTH 31 0
BBX 27 31 2 0
BITMAP
00002800006000
00002F901BE000
000006F9BE4000
0000007FF40000
00000007400000
00000000000000
00000000000000
000016BFFE9400
0001FFFFFFFF90
001FF94005AFF8
00BE40000001B8
02F40000000018
0BD00000000000
1F400000000000
2E000000000000
3D000000000000
7C000000000000
B8000000000000
B8000000000000
B8000000000000
B8000000000000
7C000000000000
3D000000000000
2E000000000000
1F400000000000
0BD00000000000
02F40000000018
00BE40000001B8
001FF940056FF8
0001FFFFFFFF90
000016BFFE9400
ENDCHAR
STARTCHAR ccaron
ENCODING 269
SWIDTH 869 0
DWIDTH 31 0
BBX 27 31 2 0
BITMAP
00002800006000
00002F900BE000
000006F9BE4000
0000007FF40000
00000007400000
00000000000000
00000000000000
000016BFFE9400
0001FFFFFFFF90
001FF94005AFF8
00BE40000001B8
02F40000000018
0BD00000000000
1F400000000000
2E000000000000
3D000000000000
7C000000000000
B8000000000000
B8000000000000
B8000000000000
B8000000000000
7C000000000000
3D000000000000
2E000000000000
1F400000000000
0BD00000000000
02F40000000018
00BE40000001B8
001FF940056FF8
0001FFFFFFFF90
000016BFFE9400
ENDCHAR
STARTCHAR Dcaron
ENCODING 270
SWIDTH 910 0
DWIDTH 33 0
BBX 27 31 4 0
BITMAP
02900006400000
02F9007F400000
002FDBF4000000
0006FF80000000
00006800000000
00000000000000
00000000000000
FFFFFFFEA40000
FFFFFFFFFF8000
F40000016FF400
F400000001BD00
F4000000002F40
F4000000000BC0
F40000000003D0
F40000000002E0
F40000000001F0
F40000000000F4
F40000000000F4
F40000000000F4
F40000000000F4
F40000000000F4
F40000000000F4
F40000000001F0
F40000000002E0
F40000000003D0
F4000000000BC0
F4000000002F40
F400000001BD00
F40000016FF400
FFFFFFFFFF8000
FFFFFFFEA40000
ENDCHAR
STARTCHAR dcaron
ENCODING 271
SWIDTH 910 0
DWIDTH 33 0
BBX 27 31 4 0
BITMAP
02900006400000
01F9007F400000
002FDBF4000000
0006FF80000000
00006800000000
00000000000000
00000000000000
FFFFFFFEA40000
FFFFFFFFFF8000
F40000016FF400
F400000001BD00
F4000000002F40
F4000000000BC0
F40000000003D0
F40000000002E0
F40000000001F0
F40000000000F4
F40000000000F4
F40000000000F4
F40000000000F4
F40000000000F4
F40000000000F4
F40000000001F0
F40000000002E0
F40000000003D0
F4000000000BC0
F4000000002F40
F400000001BD00
F40000016FF400
FFFFFFFFFF8000
FFFFFFFEA40000
ENDCHAR
STARTCHAR Dcroat
ENCODING 272
SWIDTH 910 0
DWIDTH 33 0
BBX 31 24 0 0
BITMAP
00FFFFFFFA900000
00FFFFFFFFFF4000
00F4000005BFF400
00F400000002FD00
00F4000000003F40
00F4000000000BC0
00F40000000007D0
00F40000000002E0
00F40000000001F0
00F40000000000F4
00F40000000000F4
7FFFFFFF000000F4
7FFFFFFF000000F4
00F40000000000F4
00F40000000000F4
00F40000000001F0
00F40000000002E0
00F40000000003D0
00F4000000000BC0
00F4000000002F40
00F400000001FD00
00F40000056FF400
00FFFFFFFFFF4000
00FFFFFFFA900000
ENDCHAR
STARTCHAR dcroat
ENCODING 273
SWIDTH 910 0
DWIDTH 33 0
BBX 31 24 0 0
BITMAP
00FFFFFFFA900000
00FFFFFFFFFF4000
00F4000005BFF400
00F400000002FD00
00F4000000003F40
00F4000000000BC0
00F40000000007D0
00F40000000002E0
00F40000000001F0
00F40000000000F4
00F40000000000F4
7FFFFFFF000000F4
7FFFFFFF000000F4
00F40000000000F4
00F40000000000F4
00F40000000001F0
00F40000000002E0
00F40000000003D0
00F4000000000BC0
00F4000000002F40
00F400000001FD00
00F40000056FF400
00FFFFFFFFFF4000
00FFFFFFFA900000
ENDCHAR
STARTCHAR Emacron
ENCODING 274
SWIDTH 754 0
DWIDTH 27 0
BBX 21 29 4 0
BITMAP
003FFFF80000
003FFFF80000
000000000000
000000000000
000000000000
FFFFFFFFFF40
FFFFFFFFFF40
F40000000000
F40000000000
F40000000000
F40000000000
F40000000000
F40000000000
F40000000000
F40000000000
FFFFFFFFFD00
FFFFFFFFFD00
F40000000000
F40000000000
F40000000000
F40000000000
F40000000000
F40000000000
F40000000000
F40000000000
F40000000000
F40000000000
FFFFFFFFFF40
FFFFFFFFFF40
ENDCHAR
STARTCHAR emacron
ENCODING 275
SWIDTH 910 0
DWIDTH 33 0
BBX 29 29 2 0
BITMAP
00001FFFFD000000
00001FFFFD000000
0000000000000000
0000000000000000
0000000000000000
00001AFFE9000000
0002FFFFFFE40000
001FE90016FE0000
00BE4000002F8000
02F400000007E000
0BD000000000F800
1F40000000007C00
2E00000000002E00
3D00000000001E00
7C00000000000F00
B800000000000F40
BFFFFFFFFFFFFF40
BFFFFFFFFFFFFF40
B800000000000000
7C00000000000000
3D00000000000000
2E00000000000000
1F40000000000000
0BD0000000000000
02F4000000000000
00BE400000006400
001FF940016BF400
0001BFFFFFFFF400
000016BFFFA94000
ENDCHAR
STARTCHAR Ebreve
ENCODING 276
SWIDTH 754 0
DWIDTH 27 0
BBX 21 30 4 0
BITMAP
00F4001E0000
007E01BD0000
002FFFF40000
0006FF900000
000000000000
000000000000
FFFFFFFFFF40
FFFFFFFFFF40
F40000000000
F40000000000
F40000000000
F40000000000
F40000000000
F40000000000
F40000000000
F40000000000
FFFFFFFFFD00
FFFFFFFFFD00
F40000000000
F40000000000
F40000000000
F40000000000
F40000000000
F40000000000
F40000000000
F40000000000
F40000000000
F40000000000
FFFFFFFFFF40
FFFFFFFFFF40
ENDCHAR
STARTCHAR ebreve
ENCODING 277
SWIDTH 910 0
DWIDTH 33 0
BBX 29 30 2 0
BITMAP
000078000B400000
00003E406E000000
00001FFFFC000000
000001BF90000000
0000000000000000
0000000000000000
00001AFFE9000000
0002FFFFFFE40000
001FE90016FE0000
00BE4000002F8000
02F400000007E000
0BD000000000F800
1F40000000007C00
2E00000000002E00
3D00000000001E00
7C00000000000F00
B800000000000F40
BFFFFFFFFFFFFF40
BFFFFFFFFFFFFF40
B800000000000000
7C00000000000000
3D00000000000000
2E00000000000000
1F40000000000000
0BD0000000000000
02F4000000000000
00BE400000006400
001FF940016BF400
0001BFFFFFFFF400
000016BFFFA94000
ENDCHAR
STARTCHAR Edotaccent
ENCODING 278
SWIDTH 754 0
DWIDTH 27 0
BBX 21 29 4 0
BITMAP
00007D000000
00007D000000
00007D000000
000000000000
000000000000
FFFFFFFFFF40
FFFFFFFFFF40
F40000000000
F40000000000
F40000000000
F40000000000
F40000000000
F40000000000
F40000000000
F40000000000
FFFFFFFFFD00
FFFFFFFFFD00
F40000000000
F40000000000
F40000000000
F40000000000
F40000000000
F40000000000
F40000000000
F40000000000
F40000000000
F40000000000
FFFFFFFFFF40
FFFFFFFFFF40
ENDCHAR
STARTCHAR edotaccent
ENCODING 279
SWIDTH 910 0
DWIDTH 33 0
BBX 29 29 2 0
BITMAP
0000003E00000000
0000003E00000000
0000003E00000000
0000000000000000
0000000000000000
00001AFFE9000000
0002FFFFFFE40000
001FE90016FE0000
00BE4000002F8000
02F400000007E000
0BD000000000F800
1F40000000007C00
2E00000000002E00
3D00000000001E00
7C00000000000F00
B800000000000F40
BFFFFFFFFFFFFF40
BFFFFFFFFFFFFF40
B800000000000000
7C00000000000000
3D00000000000000
2E00000000000000
1F40000000000000
0BD0000000000000
02F4000000000000
00BE400000006400
001FF940016BF400
0001BFFFFFFFF400
000016BFFFA94000
ENDCHAR
STARTCHAR Eogonek
ENCODING 280
SWIDTH 754 0
DWIDTH 27 0
BBX 21 30 4 -6
BITMAP
FFFFFFFFFF40
FFFFFFFFFF40
F40000000000
F40000000000
F40000000000
F40000000000
F40000000000
F40000000000
F40000000000
F40000000000
FFFFFFFFFD00
FFFFFFFFFD00
F40000000000
F40000000000
F40000000000
F40000000000
F40000000000
F40000000000
F40000000000
F40000000000
F40000000000
F40000000000
FFFFFFFFFF40
FFFFFFFFFF40
00000007D400
0000001E0000
0000003C0000
0000007D0000
0000003FFF40
0000000BFF40
ENDCHAR
STARTCHAR eogonek
ENCODING 281
SWIDTH 910 0
DWIDTH 33 0
BBX 29 30 2 -6
BITMAP
00001AFFE9000000
0002FFFFFFE40000
001FE90016FE0000
00BE4000002F8000
02F400000007E000
0BD000000000F800
1F40000000007C00
2E00000000002E00
3D00000000001E00
7C00000000000F00
B800000000000F40
BFFFFFFFFFFFFF40
BFFFFFFFFFFFFF40
B800000000000000
7C00000000000000
3D00000000000000
2E00000000000000
1F40000000000000
0BD0000000000000
02F4000000000000
00BE400000006400
001FF940016BF400
0001BFFFFFFFF400
000016BFFFAFD000
00000000002E0000
0000000000780000
0000000000B40000
0000000000B80000
00000000007FFF00
00000000001BFF00
ENDCHAR
STARTCHAR Ecaron
ENCODING 282
SWIDTH 754 0
DWIDTH 27 0
BBX 21 31 4 0
BITMAP
019000064000
01F9007F4000
002FDBF80000
0002FF800000
000068000000
000000000000
000000000000
FFFFFFFFFF40
FFFFFFFFFF40
F40000000000
F40000000000
F40000000000
F40000000000
F40000000000
F40000000000
F40000000000
F40000000000
FFFFFFFFFD00
FFFFFFFFFD00
F40000000000
F40000000000
F40000000000
F40000000000
F40000000000
F40000000000
F40000000000
F40000000000
F40000000000
F40000000000
FFFFFFFFFF40
FFFFFFFFFF40
ENDCHAR
STARTCHAR ecaron
ENCODING 283
SWIDTH 910 0
DWIDTH 33 0
BBX 29 31 2 0
BITMAP
0000900002800000
0000BE006F800000
00001BE6F9000000
000001FFD0000000
0000001D00000000
0000000000000000
0000000000000000
00001AFFE9000000
0002FFFFFFE40000
001FE90016FE0000
00BE4000002F8000
02F400000007E000
0BD000000000F800
1F40000000007C00
2E00000000002E00
3D00000000001E00
7C00000000000F00
B800000000000F40
BFFFFFFFFFFFFF40
BFFFFFFFFFFFFF40
B800000000000000
7C00000000000000
3D00000000000000
2E00000000000000
1F40000000000000
0BD0000000000000
02F4000000000000
00BE400000006400
001FF940016BF400
0001BFFFFFFFF400
000016BFFFA94000
ENDCHAR
STARTCHAR Gcircumflex
ENCODING 284
SWIDTH 910 0
DWIDTH 33 0
BBX 28 31 2 0
BITMAP
00000006800000
0000006FF80000
000002FDBF4000
00001F900BF400
00002900006400
00000000000000
00000000000000
000006BFFFA400
0001BFFFFFFFE4
001FFA50016FFD
00BF40000001BD
02F40000000009
0BD00000000000
1F400000000000
2E000000000000
3D000000000000
7C000000000000
B8000000000000
B8000000000000
B8000001FFFFFE
B8000001FFFFFE
7C00000000001E
3D00000000001E
2E00000000001E
1F40000000001E
0BD0000000001E
02F8000000001E
00BF400000001E
001FFA500056BE
0001BFFFFFFFF9
000006BFFFA900
ENDCHAR
STARTCHAR gcircumflex
ENCODING 285
SWIDTH 910 0
DWIDTH 33 0
BBX 28 31 2 0
BITMAP
00000006800000
0000006FF80000
000002FDBF4000
00001F900BF400
00002900006400
00000000000000
00000000000000
000006BFFFA400
0001BFFFFFFFE4
001FFA50016FFD
00BF40000001BD
02F40000000009
0BD00000000000
1F400000000000
2E000000000000
3D000000000000
7C000000000000
B8000000000000
B8000000000000
B8000001FFFFFE
B8000001FFFFFE
7C00000000001E
3D00000000001E
2E00000000001E
1F40000000001E
0BD0000000001E
02F8000000001E
00BF400000001E
001FFA500056BE
0001BFFFFFFFF9
000006BFFFA900
ENDCHAR
STARTCHAR Gbreve
ENCODING 286
SWIDTH 910 0
DWIDTH 33 0
BBX 28 30 2 0
BITMAP
00000F0001E000
00000BD01BD000
000002FFFF4000
0000006FF80000
00000000000000
00000000000000
000006BFFFA400
0001BFFFFFFFE4
001FFA50016FFD
00BF40000001BD
02F40000000009
0BD00000000000
1F400000000000
2E000000000000
3D000000000000
7C000000000000
B8000000000000
B8000000000000
B8000001FFFFFE
B8000001FFFFFE
7C00000000001E
3D00000000001E
2E00000000001E
1F40000000001E
0BD0000000001E
02F8000000001E
00BF400000001E
001FFA500056BE
0001BFFFFFFFF9
000006BFFFA900
ENDCHAR
STARTCHAR gbreve
ENCODING 287
SWIDTH 910 0
DWIDTH 33 0
BBX 28 30 2 0
BITMAP
00000F0001E000
00000BD01BD000
000002FFFF4000
0000006FF80000
00000000000000
00000000000000
000006BFFFA400
0001BFFFFFFFE4
001FFA50016FFD
00BF40000001BD
02F40000000009
0BD00000000000
1F400000000000
2E000000000000
3D000000000000
7C000000000000
B8000000000000
B8000000000000
B8000001FFFFFE
B8000001FFFFFE
7C00000000001E
3D00000000001E
2E00000000001E
1F40000000001E
0BD0000000001E
02F8000000001E
00BF400000001E
001FFA500056BE
0001BFFFFFFFF9
000006BFFFA900
ENDCHAR
STARTCHAR Gdotaccent
ENCODING 288
SWIDTH 910 0
DWIDTH 33 0
BBX 28 29 2 0
BITMAP
0000000BD00000
0000000BD00000
0000000BD00000
00000000000000
00000000000000
000006BFFFA400
0001BFFFFFFFE4
001FFA50016FFD
00BF40000001BD
02F40000000009
0BD00000000000
1F400000000000
2E000000000000
3D000000000000
7C000000000000
B8000000000000
B8000000000000
B8000001FFFFFE
B8000001FFFFFE
7C00000000001E
3D00000000001E
2E00000000001E
1F40000000001E
0BD0000000001E
02F8000000001E
00BF400000001E
001FFA500056BE
0001BFFFFFFFF9
000006BFFFA900
ENDCHAR
STARTCHAR gdotaccent
ENCODING 289
SWIDTH 910 0
DWIDTH 33 0
BBX 28 29 2 0
BITMAP
0000000BD00000
0000000BD00000
0000000BD00000
00000000000000
00000000000000
000006BFFFA400
0001BFFFFFFFE4
001FFA50016FFD
00BF40000001BD
02F40000000009
0BD00000000000
1F400000000000
2E000000000000
3D000000000000
7C000000000000
B8000000000000
B8000000000000
B8000001FFFFFE
B8000001FFFFFE
7C00000000001E
3D00000000001E
2E00000000001E
1F40000000001E
0BD0000000001E
02F8000000001E
00BF400000001E
001FFA500056BE
0001BFFFFFFFF9
000006BFFFA900
ENDCHAR
STARTCHAR Gcommaaccent
ENCODING 290
SWIDTH 910 0
DWIDTH 33 0
BBX 28 32 2 -8
BITMAP
000006BFFFA400
0001BFFFFFFFE4
001FFA50016FFD
00BF40000001BD
02F40000000009
0BD00000000000
1F400000000000
2E000000000000
3D000000000000
7C000000000000
B8000000000000
B8000000000000
B8000001FFFFFE
B8000001FFFFFE
7C00000000001E
3D00000000001E
2E00000000001E
1F40000000001E
0BD0000000001E
02F8000000001E
00BF400000001E
001FFA500056BE
0001BFFFFFFFF9
000006BFFFA900
00000000000000
00000000000000
00000000000000
00000003E00000
00000003D00000
00000003C00000
00000007800000
00000007400000
ENDCHAR
STARTCHAR gcommaaccent
ENCODING 291
SWIDTH 910 0
DWIDTH 33 0
BBX 28 32 2 -8
BITMAP
000006BFFFA400
0001BFFFFFFFE4
001FFA50016FFD
00BF40000001BD
02F40000000009
0BD00000000000
1F400000000000
2E000000000000
3D000000000000
7C000000000000
B8000000000000
B8000000000000
B8000001FFFFFE
B8000001FFFFFE
7C00000000001E
3D00000000001E
2E00000000001E
1F40000000001E
0BD0000000001E
02F8000000001E
00BF400000001E
001FFA500056BE
0001BFFFFFFFF9
000006BFFFA900
00000000000000
00000000000000
00000000000000
00000003E00000
00000003D00000
00000003C00000
00000007800000
00000007400000
ENDCHAR
STARTCHAR Hcircumflex
ENCODING 292
SWIDTH 949 0
DWIDTH 34 0
BBX 26 31 4 0
BITMAP
000000A4000000
00000BFE000000
00007FAFE00000
0007F401BD0000
00064000190000
00000000000000
00000000000000
F40000000000F0
F40000000000F0
F40000000000F0
F40000000000F0
F40000000000F0
F40000000000F0
F40000000000F0
F40000000000F0
F40000000000F0
F40000000000F0
FFFFFFFFFFFFF0
FFFFFFFFFFFFF0
F40000000000F0
F40000000000F0
F40000000000F0
F40000000000F0
F40000000000F0
F40000000000F0
F40000000000F0
F40000000000F0
F40000000000F0
F40000000000F0
F40000000000F0
F40000000000F0
ENDCHAR
STARTCHAR hcircumflex
ENCODING 293
SWIDTH 949 0
DWIDTH 34 0
BBX 26 31 4 0
BITMAP
000000A4000000
00000BFE000000
00007FAFE00000
0007F401BD0000
00064000190000
00000000000000
00000000000000
F40000000000F0
F40000000000F0
F40000000000F0
F40000000000F0
F40000000000F0
F40000000000F0
F40000000000F0
F40000000000F0
F40000000000F0
F40000000000F0
FFFFFFFFFFFFF0
FFFFFFFFFFFFF0
F40000000000F0
F40000000000F0
F40000000000F0
F40000000000F0
F40000000000F0
F40000000000F0
F40000000000F0
F40000000000F0
F40000000000F0
F40000000000F0
F40000000000F0
F40000000000F0
ENDCHAR
STARTCHAR Hbar
ENCODING 294
SWIDTH 949 0
DWIDTH 34 0
BBX 33 24 1 0
BITMAP
03D00000000003C000
03D00000000003C000
03D00000000003C000
03D00000000003C000
03D00000000003C000
FFFFFFFFFFFFFFFF40
FFFFFFFFFFFFFFFF40
03D00000000003C000
03D00000000003C000
03D00000000003C000
03FFFFFFFFFFFFC000
03FFFFFFFFFFFFC000
03D00000000003C000
03D00000000003C000
03D00000000003C000
03D00000000003C000
03D00000000003C000
03D00000000003C000
03D00000000003C000
03D00000000003C000
03D00000000003C000
03D00000000003C000
03D00000000003C000
03D00000000003C000
ENDCHAR
STARTCHAR hbar
ENCODING 295
SWIDTH 949 0
DWIDTH 34 0
BBX 33 24 1 0
BITMAP
03D00000000003C000
03D00000000003C000
03D00000000003C000
03D00000000003C000
03D00000000003C000
FFFFFFFFFFFFFFFF40
FFFFFFFFFFFFFFFF40
03D00000000003C000
03D00000000003C000
03D00000000003C000
03FFFFFFFFFFFFC000
03FFFFFFFFFFFFC000
03D00000000003C000
03D00000000003C000
03D00000000003C000
03D00000000003C000
03D00000000003C000
03D00000000003C000
03D00000000003C000
03D00000000003C000
03D00000000003C000
03D00000000003C000
03D00000000003C000
03D00000000003C000
ENDCHAR
STARTCHAR Itilde
ENCODING 296
SWIDTH 287 0
DWIDTH 10 0
BBX 13 30 -1 0
BITMAP
1F900740
7FFD0B00
B46FFE00
E006F800
00000000
00000000
003D0000
003D0000
003D0000
003D0000
003D0000
003D0000
003D0000
003D0000
003D0000
003D0000
003D0000
003D0000
003D0000
003D0000
003D0000
003D0000
003D0000
003D0000
003D0000
003D0000
003D0000
003D0000
003D0000
003D0000
ENDCHAR
STARTCHAR itilde
ENCODING 297
SWIDTH 287 0
DWIDTH 10 0
BBX 13 30 -1 0
BITMAP
1F900740
7FFD0B00
B46FFE00
E006F800
00000000
00000000
003D0000
003D0000
003D0000
003D0000
003D0000
003D0000
003D0000
003D0000
003D0000
003D0000
003D0000
003D0000
003D0000
003D0000
003D0000
003D0000
003D0000
003D0000
003D0000
003D0000
003D0000
003D0000
003D0000
003D0000
ENDCHAR
STARTCHAR Imacron
ENCODING 298
SWIDTH 287 0
DWIDTH 10 0
BBX 10 29 0 0
BITMAP
BFFFF0
BFFFF0
000000
000000
000000
00F400
00F400
00F400
00F400
00F400
00F400
00F400
00F400
00F400
00F400
00F400
00F400
00F400
00F400
00F400
00F400
00F400
00F400
00F400
00F400
00F400
00F400
00F400
00F400
ENDCHAR
STARTCHAR imacron
ENCODING 299
SWIDTH 287 0
DWIDTH 10 0
BBX 10 29 0 0
BITMAP
BFFFF0
BFFFF0
000000
000000
000000
00F400
00F400
00F400
00F400
00F400
00F400
00F400
00F400
00F400
00F400
00F400
00F400
00F400
00F400
00F400
00F400
00F400
00F400
00F400
00F400
00F400
00F400
00F400
00F400
ENDCHAR
STARTCHAR Ibreve
ENCODING 300
SWIDTH 287 0
DWIDTH 10 0
BBX 12 30 -1 0
BITMAP
B4000F
7E407E
1FFFF8
02FF90
000000
000000
003D00
003D00
003D00
003D00
003D00
003D00
003D00
003D00
003D00
003D00
003D00
003D00
003D00
003D00
003D00
003D00
003D00
003D00
003D00
003D00
003D00
003D00
003D00
003D00
ENDCHAR
STARTCHAR ibreve
ENCODING 301
SWIDTH 287 0
DWIDTH 10 0
BBX 12 30 -1 0
BITMAP
B4000F
7E407E
1FFFF8
02FF90
000000
000000
003D00
003D00
003D00
003D00
003D00
003D00
003D00
003D00
003D00
003D00
003D00
003D00
003D00
003D00
003D00
003D00
003D00
003D00
003D00
003D00
003D00
003D00
003D00
003D00
ENDCHAR
STARTCHAR Iogonek
ENCODING 302
SWIDTH 287 0
DWIDTH 10 0
BBX 8 30 1 -6
BITMAP
03D0
03D0
03D0
03D0
03D0
03D0
03D0
03D0
03D0
03D0
03D0
03D0
03D0
03D0
03D0
03D0
03D0
03D0
03D0
03D0
03D0
03D0
03D0
03D0
1E00
7800
F000
F400
FFFE
2FFE
ENDCHAR
STARTCHAR iogonek
ENCODING 303
SWIDTH 287 0
DWIDTH 10 0
BBX 8 30 1 -6
BITMAP
03D0
03D0
03D0
03D0
03D0
03D0
03D0
03D0
03D0
03D0
03D0
03D0
03D0
03D0
03D0
03D0
03D0
03D0
03D0
03D0
03D0
03D0
03D0
03D0
1E00
7800
F000
F400
FFFE
2FFE
ENDCHAR
STARTCHAR Idotaccent
ENCODING 304
SWIDTH 287 0
DWIDTH 10 0
BBX 4 29 3 0
BITMAP
7E
7E
7E
00
00
3D
3D
3D
3D
3D
3D
3D
3D
3D
3D
3D
3D
3D
3D
3D
3D
3D
3D
3D
3D
3D
3D
3D
3D
ENDCHAR
STARTCHAR dotlessi
ENCODING 305
SWIDTH 287 0
DWIDTH 10 0
BBX 3 24 4 0
BITMAP
F4
F4
F4
F4
F4
F4
F4
F4
F4
F4
F4
F4
F4
F4
F4
F4
F4
F4
F4
F4
F4
F4
F4
F4
ENDCHAR
STARTCHAR IJ
ENCODING 306
SWIDTH 877 0
DWIDTH 32 0
BBX 24 24 4 0
BITMAP
F4000000002E
F4000000002E
F4000000002E
F4000000002E
F4000000002E
F4000000002E
F4000000002E
F4000000002E
F4000000002E
F4000000002E
F4000000002E
F4000000002E
F4000000002E
F4000000002E
F4000000002E
F4000000002E
F4000000002E
F4000000002E
F4000000003D
F400000000BC
F400000002F4
F40A94005FE0
F40BFFFFFF40
F4016BFFA400
ENDCHAR
STARTCHAR ij
ENCODING 307
SWIDTH 877 0
DWIDTH 32 0
BBX 24 24 4 0
BITMAP
F4000000002E
F4000000002E
F4000000002E
F4000000002E
F4000000002E
F4000000002E
F4000000002E
F4000000002E
F4000000002E
F4000000002E
F4000000002E
F4000000002E
F4000000002E
F4000000002E
F4000000002E
F4000000002E
F4000000002E
F4000000002E
F4000000003D
F400000000BC
F400000002F4
F40A94005FE0
F40BFFFFFF40
F4016BFFA400
ENDCHAR
STARTCHAR Jcircumflex
ENCODING 308
SWIDTH 590 0
DWIDTH 21 0
BBX 23 31 0 0
BITMAP
000000029000
0000001FF900
000001FE7F80
00001BE006F8
000009000068
000000000000
000000000000
00000003D000
00000003D000
00000003D000
00000003D000
00000003D000
00000003D000
00000003D000
00000003D000
00000003D000
00000003D000
00000003D000
00000003D000
00000003D000
00000003D000
00000003D000
00000003D000
00000003D000
00000003D000
00000007C000
0000000F8000
0000002F0000
E54006FD0000
FFFFFFE00000
1ABFFA400000
ENDCHAR
STARTCHAR jcircumflex
ENCODING 309
SWIDTH 590 0
DWIDTH 21 0
BBX 23 31 0 0
BITMAP
000000029000
0000001FF900
000001FE7F80
00001BE006F8
000009000068
000000000000
000000000000
00000003D000
00000003D000
00000003D000
00000003D000
00000003D000
00000003D000
00000003D000
00000003D000
00000003D000
00000003D000
00000003D000
00000003D000
00000003D000
00000003D000
00000003D000
00000003D000
00000003D000
00000003D000
00000007C000
0000000F8000
0000002F0000
E54006FD0000
FFFFFFE00000
1ABFFA400000
ENDCHAR
STARTCHAR Kcommaaccent
ENCODING 310
SWIDTH 806 0
DWIDTH 29 0
BBX 24 32 4 -8
BITMAP
F400000002F8
F40000001F90
F4000000BD00
F4000007E000
F400002F4000
F40001F80000
F4001FD00000
F400BE000000
F407F4000000
F42F80000000
F5FD00000000
FFF000000000
F6FD00000000
F47F80000000
F40BF4000000
F401FE000000
F4002FD00000
F40007F80000
F40000BF4000
F400001FE000
F4000002FD00
F40000007F80
F40000000BF4
F400000001FE
000000000000
000000000000
000000000000
00002F000000
00002E000000
00002D000000
00003C000000
000038000000
ENDCHAR
STARTCHAR kcommaaccent
ENCODING 311
SWIDTH 867 0
DWIDTH 31 0
BBX 25 32 4 -8
BITMAP
F4000000003D00
F4000000003D00
F4000000007C00
F400000000F800
F400000001F000
F400000007D000
F40000001F8000
F40000007E0000
F4000002F80000
F400006FD00000
F4005BF9000000
FFFFFF90000000
FFFFFFE9000000
F40016FFD00000
F400000BFD0000
F40000007F4000
F40000000BE000
F400000001F400
F400000000BD00
F4000000002E00
F4000000001F40
F4000000000F80
F4000000000B80
F40000000007C0
00000000000000
00000000000000
00000000000000
000007C0000000
00000B80000000
00000B40000000
00000B40000000
00000F00000000
ENDCHAR
STARTCHAR kgreenlandic
ENCODING 312
SWIDTH 867 0
DWIDTH 31 0
BBX 25 24 4 0
BITMAP
F4000000003D00
F4000000003D00
F4000000007C00
F400000000F800
F400000001F000
F400000007D000
F40000001F8000
F40000007E0000
F4000002F80000
F400006FD00000
F4005BF9000000
FFFFFF90000000
FFFFFFE9000000
F40016FFD00000
F400000BFD0000
F40000007F4000
F40000000BE000
F400000001F400
F400000000BD00
F4000000002E00
F4000000001F40
F4000000000F80
F4000000000B80
F40000000007C0
ENDCHAR
STARTCHAR Lacute
ENCODING 313
SWIDTH 701 0
DWIDTH 25 0
BBX 21 31 3 0
BITMAP
000600000000
00BF40000000
0BF900000000
BF4000000000
A40000000000
000000000000
000000000000
3D0000000000
3D0000000000
3D0000000000
3D0000000000
3D0000000000
3D0000000000
3D0000000000
3D0000000000
3D0000000000
3D0000000000
3D0000000000
3D0000000000
3D0000000000
3D0000000000
3D0000000000
3D0000000000
3D0000000000
3D0000000000
3D0000000000
3D0000000000
3D0000000000
3D0000000000
3FFFFFFFFFC0
3FFFFFFFFFC0
ENDCHAR
STARTCHAR lacute
ENCODING 314
SWIDTH 709 0
DWIDTH 26 0
BBX 23 31 3 0
BITMAP
000600000000
00BF40000000
0BF900000000
BF4000000000
A40000000000
000000000000
000000000000
3D0000000000
3D0000000000
3D0000000000
3D0000000000
3D0000000000
3D0000000000
3D0000000000
3D0000000000
3D0000000000
3D0000000000
3D0000000000
3D0000000000
3D0000000000
3D0000000000
3D0000000000
3D0000000000
3D0000000000
3D0000000000
2E0000000000
2F0000000000
0F8000000000
07F900000000
01FFFFFFFFF4
001AFFFFFFF4
ENDCHAR
STARTCHAR Lcommaaccent
ENCODING 315
SWIDTH 701 0
DWIDTH 25 0
BBX 20 32 4 -8
BITMAP
F400000000
F400000000
F400000000
F400000000
F400000000
F400000000
F400000000
F400000000
F400000000
F400000000
F400000000
F400000000
F400000000
F400000000
F400000000
F400000000
F400000000
F400000000
F400000000
F400000000
F400000000
F400000000
FFFFFFFFFF
FFFFFFFFFF
0000000000
0000000000
0000000000
00003E0000
00003D0000
00003C0000
0000780000
0000740000
ENDCHAR
STARTCHAR lcommaaccent
ENCODING 316
SWIDTH 709 0
DWIDTH 26 0
BBX 22 32 4 -8
BITMAP
F40000000000
F40000000000
F40000000000
F40000000000
F40000000000
F40000000000
F40000000000
F40000000000
F40000000000
F40000000000
F40000000000
F40000000000
F40000000000
F40000000000
F40000000000
F40000000000
F40000000000
F40000000000
B80000000000
BC0000000000
3E0000000000
1FE400000000
07FFFFFFFFD0
006BFFFFFFD0
000000000000
000000000000
000000000000
00000F400000
00001F000000
00001E000000
00002D000000
00002D000000
ENDCHAR
STARTCHAR Lcaron
ENCODING 317
SWIDTH 701 0
DWIDTH 25 0
BBX 20 24 4 0
BITMAP
F400007C00
F40000B800
F40000B400
F40000F000
F40001E000
F40001D000
F400000000
F400000000
F400000000
F400000000
F400000000
F400000000
F400000000
F400000000
F400000000
F400000000
F400000000
F400000000
F400000000
F400000000
F400000000
F400000000
FFFFFFFFFF
FFFFFFFFFF
ENDCHAR
STARTCHAR lcaron
ENCODING 318
SWIDTH 709 0
DWIDTH 26 0
BBX 22 24 4 0
BITMAP
F400007C0000
F40000B80000
F40000B40000
F40000F00000
F40000E00000
F40001D00000
F40000000000
F40000000000
F40000000000
F40000000000
F40000000000
F40000000000
F40000000000
F40000000000
F40000000000
F40000000000
F40000000000
F40000000000
B80000000000
BC0000000000
3E0000000000
1FE400000000
07FFFFFFFFD0
006BFFFFFFD0
ENDCHAR
STARTCHAR Ldot
ENCODING 319
SWIDTH 701 0
DWIDTH 25 0
BBX 20 24 4 0
BITMAP
F400000000
F400000000
F400000000
F400000000
F400000000
F400000000
F400000000
F400000000
F400000000
F400000000
F40000BD00
F40000BD00
F40000BD00
F40000BD00
F400000000
F400000000
F400000000
F400000000
F400000000
F400000000
F400000000
F400000000
FFFFFFFFFF
FFFFFFFFFF
ENDCHAR
STARTCHAR ldotaccent
ENCODING 320
SWIDTH 709 0
DWIDTH 26 0
BBX 22 24 4 0
BITMAP
F40000000000
F40000000000
F40000000000
F40000000000
F40000000000
F40000000000
F40000000000
F40000000000
F40000000000
F40000000000
F400007E0000
F400007E0000
F400007E0000
F400007E0000
F40000000000
F40000000000
F40000000000
F40000000000
B80000000000
BC0000000000
3E0000000000
1FE400000000
07FFFFFFFFD0
006BFFFFFFD0
ENDCHAR
STARTCHAR Lslash
ENCODING 321
SWIDTH 701 0
DWIDTH 25 0
BBX 24 24 0 0
BITMAP
00F400000000
00F400000000
00F400000000
00F400000000
00F400000000
00F400000000
00F400000000
00F400000000
00F401800000
00F46FD00000
00FAFE000000
00FF90000000
1BF900000000
BFF400000000
64F400000000
00F400000000
00F400000000
00F400000000
00F400000000
00F400000000
00F400000000
00F400000000
00FFFFFFFFFF
00FFFFFFFFFF
ENDCHAR
STARTCHAR lslash
ENCODING 322
SWIDTH 709 0
DWIDTH 26 0
BBX 26 24 0 0
BITMAP
00F40000000000
00F40000000000
00F40000000000
00F40000000000
00F40000000000
00F40000000000
00F40000000000
00F40000000000
00F40180000000
00F46FD0000000
00FAFE00000000
00FF9000000000
1BF90000000000
BFF40000000000
64F40000000000
00F40000000000
00F40000000000
00F40000000000
00B80000000000
00BC0000000000
003E0000000000
001FE400000000
0007FFFFFFFFD0
00006BFFFFFFD0
ENDCHAR
STARTCHAR Nacute
ENCODING 323
SWIDTH 936 0
DWIDTH 34 0
BBX 26 31 4 0
BITMAP
00000000640000
00000006FC0000
0000006FD00000
000002F9000000
00000280000000
00000000000000
00000000000000
FC0000000002E0
FF0000000002E0
FFC000000002E0
F7F000000002E0
F5FC00000002E0
F47F00000002E0
F41FC0000002E0
F407E0000002E0
F401F8000002E0
F4007E000002E0
F4001F800002E0
F40007E00002E0
F40001F80002E0
F400007E0002E0
F400001F8002E0
F4000007E002E0
F4000001F802E0
F40000007E02E0
F40000001F82E0
F400000007E2E0
F400000001FAE0
F4000000007FE0
F4000000001FE0
F40000000007E0
ENDCHAR
STARTCHAR nacute
ENCODING 324
SWIDTH 933 0
DWIDTH 34 0
BBX 26 31 4 0
BITMAP
00000000600000
00000007F40000
0000007F900000
000007F8000000
00000640000000
00000000000000
00000000000000
F40001AFFA4000
F400AFFFFFF400
F40BFE4005BE00
F4BF8000001F40
FBF40000000BC0
FF8000000003D0
FD0000000002D0
F40000000002E0
F40000000002E0
F40000000002E0
F40000000002E0
F40000000002E0
F40000000002E0
F40000000002E0
F40000000002E0
F40000000002E0
F40000000002E0
F40000000002E0
F40000000002E0
F40000000002E0
F40000000002E0
F40000000002E0
F40000000002E0
F40000000002E0
ENDCHAR
STARTCHAR Ncommaaccent
ENCODING 325
SWIDTH 936 0
DWIDTH 34 0
BBX 26 32 4 -8
BITMAP
FC0000000002E0
FF0000000002E0
FFC000000002E0
F7F000000002E0
F5FC00000002E0
F47F00000002E0
F41FC0000002E0
F407E0000002E0
F401F8000002E0
F4007E000002E0
F4001F800002E0
F40007E00002E0
F40001F80002E0
F400007E0002E0
F400001F8002E0
F4000007E002E0
F4000001F802E0
F40000007E02E0
F40000001F82E0
F400000007E2E0
F400000001FAE0
F4000000007FE0
F4000000001FE0
F40000000007E0
00000000000000
00000000000000
00000000000000
000000F4000000
000001F0000000
000001E0000000
000002D0000000
000002C0000000
ENDCHAR
STARTCHAR ncommaaccent
ENCODING 326
SWIDTH 933 0
DWIDTH 34 0
BBX 26 32 4 -8
BITMAP
F40001AFFA4000
F400AFFFFFF400
F40BFE4005BE00
F4BF8000001F40
FBF40000000BC0
FF8000000003D0
FD0000000002D0
F40000000002E0
F40000000002E0
F40000000002E0
F40000000002E0
F40000000002E0
F40000000002E0
F40000000002E0
F40000000002E0
F40000000002E0
F40000000002E0
F40000000002E0
F40000000002E0
F40000000002E0
F40000000002E0
F40000000002E0
F40000000002E0
F40000000002E0
00000000000000
00000000000000
00000000000000
000001F4000000
000001F0000000
000002E0000000
000002D0000000
000002C0000000
ENDCHAR
STARTCHAR Ncaron
ENCODING 327
SWIDTH 936 0
DWIDTH 34 0
BBX 26 31 4 0
BITMAP
000A4000190000
000BE401FD0000
0000BF6FD00000
00001BFE000000
000001A0000000
00000000000000
00000000000000
FC0000000002E0
FF0000000002E0
FFC000000002E0
F7F000000002E0
F5FC00000002E0
F47F00000002E0
F41FC0000002E0
F407E0000002E0
F401F8000002E0
F4007E000002E0
F4001F800002E0
F40007E00002E0
F40001F80002E0
F400007E0002E0
F400001F8002E0
F4000007E002E0
F4000001F802E0
F40000007E02E0
F40000001F82E0
F400000007E2E0
F400000001FAE0
F4000000007FE0
F4000000001FE0
F40000000007E0
ENDCHAR
STARTCHAR ncaron
ENCODING 328
SWIDTH 933 0
DWIDTH 34 0
BBX 26 31 4 0
BITMAP
00090000280000
000BE006F80000
0001BE6F900000
00001FFD000000
000001D0000000
00000000000000
00000000000000
F40001AFFA4000
F400AFFFFFF400
F40BFE4005BE00
F4BF8000001F40
FBF40000000BC0
FF8000000003D0
FD0000000002D0
F40000000002E0
F40000000002E0
F40000000002E0
F40000000002E0
F40000000002E0
F40000000002E0
F40000000002E0
F40000000002E0
F40000000002E0
F40000000002E0
F40000000002E0
F40000000002E0
F40000000002E0
F40000000002E0
F40000000002E0
F40000000002E0
F40000000002E0
ENDCHAR
STARTCHAR napostrophe
ENCODING 329
SWIDTH 1025 0
DWIDTH 37 0
BBX 33 24 0 0
BITMAP
3E02E00006BFF90000
3D02E001BFFFFFE000
7C02E01FF94016F800
7802E1FE4000007E00
B402EBE00000001F40
F002FE000000000B80
0002F40000000007C0
0002E00000000007C0
0002E00000000007C0
0002E00000000007C0
0002E00000000007C0
0002E00000000007C0
0002E00000000007C0
0002E00000000007C0
0002E00000000007C0
0002E00000000007C0
0002E00000000007C0
0002E00000000007C0
0002E00000000007C0
0002E00000000007C0
0002E00000000007C0
0002E00000000007C0
0002E00000000007C0
0002E00000000007C0
ENDCHAR
STARTCHAR Eng
ENCODING 330
SWIDTH 936 0
DWIDTH 34 0
BBX 26 24 4 0
BITMAP
FD0000000002E0
FF4000000002E0
FBE000000002E0
F5FD00000002E0
F42F40000002E0
F40BE0000002E0
F401FD000002E0
F4002F400002E0
F4000BE00002E0
F40001FD0002E0
F400002F4002E0
F400000BE002E0
F4000001FD02E0
F40000002F42E0
F40000000BE2E0
F400000001FEE0
F4000000002FE0
F4000000000BE0
F40000000003D0
F40000000007C0
F4000000001F80
F4001A5001BE00
F4001FFFFFF800
F40005AFFE8000
ENDCHAR
STARTCHAR eng
ENCODING 331
SWIDTH 933 0
DWIDTH 34 0
BBX 26 24 4 0
BITMAP
F40001AFFA4000
F400AFFFFFF400
F40BFE4005BE00
F4BF8000001F40
FBF40000000BC0
FF8000000003D0
FD0000000002E0
F40000000002E0
F40000000002E0
F40000000002E0
F40000000002E0
F40000000002E0
F40000000002E0
F40000000002E0
F40000000002E0
F40000000002E0
F40000000002E0
F40000000002E0
F40000000003D0
F40000000007C0
F4000000001F80
F4000A5001BE00
F4000FFFFFF800
F40001AFFE9000
ENDCHAR
STARTCHAR Omacron
ENCODING 332
SWIDTH 983 0
DWIDTH 35 0
BBX 31 29 2 0
BITMAP
000003FFFF800000
000003FFFF800000
0000000000000000
0000000000000000
0000000000000000
000016BFFE900000
0002FFFFFFFE4000
002FF940016FE400
00BE40000001FD00
03F4000000002F40
0BC0000000000BC0
1F400000000002E0
2E000000000001F4
3D000000000000B8
7C000000000000B8
B80000000000007C
B80000000000007C
B80000000000007C
B80000000000007C
7C000000000000B8
3D000000000000B8
2E000000000001F4
1F400000000002E0
0BC0000000000BC0
03F4000000002F40
00BE40000001FD00
002FF940016FE400
0002FFFFFFFE4000
000016BFFE900000
ENDCHAR
STARTCHAR omacron
ENCODING 333
SWIDTH 983 0
DWIDTH 35 0
BBX 31 29 2 0
BITMAP
000003FFFF800000
000003FFFF800000
0000000000000000
0000000000000000
0000000000000000
000016BFFE900000
0002FFFFFFFE4000
002FF940016FE400
00BE40000001FD00
03F4000000002F40
0BC0000000000BC0
1F400000000002E0
2E000000000001F4
3D000000000000B8
7C000000000000B8
B80000000000007C
B80000000000007C
B80000000000007C
B80000000000007C
7C000000000000B8
3D000000000000B8
2E000000000001F4
1F400000000002E0
0BC0000000000BC0
03F4000000002F40
00BE40000001FD00
002FF940016FE400
0002FFFFFFFE4000
000016BFFE900000
ENDCHAR
STARTCHAR Obreve
ENCODING 334
SWIDTH 983 0
DWIDTH 35 0
BBX 31 30 2 0
BITMAP
00000F0002E00000
00000BD01BD00000
000002FFFF400000
0000006FE8000000
0000000000000000
0000000000000000
000016BFFE900000
0002FFFFFFFE4000
002FF940016FE400
00BE40000001FD00
03F4000000002F40
0BC0000000000BC0
1F400000000002E0
2E000000000001F4
3D000000000000B8
7C000000000000B8
B80000000000007C
B80000000000007C
B80000000000007C
B80000000000007C
7C000000000000B8
3D000000000000B8
2E000000000001F4
1F400000000002E0
0BC0000000000BC0
03F4000000002F40
00BE40000001FD00
002FF940016FE400
0002FFFFFFFE4000
000016BFFE900000
ENDCHAR
STARTCHAR obreve
ENCODING 335
SWIDTH 983 0
DWIDTH 35 0
BBX 31 30 2 0
BITMAP
00000F0002E00000
00000BD01BD00000
000002FFFF400000
0000006FE8000000
0000000000000000
0000000000000000
000016BFFE900000
0002FFFFFFFE4000
002FF940016FE400
00BE40000001FD00
03F4000000002F40
0BC0000000000BC0
1F400000000002E0
2E000000000001F4
3D000000000000B8
7C000000000000B8
B80000000000007C
B80000000000007C
B80000000000007C
B80000000000007C
7C000000000000B8
3D000000000000B8
2E000000000001F4
1F400000000002E0
0BC0000000000BC0
03F4000000002F40
00BE40000001FD00
002FF940016FE400
0002FFFFFFFE4000
000016BFFE900000
ENDCHAR
STARTCHAR Ohungarumlaut
ENCODING 336
SWIDTH 983 0
DWIDTH 35 0
BBX 31 31 2 0
BITMAP
0000000200240000
0000001F80BC0000
000000BE07E00000
000002F42F400000
0000028018000000
0000000000000000
0000000000000000
000016BFFE900000
0002FFFFFFFE4000
002FF940016FE400
00BE40000001FD00
03F4000000002F40
0BC0000000000BC0
1F400000000002E0
2E000000000001F4
3D000000000000B8
7C000000000000B8
B80000000000007C
B80000000000007C
B80000000000007C
B80000000000007C
7C000000000000B8
3D000000000000B8
2E000000000001F4
1F400000000002E0
0BC0000000000BC0
03F4000000002F40
00BE40000001FD00
002FF940016FE400
0002FFFFFFFE4000
000016BFFE900000
ENDCHAR
STARTCHAR ohungarumlaut
ENCODING 337
SWIDTH 983 0
DWIDTH 35 0
BBX 31 31 2 0
BITMAP
0000000200240000
0000001F80BC0000
000000BE07E00000
000002F42F400000
0000028018000000
0000000000000000
0000000000000000
000016BFFE900000
0002FFFFFFFE4000
002FF940016FE400
00BE40000001FD00
03F4000000002F40
0BC0000000000BC0
1F400000000002E0
2E000000000001F4
3D000000000000B8
7C000000000000B8
B80000000000007C
B80000000000007C
B80000000000007C
B80000000000007C
7C000000000000B8
3D000000000000B8
2E000000000001F4
1F400000000002E0
0BC0000000000BC0
03F4000000002F40
00BE40000001FD00
002FF940016FE400
0002FFFFFFFE4000
000016BFFE900000
ENDCHAR
STARTCHAR OE
ENCODING 338
SWIDTH 1338 0
DWIDTH 48 0
BBX 44 24 2 0
BITMAP
000016BFFFFFFFFFFFFFFD
0001FFFFFFFFFFFFFFFFFD
001FF940005BD000000000
00BE40000003D000000000
02F400000003D000000000
0BD000000003D000000000
1F4000000003D000000000
2E0000000003D000000000
3D0000000003D000000000
7C0000000003D000000000
B80000000003FFFFFFFFF4
B80000000003FFFFFFFFF4
B80000000003D000000000
B80000000003D000000000
7C0000000003D000000000
3D0000000003D000000000
2E0000000003D000000000
1F4000000003D000000000
0BC000000003D000000000
03F400000003D000000000
00BE40000003D000000000
002FE940005BD000000000
0002FFFFFFFFFFFFFFFFFD
000016BFFFFFFFFFFFFFFD
ENDCHAR
STARTCHAR oe
ENCODING 339
SWIDTH 1688 0
DWIDTH 61 0
BBX 57 24 2 0
BITMAP
000016BFFE9000000006BFE9400000
0002FFFFFFFE400001BFFFFFF40000
002FF940016FE4001BF94016FF4000
00BE40000001FD007F4000001FD000
03F4000000002F41F800000002F400
0BC0000000000BD7E000000000BC00
1F400000000002EB80000000002D00
2E000000000001FF40000000001F00
3D000000000000BE00000000000F40
7C000000000000BD00000000000B40
B80000000000007C00000000000780
B80000000000007FFFFFFFFFFFFF80
B80000000000007FFFFFFFFFFFFF80
B80000000000007C00000000000000
7C000000000000BD00000000000000
3D000000000000BE00000000000000
2E000000000001FF00000000000000
1F400000000002EF80000000000000
0BC0000000000BD7E0000000000000
03F4000000002F41F8000000000000
00BE40000001FD007F800000001800
002FF940016FE4001BFA50005BF800
0002FFFFFFFE400001BFFFFFFFF800
000016BFFE9000000006BFFFEA5000
ENDCHAR
STARTCHAR Racute
ENCODING 340
SWIDTH 833 0
DWIDTH 30 0
BBX 25 31 4 0
BITMAP
00000019000000
000001BE000000
00001BE4000000
0001BE40000000
00009000000000
00000000000000
00000000000000
FFFFFFFE900000
FFFFFFFFFE0000
F40000056F8000
F400000007E000
F400000001F000
F400000000F400
F400000000F400
F400000000F400
F400000000F400
F400000001F000
F400000007E000
F40000056FC000
FFFFFFFFFE0000
FFFFFFFF900000
F4000007C00000
F4000002F00000
F4000000B80000
F40000003D0000
F40000001F4000
F40000000BC000
F400000002F000
F400000000F800
F4000000007D00
F4000000001F40
ENDCHAR
STARTCHAR racute
ENCODING 341
SWIDTH 609 0
DWIDTH 22 0
BBX 18 31 4 0
BITMAP
000000A000
00000BF000
0000BF8000
000BE40000
000A400000
0000000000
0000000000
F40016FFE0
F401BFFFF0
F41FE50050
F4BE400000
F6F4000000
FF80000000
FE00000000
F800000000
F400000000
F400000000
F400000000
F400000000
F400000000
F400000000
F400000000
F400000000
F400000000
F400000000
F400000000
F400000000
F400000000
F400000000
F400000000
F400000000
ENDCHAR
STARTCHAR Rcommaaccent
ENCODING 342
SWIDTH 833 0
DWIDTH 30 0
BBX 25 32 4 -8
BITMAP
FFFFFFFE900000
FFFFFFFFFE0000
F40000056F8000
F400000007E000
F400000001F000
F400000000F400
F400000000F400
F400000000F400
F400000000F400
F400000001F000
F400000007E000
F40000056FC000
FFFFFFFFFE0000
FFFFFFFF900000
F4000007C00000
F4000002F00000
F4000000B80000
F40000003D0000
F40000001F4000
F40000000BC000
F400000002F000
F400000000F800
F4000000007D00
F4000000001F40
00000000000000
00000000000000
00000000000000
00000F40000000
00001F00000000
00001F00000000
00001E00000000
00002D00000000
ENDCHAR
STARTCHAR rcommaaccent
ENCODING 343
SWIDTH 609 0
DWIDTH 22 0
BBX 19 32 3 -8
BITMAP
3D0005BFF8
3D006FFFFC
3D07F94014
3D2F900000
3DBD000000
3FE0000000
3F80000000
3E00000000
3D00000000
3D00000000
3D00000000
3D00000000
3D00000000
3D00000000
3D00000000
3D00000000
3D00000000
3D00000000
3D00000000
3D00000000
3D00000000
3D00000000
3D00000000
3D00000000
0000000000
0000000000
0000000000
2E00000000
3D00000000
3C00000000
7800000000
7800000000
ENDCHAR
STARTCHAR Rcaron
ENCODING 344
SWIDTH 833 0
DWIDTH 30 0
BBX 25 31 4 0
BITMAP
02800006000000
02F900BE400000
002F9BF4000000
0006FF40000000
00007800000000
00000000000000
00000000000000
FFFFFFFE900000
FFFFFFFFFE0000
F40000056F8000
F400000007E000
F400000001F000
F400000000F400
F400000000F400
F400000000F400
F400000000F400
F400000001F000
F400000007E000
F40000056FC000
FFFFFFFFFE0000
FFFFFFFF900000
F4000007C00000
F4000002F00000
F4000000B80000
F40000003D0000
F40000001F4000
F40000000BC000
F400000002F000
F400000000F800
F4000000007D00
F4000000001F40
ENDCHAR
STARTCHAR rcaron
ENCODING 345
SWIDTH 609 0
DWIDTH 22 0
BBX 18 31 4 0
BITMAP
1900006400
1FD006F400
02FEBF8000
002FF80000
0006900000
0000000000
0000000000
F40016FFE0
F401BFFFF0
F41FE50050
F4BE400000
F6F4000000
FF80000000
FE00000000
F800000000
F400000000
F400000000
F400000000
F400000000
F400000000
F400000000
F400000000
F400000000
F400000000
F400000000
F400000000
F400000000
F400000000
F400000000
F400000000
F400000000
ENDCHAR
STARTCHAR Sacute
ENCODING 346
SWIDTH 787 0
DWIDTH 28 0
BBX 23 31 3 0
BITMAP
000000028000
0000006FC000
000006FD0000
00002F900000
000028000000
000000000000
000000000000
001AFFFA9500
06FFFFFFFF80
2FE50005BF80
7E0000000280
F80000000000
F40000000000
F40000000000
B80000000000
3F4000000000
1BF900000000
01BFE5000000
0006FFE50000
000016FFE000
00000016FE00
000000002FD0
0000000002F0
0000000000F4
0000000000B8
0000000000F8
0000000001F4
9000000007E0
FE940005BF80
FFFFFFFFF900
16AFFFFA4000
ENDCHAR
STARTCHAR sacute
ENCODING 347
SWIDTH 787 0
DWIDTH 28 0
BBX 23 31 3 0
BITMAP
000000028000
0000006FC000
000006FD0000
00002F900000
000028000000
000000000000
000000000000
001AFFFA9500
06FFFFFFFF80
2FE50005BF80
7E0000000280
F80000000000
F40000000000
F40000000000
B80000000000
3F4000000000
1BF900000000
01BFE5000000
0006FFE50000
000016FFE000
00000016FE00
000000002FD0
0000000002F0
0000000000F4
0000000000B8
0000000000F8
0000000001F4
9000000007E0
FE940005BF80
FFFFFFFFF900
16AFFFFA4000
ENDCHAR
STARTCHAR Scircumflex
ENCODING 348
SWIDTH 787 0
DWIDTH 28 0
BBX 23 31 3 0
BITMAP
00001A000000
0000BFE00000
000BFAFD0000
007E401FD000
006400019000
000000000000
000000000000
001AFFFA9500
06FFFFFFFF80
2FE50005BF80
7E0000000280
F80000000000
F40000000000
F40000000000
B80000000000
3F4000000000
1BF900000000
01BFE5000000
0006FFE50000
000016FFE000
00000016FE00
000000002FD0
0000000002F0
0000000000F4
0000000000B8
0000000000F8
0000000001F4
9000000007E0
FE940005BF80
FFFFFFFFF900
16AFFFFA4000
ENDCHAR
STARTCHAR scircumflex
ENCODING 349
SWIDTH 787 0
DWIDTH 28 0
BBX 23 31 3 0
BITMAP
00001A000000
0000BFE00000
000BFAFD0000
007E401FD000
006400019000
000000000000
000000000000
001AFFFA9500
06FFFFFFFF80
2FE50005BF80
7E0000000280
F80000000000
F40000000000
F40000000000
B80000000000
3F4000000000
1BF900000000
01BFE5000000
0006FFE50000
000016FFE000
00000016FE00
000000002FD0
0000000002F0
0000000000F4
0000000000B8
0000000000F8
0000000001F4
9000000007E0
FE940005BF80
FFFFFFFFF900
16AFFFFA4000
ENDCHAR
STARTCHAR Scedilla
ENCODING 350
SWIDTH 787 0
DWIDTH 28 0
BBX 23 31 3 -7
BITMAP
001AFFFA9500
06FFFFFFFF80
2FE50005BF80
7E0000000280
F80000000000
F40000000000
F40000000000
B80000000000
7F4000000000
1FF900000000
01BFE5000000
0016FFE40000
00001AFF9000
0000001AFE00
000000002FC0
0000000002F0
0000000000F4
0000000000B8
0000000000F8
0000000001F4
9000000007E0
FE940005BF80
FFFFFFFFFD00
16AFFFFA4000
00000A000000
00000E000000
00001FE40000
0000007C0000
0000007C0000
0003FFFC0000
0003FFE00000
ENDCHAR
STARTCHAR scedilla
ENCODING 351
SWIDTH 787 0
DWIDTH 28 0
BBX 23 31 3 -7
BITMAP
001AFFFA9500
06FFFFFFFF80
2FE50005BF80
7E0000000280
F80000000000
F40000000000
F40000000000
B80000000000
7F4000000000
1FF900000000
01BFE5000000
0016FFE40000
00001AFF9000
0000001AFE00
000000002FC0
0000000002F0
0000000000F4
0000000000B8
0000000000F8
0000000001F4
9000000007E0
FE940005BF80
FFFFFFFFFD00
16AFFFFA4000
00000A000000
00000E000000
00001FE40000
0000007C0000
0000007C0000
0003FFFC0000
0003FFE00000
ENDCHAR
STARTCHAR Scaron
ENCODING 352
SWIDTH 787 0
DWIDTH 28 0
BBX 23 31 3 0
BITMAP
006400019000
007E401FD000
000BF6FE0000
0000BFE00000
00001A000000
000000000000
000000000000
001AFFFA9500
06FFFFFFFF80
2FE50005BF80
7E0000000280
F80000000000
F40000000000
F40000000000
B80000000000
3F4000000000
1BF900000000
01BFE5000000
0006FFE50000
000016FFE000
00000016FE00
000000002FD0
0000000002F0
0000000000F4
0000000000B8
0000000000F8
0000000001F4
9000000007E0
FE940005BF80
FFFFFFFFF900
16AFFFFA4000
ENDCHAR
STARTCHAR scaron
ENCODING 353
SWIDTH 787 0
DWIDTH 28 0
BBX 23 31 3 0
BITMAP
006400019000
007E401FD000
000BF6FE0000
0000BFE00000
00001A000000
000000000000
000000000000
001AFFFA9500
06FFFFFFFF80
2FE50005BF80
7E0000000280
F80000000000
F40000000000
F40000000000
B80000000000
3F4000000000
1BF900000000
01BFE5000000
0006FFE50000
000016FFE000
00000016FE00
000000002FD0
0000000002F0
0000000000F4
0000000000B8
0000000000F8
0000000001F4
9000000007E0
FE940005BF80
FFFFFFFFF900
16AFFFFA4000
ENDCHAR
STARTCHAR Tcommaaccent
ENCODING 354
SWIDTH 708 0
DWIDTH 26 0
BBX 25 32 0 -8
BITMAP
7FFFFFFFFFFFC0
7FFFFFFFFFFFC0
000001F0000000
000001F0000000
000001F0000000
000001F0000000
000001F0000000
000001F0000000
000001F0000000
000001F0000000
000001F0000000
000001F0000000
000001F0000000
000001F0000000
000001F0000000
000001F0000000
000001F0000000
000001F0000000
000001F0000000
000001F0000000
000001F0000000
000001F0000000
000001F0000000
000001F0000000
00000000000000
00000000000000
00000000000000
000001F4000000
000001F0000000
000002E0000000
000002D0000000
000002C0000000
ENDCHAR
STARTCHAR tcommaaccent
ENCODING 355
SWIDTH 708 0
DWIDTH 26 0
BBX 25 32 0 -8
BITMAP
7FFFFFFFFFFFC0
7FFFFFFFFFFFC0
000001F0000000
000001F0000000
000001F0000000
000001F0000000
000001F0000000
000001F0000000
000001F0000000
000001F0000000
000001F0000000
000001F0000000
000001F0000000
000001F0000000
000001F0000000
000001F0000000
000001F0000000
000001F0000000
000001F0000000
000001F0000000
000001F0000000
000001F0000000
000001F0000000
000001F0000000
00000000000000
00000000000000
00000000000000
000001F4000000
000001F0000000
000002E0000000
000002D0000000
000002C0000000
ENDCHAR
STARTCHAR Tcaron
ENCODING 356
SWIDTH 708 0
DWIDTH 26 0
BBX 25 31 0 0
BITMAP
000A4000180000
000BE402F90000
0000BF6FD00000
00001BFD000000
000001E0000000
00000000000000
00000000000000
7FFFFFFFFFFFC0
7FFFFFFFFFFFC0
000001F0000000
000001F0000000
000001F0000000
000001F0000000
000001F0000000
000001F0000000
000001F0000000
000001F0000000
000001F0000000
000001F0000000
000001F0000000
000001F0000000
000001F0000000
000001F0000000
000001F0000000
000001F0000000
000001F0000000
000001F0000000
000001F0000000
000001F0000000
000001F0000000
000001F0000000
ENDCHAR
STARTCHAR tcaron
ENCODING 357
SWIDTH 708 0
DWIDTH 26 0
BBX 25 31 0 0
BITMAP
000A4000190000
000BE402FD0000
0000BF6FD00000
00001BFE000000
000001A0000000
00000000000000
00000000000000
7FFFFFFFFFFFC0
7FFFFFFFFFFFC0
000001F0000000
000001F0000000
000001F0000000
000001F0000000
000001F0000000
000001F0000000
000001F0000000
000001F0000000
000001F0000000
000001F0000000
000001F0000000
000001F0000000
000001F0000000
000001F0000000
000001F0000000
000001F0000000
000001F0000000
000001F0000000
000001F0000000
000001F0000000
000001F0000000
000001F0000000
ENDCHAR
STARTCHAR Tbar
ENCODING 358
SWIDTH 708 0
DWIDTH 26 0
BBX 25 24 0 0
BITMAP
7FFFFFFFFFFFC0
7FFFFFFFFFFFC0
000001F0000000
000001F0000000
000001F0000000
000001F0000000
000001F0000000
000001F0000000
000001F0000000
02FFFFFFFFF400
02FFFFFFFFF400
000001F0000000
000001F0000000
000001F0000000
000001F0000000
000001F0000000
000001F0000000
000001F0000000
000001F0000000
000001F0000000
000001F0000000
000001F0000000
000001F0000000
000001F0000000
ENDCHAR
STARTCHAR tbar
ENCODING 359
SWIDTH 708 0
DWIDTH 26 0
BBX 25 24 0 0
BITMAP
7FFFFFFFFFFFC0
7FFFFFFFFFFFC0
000001F0000000
000001F0000000
000001F0000000
000001F0000000
000001F0000000
000001F0000000
000001F0000000
02FFFFFFFFF400
02FFFFFFFFF400
000001F0000000
000001F0000000
000001F0000000
000001F0000000
000001F0000000
000001F0000000
000001F0000000
000001F0000000
000001F0000000
000001F0000000
000001F0000000
000001F0000000
000001F0000000
ENDCHAR
STARTCHAR Utilde
ENCODING 360
SWIDTH 891 0
DWIDTH 32 0
BBX 25 30 4 0
BITMAP
0001F900740000
0007FFD0F00000
000B47FFE00000
000E006F800000
00000000000000
00000000000000
F0000000000F40
F0000000000F40
F0000000000F40
F0000000000F40
F0000000000F40
F0000000000F40
F0000000000F40
F0000000000F40
F0000000000F40
F0000000000F40
F0000000000F40
F0000000000F40
F0000000000F40
F0000000000F40
F0000000000F40
F0000000000F40
F0000000000F40
F4000000001F00
B8000000002E00
7E00000000BD00
2F90000006F800
07FE4001AFE000
01BFFFFFFE4000
0006BFFE900000
ENDCHAR
STARTCHAR utilde
ENCODING 361
SWIDTH 931 0
DWIDTH 34 0
BBX 26 30 4 0
BITMAP
0000BE402C0000
0002FFE4780000
000382FFF40000
0007401BD00000
00000000000000
00000000000000
F40000000002D0
F40000000002D0
F40000000002D0
F40000000002D0
F40000000002D0
F40000000002D0
F40000000002D0
F40000000002D0
F40000000002D0
F40000000002D0
F40000000002D0
F40000000002D0
F40000000002D0
F40000000002D0
F40000000002D0
F40000000002D0
F40000000002D0
F4000000000BD0
B8000000006FD0
7C00000002FBD0
2F0000006FD2D0
0BE4005BFD02D0
02FFFFFF9002D0
001BFFA40002D0
ENDCHAR
STARTCHAR Umacron
ENCODING 362
SWIDTH 891 0
DWIDTH 32 0
BBX 25 29 4 0
BITMAP
0002FFFFC00000
0002FFFFC00000
00000000000000
00000000000000
00000000000000
F0000000000F40
F0000000000F40
F0000000000F40
F0000000000F40
F0000000000F40
F0000000000F40
F0000000000F40
F0000000000F40
F0000000000F40
F0000000000F40
F0000000000F40
F0000000000F40
F0000000000F40
F0000000000F40
F0000000000F40
F0000000000F40
F0000000000F40
F4000000001F00
B8000000002E00
7E00000000BD00
2F90000006F800
07FE4001AFE000
01BFFFFFFE4000
0006BFFE900000
ENDCHAR
STARTCHAR umacron
ENCODING 363
SWIDTH 931 0
DWIDTH 34 0
BBX 26 29 4 0
BITMAP
0000FFFFE00000
0000FFFFE00000
00000000000000
00000000000000
00000000000000
F40000000002D0
F40000000002D0
F40000000002D0
F40000000002D0
F40000000002D0
F40000000002D0
F40000000002D0
F40000000002D0
F40000000002D0
F40000000002D0
F40000000002D0
F40000000002D0
F40000000002D0
F40000000002D0
F40000000002D0
F40000000002D0
F40000000002D0
F4000000000BD0
B8000000006FD0
7C00000002FBD0
2F0000006FD2D0
0BE4005BFD02D0
02FFFFFF9002D0
001BFFA40002D0
ENDCHAR
STARTCHAR Ubreve
ENCODING 364
SWIDTH 891 0
DWIDTH 32 0
BBX 25 30 4 0
BITMAP
000B4001F00000
0007E407D00000
0001FFFF800000
00006FF9000000
00000000000000
00000000000000
F0000000000F40
F0000000000F40
F0000000000F40
F0000000000F40
F0000000000F40
F0000000000F40
F0000000000F40
F0000000000F40
F0000000000F40
F0000000000F40
F0000000000F40
F0000000000F40
F0000000000F40
F0000000000F40
F0000000000F40
F0000000000F40
F0000000000F40
F4000000001F00
B8000000002E00
7E00000000BD00
2F90000006F800
07FE4001AFE000
01BFFFFFFE4000
0006BFFE900000
ENDCHAR
STARTCHAR ubreve
ENCODING 365
SWIDTH 931 0
DWIDTH 34 0
BBX 26 30 4 0
BITMAP
0007C000B80000
0002F406F00000
0000BFFFD00000
00001BFA000000
00000000000000
00000000000000
F40000000002D0
F40000000002D0
F40000000002D0
F40000000002D0
F40000000002D0
F40000000002D0
F40000000002D0
F40000000002D0
F40000000002D0
F40000000002D0
F40000000002D0
F40000000002D0
F40000000002D0
F40000000002D0
F40000000002D0
F40000000002D0
F40000000002D0
F4000000000BD0
B8000000006FD0
7C00000002FBD0
2F0000006FD2D0
0BE4005BFD02D0
02FFFFFF9002D0
001BFFA40002D0
ENDCHAR
STARTCHAR Uring
ENCODING 366
SWIDTH 891 0
DWIDTH 32 0
BBX 25 33 4 0
BITMAP
00001BE8000000
0000BFFF000000
0001E41B400000
0002D007800000
0001E41B400000
0000BFFF000000
00001BE8000000
00000000000000
00000000000000
F0000000000F40
F0000000000F40
F0000000000F40
F0000000000F40
F0000000000F40
F0000000000F40
F0000000000F40
F0000000000F40
F0000000000F40
F0000000000F40
F0000000000F40
F0000000000F40
F0000000000F40
F0000000000F40
F0000000000F40
F0000000000F40
F0000000000F40
F4000000001F00
B8000000002E00
7E00000000BD00
2F90000006F800
07FE4001AFE000
01BFFFFFFE4000
0006BFFE900000
ENDCHAR
STARTCHAR uring
ENCODING 367
SWIDTH 931 0
DWIDTH 34 0
BBX 26 33 4 0
BITMAP
00000BF9000000
00007FFF800000
0000B807C00000
0000F002D00000
0000B807C00000
00007FFF800000
00000BF9000000
00000000000000
00000000000000
F40000000002D0
F40000000002D0
F40000000002D0
F40000000002D0
F40000000002D0
F40000000002D0
F40000000002D0
F40000000002D0
F40000000002D0
F40000000002D0
F40000000002D0
F40000000002D0
F40000000002D0
F40000000002D0
F40000000002D0
F40000000002D0
F40000000002D0
F4000000000BD0
B8000000006FD0
7C00000002FBD0
2F0000006FD2D0
0BE4005BFD02D0
02FFFFFF9002D0
001BFFA40002D0
ENDCHAR
STARTCHAR Uhungarumlaut
ENCODING 368
SWIDTH 891 0
DWIDTH 32 0
BBX 25 31 4 0
BITMAP
00000240180000
00000BC0BD0000
00007E47F40000
0002F41F800000
00018009000000
00000000000000
00000000000000
F0000000000F40
F0000000000F40
F0000000000F40
F0000000000F40
F0000000000F40
F0000000000F40
F0000000000F40
F0000000000F40
F0000000000F40
F0000000000F40
F0000000000F40
F0000000000F40
F0000000000F40
F0000000000F40
F0000000000F40
F0000000000F40
F0000000000F40
F4000000001F00
B8000000002E00
7E00000000BD00
2F90000006F800
07FE4001AFE000
01BFFFFFFE4000
0006BFFE900000
ENDCHAR
STARTCHAR uhungarumlaut
ENCODING 369
SWIDTH 931 0
DWIDTH 34 0
BBX 26 31 4 0
BITMAP
00000080090000
000007E07F0000
00002F81F80000
0000B90BD00000
00009006000000
00000000000000
00000000000000
F40000000002D0
F40000000002D0
F40000000002D0
F40000000002D0
F40000000002D0
F40000000002D0
F40000000002D0
F40000000002D0
F40000000002D0
F40000000002D0
F40000000002D0
F40000000002D0
F40000000002D0
F40000000002D0
F40000000002D0
F40000000002D0
F40000000002D0
F4000000000BD0
B8000000006FD0
7C00000002FBD0
2F0000006FD2D0
0BE4005BFD02D0
02FFFFFF9002D0
001BFFA40002D0
ENDCHAR
STARTCHAR Uogonek
ENCODING 370
SWIDTH 891 0
DWIDTH 32 0
BBX 25 30 4 -6
BITMAP
F0000000000F40
F0000000000F40
F0000000000F40
F0000000000F40
F0000000000F40
F0000000000F40
F0000000000F40
F0000000000F40
F0000000000F40
F0000000000F40
F0000000000F40
F0000000000F40
F0000000000F40
F0000000000F40
F0000000000F40
F0000000000F40
F0000000000F40
F4000000001F00
B8000000002E00
7E00000000BD00
2F90000006F800
0BFE4001AFE000
01BFFFFFFE4000
0006BFFE900000
00000B40000000
00002D00000000
00003800000000
00007D00000000
00003FFF400000
00000BFF400000
ENDCHAR
STARTCHAR uogonek
ENCODING 371
SWIDTH 931 0
DWIDTH 34 0
BBX 28 30 4 -6
BITMAP
F40000000002D0
F40000000002D0
F40000000002D0
F40000000002D0
F40000000002D0
F40000000002D0
F40000000002D0
F40000000002D0
F40000000002D0
F40000000002D0
F40000000002D0
F40000000002D0
F40000000002D0
F40000000002D0
F40000000002D0
F40000000002D0
F40000000002D0
F4000000000BD0
B8000000006FD0
7C00000002FBD0
2F0000006FD2D0
0BE4005BFD02D0
02FFFFFF9002D0
001BFFA40002D0
00000000000B40
00000000003800
0000000000B400
0000000000F800
0000000000BFFE
00000000001BFE
ENDCHAR
STARTCHAR Wcircumflex
ENCODING 372
SWIDTH 1266 0
DWIDTH 46 0
BBX 43 31 1 0
BITMAP
0000000000680000000000
0000000006FF4000000000
000000002FDBF400000000
00000002F900BE40000000
0000000290000600000000
0000000000000000000000
0000000000000000000000
7C00000000FD000000007C
3D00000001FF00000000B8
2E00000002FF40000001F4
1F40000003DB80000002E0
0F80000007C7C0000003D0
07C000000B83D0000007C0
03D000001F02E000000B80
02E000002E01F400001F40
01F400003D00B800002E00
00B800007C007C00003D00
007C0000B8003D00007C00
003D0000F4002E0000B800
002E0002E0001F0001F400
001F4003D0000F4002E000
000B8007C00007C003D000
0007C00B800003D007C000
0003D00F400002E00B8000
0002E01F000001F01F0000
0000F43D000000F42E0000
0000B87C000000B83D0000
00007CB80000003D7C0000
00003DF40000002EB80000
00002FF00000001FF00000
00000FE00000000FE00000
ENDCHAR
STARTCHAR wcircumflex
ENCODING 373
SWIDTH 1266 0
DWIDTH 46 0
BBX 43 31 1 0
BITMAP
0000000000680000000000
0000000006FF4000000000
000000002FDBF400000000
00000002F900BE40000000
0000000290000600000000
0000000000000000000000
0000000000000000000000
7C00000000FD000000007C
3D00000001FF00000000B8
2E00000002FF40000001F4
1F40000003DB80000002E0
0F80000007C7C0000003D0
07C000000B83D0000007C0
03D000001F02E000000B80
02E000002E01F400001F40
01F400003D00B800002E00
00B800007C007C00003D00
007C0000B8003D00007C00
003D0000F4002E0000B800
002E0002E0001F0001F400
001F4003D0000F4002E000
000B8007C00007C003D000
0007C00B800003D007C000
0003D00F400002E00B8000
0002E01F000001F01F0000
0000F43D000000F42E0000
0000B87C000000B83D0000
00007CB80000003D7C0000
00003DF40000002EB80000
00002FF00000001FF00000
00000FE00000000FE00000
ENDCHAR
STARTCHAR Ycircumflex
ENCODING 374
SWIDTH 763 0
DWIDTH 27 0
BBX 25 31 1 0
BITMAP
000001A0000000
00001BFD000000
0000BF6FD00000
000BE402F90000
000A4000180000
00000000000000
00000000000000
7D000000000B80
1F400000002F00
0BC0000000BD00
02E0000001F400
00F8000007D000
007D00000F8000
001F40002E0000
000BC000BC0000
0002E001F40000
0000F807D00000
00003E0F800000
00001F6E000000
000007FC000000
000002F0000000
000001F0000000
000001F0000000
000001F0000000
000001F0000000
000001F0000000
000001F0000000
000001F0000000
000001F0000000
000001F0000000
000001F0000000
ENDCHAR
STARTCHAR ycircumflex
ENCODING 375
SWIDTH 911 0
DWIDTH 33 0
BBX 26 31 3 0
BITMAP
000001A0000000
00000BFE000000
0000BFAFD00000
0007F401FD0000
00064000190000
00000000000000
00000000000000
B40000000002E0
B40000000002E0
B40000000002E0
B40000000002E0
B40000000002E0
B40000000002E0
B80000000002E0
B80000000002E0
7C0000000007E0
7D000000001FE0
3E000000007FE0
1F40000001F6E0
0BE000001BD2E0
02FE4005FE42E0
006FFFFFE402E0
0006BFF94002E0
000000000002E0
000000000007D0
00000000000FC0
00000000007F40
A400000006FD00
BFA50005BFE000
BFFFFFFFFE4000
16ABFFFA900000
ENDCHAR
STARTCHAR Ydieresis
ENCODING 376
SWIDTH 763 0
DWIDTH 27 0
BBX 25 29 1 0
BITMAP
0000F803E00000
0000F803E00000
0000F803E00000
00000000000000
00000000000000
7D000000000B80
1F400000002F00
0BC0000000BD00
02E0000001F400
00F8000007D000
007D00000F8000
001F40002E0000
000BC000BC0000
0002E001F40000
0000F807D00000
00003E0F800000
00001F6E000000
000007FC000000
000002F0000000
000001F0000000
000001F0000000
000001F0000000
000001F0000000
000001F0000000
000001F0000000
000001F0000000
000001F0000000
000001F0000000
000001F0000000
ENDCHAR
STARTCHAR Zacute
ENCODING 377
SWIDTH 728 0
DWIDTH 26 0
BBX 22 31 2 0
BITMAP
000000018000
0000001FD000
000001FE4000
00001FD00000
000019000000
000000000000
000000000000
3FFFFFFFFFE0
3FFFFFFFFFD0
000000001F40
000000007D00
00000000F800
00000003E000
0000000B8000
0000002F0000
000000BD0000
000001F40000
000007D00000
00001F800000
00003E000000
0000B8000000
0002F0000000
000BC0000000
001F40000000
007D00000000
01F400000000
03E000000000
0F8000000000
2F0000000000
7FFFFFFFFFF0
7FFFFFFFFFF0
ENDCHAR
STARTCHAR zacute
ENCODING 378
SWIDTH 728 0
DWIDTH 26 0
BBX 22 31 2 0
BITMAP
000000018000
0000001FD000
000001FE4000
00001FD00000
000019000000
000000000000
000000000000
3FFFFFFFFFE0
3FFFFFFFFFD0
000000001F40
000000007D00
00000000F800
00000003E000
0000000B8000
0000002F0000
000000BD0000
000001F40000
000007D00000
00001F800000
00003E000000
0000B8000000
0002F0000000
000BC0000000
001F40000000
007D00000000
01F400000000
03E000000000
0F8000000000
2F0000000000
7FFFFFFFFFF0
7FFFFFFFFFF0
ENDCHAR
STARTCHAR Zdotaccent
ENCODING 379
SWIDTH 728 0
DWIDTH 26 0
BBX 22 29 2 0
BITMAP
00000F800000
00000F800000
00000F800000
000000000000
000000000000
3FFFFFFFFFE0
3FFFFFFFFFD0
000000001F40
000000007D00
00000000F800
00000003E000
0000000B8000
0000002F0000
000000BD0000
000001F40000
000007D00000
00001F800000
00003E000000
0000B8000000
0002F0000000
000BC0000000
001F40000000
007D00000000
01F400000000
03E000000000
0F8000000000
2F0000000000
7FFFFFFFFFF0
7FFFFFFFFFF0
ENDCHAR
STARTCHAR zdotaccent
ENCODING 380
SWIDTH 728 0
DWIDTH 26 0
BBX 22 29 2 0
BITMAP
00000F800000
00000F800000
00000F800000
000000000000
000000000000
3FFFFFFFFFE0
3FFFFFFFFFD0
000000001F40
000000007D00
00000000F800
00000003E000
0000000B8000
0000002F0000
000000BD0000
000001F40000
000007D00000
00001F800000
00003E000000
0000B8000000
0002F0000000
000BC0000000
001F40000000
007D00000000
01F400000000
03E000000000
0F8000000000
2F0000000000
7FFFFFFFFFF0
7FFFFFFFFFF0
ENDCHAR
STARTCHAR Zcaron
ENCODING 381
SWIDTH 728 0
DWIDTH 26 0
BBX 22 31 2 0
BITMAP
00240000A000
002F801BE000
0007F9BE4000
00007FE40000
00000B400000
000000000000
000000000000
3FFFFFFFFFE0
3FFFFFFFFFD0
000000001F40
000000007D00
00000000F800
00000003E000
0000000B8000
0000002F0000
000000BD0000
000001F40000
000007D00000
00001F800000
00003E000000
0000B8000000
0002F0000000
000BC0000000
001F40000000
007D00000000
01F400000000
03E000000000
0F8000000000
2F0000000000
7FFFFFFFFFF0
7FFFFFFFFFF0
ENDCHAR
STARTCHAR zcaron
ENCODING 382
SWIDTH 728 0
DWIDTH 26 0
BBX 22 31 2 0
BITMAP
00240000A000
002F801BE000
0007F9BE4000
00007FE40000
00000B400000
000000000000
000000000000
3FFFFFFFFFE0
3FFFFFFFFFD0
000000001F40
000000007D00
00000000F800
00000003E000
0000000B8000
0000002F0000
000000BD0000
000001F40000
000007D00000
00001F800000
00003E000000
0000B8000000
0002F0000000
000BC0000000
001F40000000
007D00000000
01F400000000
03E000000000
0F8000000000
2F0000000000
7FFFFFFFFFF0
7FFFFFFFFFF0
ENDCHAR
STARTCHAR florin
ENCODING 402
SWIDTH 835 0
DWIDTH 30 0
BBX 28 25 1 -1
BITMAP
0000000001BFFF
000000001FFFFF
000000007F4016
00000000B80000
00000001F40000
00000002E00000
00000002D00000
00000003D00000
00000007C00000
00007FFFFFF400
00007FFFFFF400
0000001F000000
0000002E000000
0000003D000000
0000007C000000
000000B8000000
000000F4000000
000001F0000000
000002E0000000
000003D0000000
000007C0000000
00001F40000000
A401BE00000000
FFFFF800000000
FFFE9000000000
ENDCHAR
STARTCHAR AEacute
ENCODING 508
SWIDTH 1172 0
DWIDTH 42 0
BBX 40 31 0 0
BITMAP
00000000000000064000
000000000000006F8000
00000000000006F90000
0000000000007F900000
00000000000024000000
00000000000000000000
00000000000000000000
00000000FFFFFFFFFFFD
00000002FFFFFFFFFFFD
00000007C3E000000000
0000000F43E000000000
0000002E03E000000000
0000007D03E000000000
000000F803E000000000
000002F003E000000000
000007D003E000000000
00000F8003E000000000
00002F0003FFFFFFFFF4
00007D0003FFFFFFFFF4
0001F80003E000000000
0002F00003E000000000
000BD00003E000000000
001F800003E000000000
003FFFFFFFE000000000
00BFFFFFFFE000000000
01F8000003E000000000
03F0000003E000000000
0BD0000003E000000000
1F80000003E000000000
3F00000003FFFFFFFFFE
BD00000003FFFFFFFFFE
ENDCHAR
STARTCHAR aeacute
ENCODING 509
SWIDTH 1551 0
DWIDTH 56 0
BBX 52 31 2 0
BITMAP
00000000000000060000000000
000000000000007F4000000000
00000000000007F90000000000
0000000000007F400000000000
00000000000064000000000000
00000000000000000000000000
00000000000000000000000000
005ABFFFE90000001AFFA50000
0BFFFFFFFFE40006FFFFFFD000
0BFA50005AFE006FE5001BFD00
06400000002F81FD0000006F40
000000000007D7E00000000BD0
000000000002EF8000000002F0
000000000001FF0000000000B8
000000000000FD00000000007C
000000000000F800000000002D
000000056ABFF400000000002E
00001AFFFFFFF400000000001E
001BFFFA9541FFFFFFFFFFFFFE
01BFE5000000FFFFFFFFFFFFFF
0BF900000000F4000000000000
2F4000000000F4000000000000
7D0000000000B8000000000000
B800000000007C000000000000
B800000000002E000000000000
B80000000000BF800000000000
7D0000000007FBE00000000000
3F40000001BF91FE0000000060
1FF90005AFF9002FE940016FF0
02FFFFFFFE400006FFFFFFFFF0
001AFFFA500000001AFFFFA940
ENDCHAR
STARTCHAR Oslashacute
ENCODING 510
SWIDTH 983 0
DWIDTH 35 0
BBX 31 34 2 -3
BITMAP
0000000001900000
000000001BE00000
00000001BF400000
0000000BE4000000
0000000900002D00
0000000000007800
000000000000F000
000016BFFE92D000
0002FFFFFFFF8000
002FF940016FE400
00BE4000003EFD00
03F4000000B82F40
0BC0000001E00BD0
1F40000007C002E0
2E0000000F4001F4
3D0000002E0000B8
7C00000078000078
B8000001F000007C
B8000003D000007C
B800000B4000007C
B800001E0000007C
7C00007C000000B8
3D0000F4000000B8
2E0002D0000001F4
1F400B80000002E0
0BC01F0000000BC0
03F43D0000002F40
00FEB4000001FD00
002FF940016FE400
0007FFFFFFFE4000
000F56BFFE900000
002E000000000000
007C000000000000
00F4000000000000
ENDCHAR
STARTCHAR oslashacute
ENCODING 511
SWIDTH 983 0
DWIDTH 35 0
BBX 31 34 2 -3
BITMAP
0000000001900000
000000001BE00000
00000001BF400000
0000000BE4000000
0000000900002D00
0000000000007800
000000000000F000
000016BFFE92D000
0002FFFFFFFF8000
002FF940016FE400
00BE4000003EFD00
03F4000000B82F40
0BC0000001E00BD0
1F40000007C002E0
2E0000000F4001F4
3D0000002E0000B8
7C00000078000078
B8000001F000007C
B8000003D000007C
B800000B4000007C
B800001E0000007C
7C00007C000000B8
3D0000F4000000B8
2E0002D0000001F4
1F400B80000002E0
0BC01F0000000BC0
03F43D0000002F40
00FEB4000001FD00
002FF940016FE400
0007FFFFFFFE4000
000F56BFFE900000
002E000000000000
007C000000000000
00F4000000000000
ENDCHAR
STARTCHAR dotlessj
ENCODING 567
SWIDTH 590 0
DWIDTH 21 0
BBX 18 24 0 0
BITMAP
00000003D0
00000003D0
00000003D0
00000003D0
00000003D0
00000003D0
00000003D0
00000003D0
00000003D0
00000003D0
00000003D0
00000003D0
00000003D0
00000003D0
00000003D0
00000003D0
00000003D0
00000003D0
00000007C0
0000000F80
0000002F00
E54006FD00
FFFFFFE000
1ABFFA4000
ENDCHAR
STARTCHAR circumflex
ENCODING 710
SWIDTH 527 0
DWIDTH 19 0
BBX 13 5 3 20
BITMAP
001D0000
01FFD000
1BE6F900
BE406F80
A0000280
ENDCHAR
STARTCHAR caron
ENCODING 711
SWIDTH 527 0
DWIDTH 19 0
BBX 13 5 3 20
BITMAP
A0000280
BE406F80
1BE6F900
01FFD000
001D0000
ENDCHAR
STARTCHAR breve
ENCODING 728
SWIDTH 527 0
DWIDTH 19 0
BBX 13 4 3 20
BITMAP
78000B40
3E406F00
1FFFFD00
01BF9000
ENDCHAR
STARTCHAR dotaccent
ENCODING 729
SWIDTH 527 0
DWIDTH 19 0
BBX 3 3 8 20
BITMAP
FC
FC
FC
ENDCHAR
STARTCHAR ring
ENCODING 730
SWIDTH 527 0
DWIDTH 19 0
BBX 9 7 5 20
BITMAP
1BF900
7FFF40
F407C0
E002C0
F407C0
7FFF40
1BF900
ENDCHAR
STARTCHAR ogonek
ENCODING 731
SWIDTH 527 0
DWIDTH 19 0
BBX 9 6 5 -6
BITMAP
069000
1D0000
780000
790000
7FFF40
1BFF40
ENDCHAR
STARTCHAR tilde
ENCODING 732
SWIDTH 527 0
DWIDTH 19 0
BBX 13 4 3 20
BITMAP
1BE00380
3FFE4B40
786FFF00
B002F900
ENDCHAR
STARTCHAR hungarumlaut
ENCODING 733
SWIDTH 527 0
DWIDTH 19 0
BBX 13 5 4 20
BITMAP
00600200
01F41F80
0BD0BE00
7E02F400
24028000
ENDCHAR
STARTCHAR commaaccent
ENCODING 806
SWIDTH 527 0
DWIDTH 19 0
BBX 3 5 8 -8
BITMAP
BC
B8
B4
F0
E0
ENDCHAR
STARTCHAR mu
ENCODING 956
SWIDTH 705 0
DWIDTH 25 0
BBX 21 24 1 -7
BITMAP
007C000007C0
007800000780
00B800000B80
00F400000F40
00F000000F40
01F000001F00
01E000001E00
02E000002E00
02D000003D00
03C000003D00
07C000007C00
07C00001FC00
0BD00007F800
0BF4001E7800
0F7D01B87C00
0F1FFFE03C00
1E06FE002D00
2E0000000000
2D0000000000
3D0000000000
3C0000000000
7C0000000000
B80000000000
B40000000000
ENDCHAR
STARTCHAR Wgrave
ENCODING 7808
SWIDTH 1266 0
DWIDTH 46 0
BBX 43 31 1 0
BITMAP
0000000090000000000000
00000001FE000000000000
000000006FE00000000000
0000000001FE0000000000
00000000001A0000000000
0000000000000000000000
0000000000000000000000
7C00000000FD000000007C
3D00000001FF00000000B8
2E00000002FF40000001F4
1F40000003DB80000002E0
0F80000007C7C0000003D0
07C000000B83D0000007C0
03D000001F02E000000B80
02E000002E01F400001F40
01F400003D00B800002E00
00B800007C007C00003D00
007C0000B8003D00007C00
003D0000F4002E0000B800
002E0002E0001F0001F400
001F4003D0000F4002E000
000B8007C00007C003D000
0007C00B800003D007C000
0003D00F400002E00B8000
0002E01F000001F01F0000
0000F43D000000F42E0000
0000B87C000000B83D0000
00007CB80000003D7C0000
00003DF40000002EB80000
00002FF00000001FF00000
00000FE00000000FE00000
ENDCHAR
STARTCHAR wgrave
ENCODING 7809
SWIDTH 1266 0
DWIDTH 46 0
BBX 43 31 1 0
BITMAP
0000000090000000000000
00000001FE000000000000
000000006FE00000000000
0000000001FE0000000000
00000000001A0000000000
0000000000000000000000
0000000000000000000000
7C00000000FD000000007C
3D00000001FF00000000B8
2E00000002FF40000001F4
1F40000003DB80000002E0
0F80000007C7C0000003D0
07C000000B83D0000007C0
03D000001F02E000000B80
02E000002E01F400001F40
01F400003D00B800002E00
00B800007C007C00003D00
007C0000B8003D00007C00
003D0000F4002E0000B800
002E0002E0001F0001F400
001F4003D0000F4002E000
000B8007C00007C003D000
0007C00B800003D007C000
0003D00F400002E00B8000
0002E01F000001F01F0000
0000F43D000000F42E0000
0000B87C000000B83D0000
00007CB80000003D7C0000
00003DF40000002EB80000
00002FF00000001FF00000
00000FE00000000FE00000
ENDCHAR
STARTCHAR Wacute
ENCODING 7810
SWIDTH 1266 0
DWIDTH 46 0
BBX 43 31 1 0
BITMAP
0000000000001900000000
000000000001BE00000000
00000000001BE400000000
0000000000BE4000000000
0000000000900000000000
0000000000000000000000
0000000000000000000000
7C00000000FD000000007C
3D00000001FF00000000B8
2E00000002FF40000001F4
1F40000003DB80000002E0
0F80000007C7C0000003D0
07C000000B83D0000007C0
03D000001F02E000000B80
02E000002E01F400001F40
01F400003D00B800002E00
00B800007C007C00003D00
007C0000B8003D00007C00
003D0000F4002E0000B800
002E0002E0001F0001F400
001F4003D0000F4002E000
000B8007C00007C003D000
0007C00B800003D007C000
0003D00F400002E00B8000
0002E01F000001F01F0000
0000F43D000000F42E0000
0000B87C000000B83D0000
00007CB80000003D7C0000
00003DF40000002EB80000
00002FF00000001FF00000
00000FE00000000FE00000
ENDCHAR
STARTCHAR wacute
ENCODING 7811
SWIDTH 1266 0
DWIDTH 46 0
BBX 43 31 1 0
BITMAP
0000000000001900000000
000000000001BE00000000
00000000001BE400000000
0000000000BE4000000000
0000000000900000000000
0000000000000000000000
0000000000000000000000
7C00000000FD000000007C
3D00000001FF00000000B8
2E00000002FF40000001F4
1F40000003DB80000002E0
0F80000007C7C0000003D0
07C000000B83D0000007C0
03D000001F02E000000B80
02E000002E01F400001F40
01F400003D00B800002E00
00B800007C007C00003D00
007C0000B8003D00007C00
003D0000F4002E0000B800
002E0002E0001F0001F400
001F4003D0000F4002E000
000B8007C00007C003D000
0007C00B800003D007C000
0003D00F400002E00B8000
0002E01F000001F01F0000
0000F43D000000F42E0000
0000B87C000000B83D0000
00007CB80000003D7C0000
00003DF40000002EB80000
00002FF00000001FF00000
00000FE00000000FE00000
ENDCHAR
STARTCHAR Wdieresis
ENCODING 7812
SWIDTH 1266 0
DWIDTH 46 0
BBX 43 29 1 0
BITMAP
000000003E00F800000000
000000003E00F800000000
000000003E00F800000000
0000000000000000000000
0000000000000000000000
7C00000000FD000000007C
3D00000001FF00000000B8
2E00000002FF40000001F4
1F40000003DB80000002E0
0F80000007C7C0000003D0
07C000000B83D0000007C0
03D000001F02E000000B80
02E000002E01F400001F40
01F400003D00B800002E00
00B800007C007C00003D00
007C0000B8003D00007C00
003D0000F4002E0000B800
002E0002E0001F0001F400
001F4003D0000F4002E000
000B8007C00007C003D000
0007C00B800003D007C000
0003D00F400002E00B8000
0002E01F000001F01F0000
0000F43D000000F42E0000
0000B87C000000B83D0000
00007CB80000003D7C0000
00003DF40000002EB80000
00002FF00000001FF00000
00000FE00000000FE00000
ENDCHAR
STARTCHAR wdieresis
ENCODING 7813
SWIDTH 1266 0
DWIDTH 46 0
BBX 43 29 1 0
BITMAP
000000003E00F800000000
000000003E00F800000000
000000003E00F800000000
0000000000000000000000
0000000000000000000000
7C00000000FD000000007C
3D00000001FF00000000B8
2E00000002FF40000001F4
1F40000003DB80000002E0
0F80000007C7C0000003D0
07C000000B83D0000007C0
03D000001F02E000000B80
02E000002E01F400001F40
01F400003D00B800002E00
00B800007C007C00003D00
007C0000B8003D00007C00
003D0000F4002E0000B800
002E0002E0001F0001F400
001F4003D0000F4002E000
000B8007C00007C003D000
0007C00B800003D007C000
0003D00F400002E00B8000
0002E01F000001F01F0000
0000F43D000000F42E0000
0000B87C000000B83D0000
00007CB80000003D7C0000
00003DF40000002EB80000
00002FF00000001FF00000
00000FE00000000FE00000
ENDCHAR
STARTCHAR Ygrave
ENCODING 7922
SWIDTH 763 0
DWIDTH 27 0
BBX 25 31 1 0
BITMAP
00024000000000
0007F800000000
0001BF80000000
000007F8000000
00000068000000
00000000000000
00000000000000
7D000000000B80
1F400000002F00
0BC0000000BD00
02E0000001F400
00F8000007D000
007D00000F8000
001F40002E0000
000BC000BC0000
0002E001F40000
0000F807D00000
00003E0F800000
00001F6E000000
000007FC000000
000002F0000000
000001F0000000
000001F0000000
000001F0000000
000001F0000000
000001F0000000
000001F0000000
000001F0000000
000001F0000000
000001F0000000
000001F0000000
ENDCHAR
STARTCHAR ygrave
ENCODING 7923
SWIDTH 911 0
DWIDTH 33 0
BBX 26 31 3 0
BITMAP
00028000000000
0003F800000000
0000BF90000000
000006F8000000
00000068000000
00000000000000
00000000000000
B40000000002E0
B40000000002E0
B40000000002E0
B40000000002E0
B40000000002E0
B40000000002E0
B80000000002E0
B80000000002E0
7C0000000007E0
7D000000001FE0
3E000000007FE0
1F40000001F6E0
0BE000001BD2E0
02FE4005FE42E0
006FFFFFE402E0
0006BFF94002E0
000000000002E0
000000000007D0
00000000000FC0
00000000007F40
A400000006FD00
BFA50005BFE000
BFFFFFFFFE4000
16ABFFFA900000
ENDCHAR
STARTCHAR endash
ENCODING 8211
SWIDTH 419 0
DWIDTH 15 0
BBX 15 2 0 11
BITMAP
7FFFFFF4
7FFFFFF4
ENDCHAR
STARTCHAR emdash
ENCODING 8212
SWIDTH 1000 0
DWIDTH 36 0
BBX 36 2 0 11
BITMAP
FFFFFFFFFFFFFFFFFF
FFFFFFFFFFFFFFFFFF
ENDCHAR
STARTCHAR quoteleft
ENCODING 8216
SWIDTH 163 0
DWIDTH 6 0
BBX 4 6 1 18
BITMAP
0E
1D
2D
3C
7C
B8
ENDCHAR
STARTCHAR quoteright
ENCODING 8217
SWIDTH 163 0
DWIDTH 6 0
BBX 4 6 1 18
BITMAP
3E
3D
7C
78
B4
B0
ENDCHAR
STARTCHAR quotesinglbase
ENCODING 8218
SWIDTH 163 0
DWIDTH 6 0
BBX 4 6 1 -3
BITMAP
3E
3D
7C
78
B4
B0
ENDCHAR
STARTCHAR quotedblleft
ENCODING 8220
SWIDTH 303 0
DWIDTH 11 0
BBX 9 6 1 18
BITMAP
0E0380
1D0780
2D0B40
3C0F00
7C1F00
B82E00
ENDCHAR
STARTCHAR quotedblright
ENCODING 8221
SWIDTH 303 0
DWIDTH 11 0
BBX 9 6 1 18
BITMAP
3E0B80
3D0F40
7C1F00
781E00
B42D00
B02C00
ENDCHAR
STARTCHAR quotedblbase
ENCODING 8222
SWIDTH 303 0
DWIDTH 11 0
BBX 9 6 1 -3
BITMAP
3E0B80
3D0F40
7C1F00
781E00
B42D00
B02C00
ENDCHAR
STARTCHAR dagger
ENCODING 8224
SWIDTH 500 0
DWIDTH 18 0
BBX 12 24 3 0
BITMAP
003C00
003C00
003C00
003C00
003C00
003C00
BFFFFE
BFFFFE
003C00
003C00
003C00
003C00
003C00
003C00
003C00
003C00
003C00
003C00
003C00
003C00
003C00
003C00
003C00
003C00
ENDCHAR
STARTCHAR daggerdbl
ENCODING 8225
SWIDTH 500 0
DWIDTH 18 0
BBX 12 24 3 0
BITMAP
003C00
003C00
003C00
003C00
003C00
003C00
BFFFFE
BFFFFE
003C00
003C00
003C00
003C00
003C00
003C00
BFFFFE
BFFFFE
003C00
003C00
003C00
003C00
003C00
003C00
003C00
003C00
ENDCHAR
STARTCHAR bullet
ENCODING 8226
SWIDTH 352 0
DWIDTH 13 0
BBX 7 7 3 9
BITMAP
1F90
7FF0
FFF8
FFF8
FFF8
7FF0
1F90
ENDCHAR
STARTCHAR ellipsis
ENCODING 8230
SWIDTH 555 0
DWIDTH 20 0
BBX 18 4 1 0
BITMAP
7F02F80FD0
7F02F80FD0
7F02F80FD0
7F02F80FD0
ENDCHAR
STARTCHAR perthousand
ENCODING 8240
SWIDTH 1401 0
DWIDTH 50 0
BBX 47 24 2 0
BITMAP
01BF90000002E00000000000
0BFFFD00000B800000000000
3F406F40001F000000000000
B8000BC0007D000000000000
F40003D000F4000000000000
F00002D002E0000000000000
F00002D00B80000000000000
F40003D01F00000000000000
B8000BC07D00000000000000
3F406F40F400000000000000
0BFFFD02E000000000000000
01BF900B8000000000000000
0000001F006FE400006FE800
0000007C07FFFF4002FFFF40
000000F40FD01BD00BD01BD0
000002E02E0002F01F0001F0
00000B803C0000F42D0000B4
00001F007C0000B43C000078
00007C007C0000B43C000078
0000F4003C0000F42D0000B4
0003D0002E0002F01F0001F0
000B80000FD01BD00BD01BD0
002F000002FFFF4002FFFF40
007C0000006FE400006FE800
ENDCHAR
STARTCHAR guilsinglleft
ENCODING 8249
SWIDTH 257 0
DWIDTH 9 0
BBX 7 13 1 6
BITMAP
0024
00B8
02F0
0BC0
2F40
7D00
B800
7D00
2F40
0BC0
02F0
00B8
0024
ENDCHAR
STARTCHAR guilsinglright
ENCODING 8250
SWIDTH 257 0
DWIDTH 9 0
BBX 7 13 1 6
BITMAP
2400
7D00
2F40
0BC0
02F0
00F8
007C
00F8
02F0
0BC0
2F40
7D00
2400
ENDCHAR
STARTCHAR fraction
ENCODING 8260
SWIDTH 200 0
DWIDTH 7 0
BBX 21 24 -7 0
BITMAP
0000000007C0
000000001F40
000000003D00
00000000B800
00000002E000
00000007C000
0000001F4000
0000003D0000
000000B80000
000002E00000
000007C00000
00001F400000
00003D000000
0000B8000000
0002E0000000
0007C0000000
001F40000000
003D00000000
00B800000000
02E000000000
07C000000000
1F4000000000
3D0000000000
B80000000000
ENDCHAR
STARTCHAR Euro
ENCODING 8364
SWIDTH 833 0
DWIDTH 30 0
BBX 27 24 1 0
BITMAP
0000006FFFA400
00001BFFFFFF90
0000BF94016FF4
0002F8000001B4
000BD000000024
001F4000000000
003D0000000000
00780000000000
00B40000000000
BFFFFFFFFF4000
FFFFFFFFFF0000
01E00000000000
01E00000000000
01E00000000000
BFFFFFFFF80000
FFFFFFFFF40000
00F40000000000
00B80000000000
003E0000000000
001F8000000024
0007E4000001B4
0001FF90016FF4
00001FFFFFFF90
000001AFFE9400
ENDCHAR
STARTCHAR trademark
ENCODING 8482
SWIDTH 773 0
DWIDTH 28 0
BBX 24 10 1 14
BITMAP
FFFF8B80003D
01C00BC000BD
01C00BE000ED
01C00B74029D
01C00B28075D
01C00B1D0A1D
01C00B0A1D1D
01C00B03681D
01C00B02F01D
01C00B00E01D
ENDCHAR
STARTCHAR partialdiff
ENCODING 8706
SWIDTH 790 0
DWIDTH 28 0
BBX 25 24 2 0
BITMAP
00001BFE900000
0002FFFFFE0000
000BE4016FD000
0009000002F400
0000000000BC00
00000000003D00
00000000001E00
00000000001F00
0001BFFA400F00
006FFFFFF40F40
02FE5005FF4F40
0BD000001BEF40
2F40000001FF00
3D000000007F00
B8000000002E00
B4000000003D00
B400000000BC00
B400000001F400
B800000003F000
3D0000000FC000
2F8000007F4000
0BF9001BF80000
01FFFFFF900000
001AFFA5000000
ENDCHAR
STARTCHAR minus
ENCODING 8722
SWIDTH 634 0
DWIDTH 23 0
BBX 17 2 3 11
BITMAP
FFFFFFFF80
FFFFFFFF80
ENDCHAR
STARTCHAR uni2215
ENCODING 8725
SWIDTH 200 0
DWIDTH 7 0
BBX 21 24 -7 0
BITMAP
0000000007C0
000000001F40
000000003D00
00000000B800
00000002E000
00000007C000
0000001F4000
0000003D0000
000000B80000
000002E00000
000007C00000
00001F400000
00003D000000
0000B8000000
0002E0000000
0007C0000000
001F40000000
003D00000000
00B800000000
02E000000000
07C000000000
1F4000000000
3D0000000000
B80000000000
ENDCHAR
STARTCHAR approxequal
ENCODING 8776
SWIDTH 634 0
DWIDTH 23 0
BBX 18 10 2 8
BITMAP
06FA400020
2FFFF901B0
7905BFFFE0
500006FE40
0000000000
0000000000
06FA400020
2FFFF901B0
7905BFFFE0
500006FE40
ENDCHAR
STARTCHAR notequal
ENCODING 8800
SWIDTH 634 0
DWIDTH 23 0
BBX 17 19 3 3
BITMAP
00000B4000
00000F0000
00001E0000
00002D0000
00003C0000
FFFFFFFF80
FFFFFFFF80
0000F00000
0001E00000
0002D00000
0003C00000
0007800000
FFFFFFFF80
FFFFFFFF80
001E000000
002D000000
003C000000
0078000000
00B4000000
ENDCHAR
STARTCHAR lessequal
ENCODING 8804
SWIDTH 634 0
DWIDTH 23 0
BBX 18 19 2 2
BITMAP
0000000060
0000001BF0
000001BF80
00006FE400
0006FE4000
00BFD00000
1BF9000000
7F80000000
7F80000000
1BF9000000
00BFD00000
0006FE4000
00006FE400
000001BF80
0000001BF0
0000000060
0000000000
3FFFFFFFE0
3FFFFFFFE0
ENDCHAR
STARTCHAR greaterequal
ENCODING 8805
SWIDTH 634 0
DWIDTH 23 0
BBX 17 19 3 2
BITMAP
9000000000
FE00000000
6FE4000000
01FF800000
001BF90000
0000BFD000
000006FE40
0000002FC0
0000002FC0
000006FE40
0000BFD000
001BF90000
01FF800000
6FE4000000
FE00000000
9000000000
0000000000
FFFFFFFF80
FFFFFFFF80
ENDCHAR
STARTCHAR fi
ENCODING 64257
SWIDTH 1104 0
DWIDTH 40 0
BBX 32 24 4 0
BITMAP
0006BFFFFFFD002E
01BFFFFFFFFD002E
0BF940000000002E
2F8000000000002E
7E0000000000002E
BC0000000000002E
B80000000000002E
F40000000000002E
F40000000000002E
F40000000000002E
F40000000000002E
FFFFFFFFFFFC002E
FFFFFFFFFFFC002E
F40000000000002E
F40000000000002E
F40000000000002E
F40000000000002E
F40000000000002E
F40000000000002E
F40000000000002E
F40000000000002E
F40000000000002E
F40000000000002E
F40000000000002E
ENDCHAR
STARTCHAR fl
ENCODING 64258
SWIDTH 1527 0
DWIDTH 55 0
BBX 51 24 4 0
BITMAP
0006BFFFFFFD002E0000000000
01BFFFFFFFFD002E0000000000
0BF940000000002E0000000000
2F8000000000002E0000000000
7E0000000000002E0000000000
BC0000000000002E0000000000
B80000000000002E0000000000
F40000000000002E0000000000
F40000000000002E0000000000
F40000000000002E0000000000
F40000000000002E0000000000
FFFFFFFFFFFC002E0000000000
FFFFFFFFFFFC002E0000000000
F40000000000002E0000000000
F40000000000002E0000000000
F40000000000002E0000000000
F40000000000001E0000000000
F40000000000001E0000000000
F40000000000001F0000000000
F40000000000000F4000000000
F40000000000000BD000000000
F400000000000003F940000000
F400000000000000BFFFFFFFF8
F4000000000000001AFFFFFFF8
ENDCHAR
STARTCHAR .notdef
ENCODING -1
SWIDTH 1000 0
DWIDTH 36 0
BBX 1 1 0 0
BITMAP
00
ENDCHAR
ENDFONT
